<?xml version="1.0" encoding="utf-8"?>
<!-- Generator: Adobe Illustrator 26.3.1, SVG Export Plug-In . SVG Version: 6.00 Build 0)  -->
<svg version="1.1" id="レイヤー_1" xmlns="http://www.w3.org/2000/svg" xmlns:xlink="http://www.w3.org/1999/xlink" x="0px"
	 y="0px" viewBox="0 0 150 150" style="enable-background:new 0 0 150 150;" xml:space="preserve">
<style type="text/css">
	.st0{fill:#0364ca ;}
</style>
<path class="st0" d="M75,4.1C35.8,4.1,4.1,35.8,4.1,75s31.8,70.9,70.9,70.9s70.9-31.8,70.9-70.9S114.2,4.1,75,4.1z M75,114.9
	c-5,0-8.9-3.9-8.9-8.9s3.6-8.9,8.9-8.9c4.7,0,8.9,3.9,8.9,8.9S79.7,114.9,75,114.9z M94.1,75.6l-12.5,7.8v0.6c0,3.6-3,6.7-6.7,6.7
	s-6.7-3-6.7-6.7v-4.4c0-2.2,1.1-4.4,3.3-5.8l15.8-9.4c1.9-1.1,3-3,3-5.3c0-3.3-3-6.1-6.3-6.1H70c-3.6,0-6.1,2.8-6.1,6.1
	c0,3.6-3,6.7-6.7,6.7c-3.6,0-6.7-3-6.7-6.7c0-10.8,8.6-19.4,19.1-19.4h14.2c11.3,0,19.9,8.6,19.9,19.4
	C103.8,65.6,100.2,72,94.1,75.6z"/>
</svg>
