<?xml version="1.0" encoding="utf-8"?>
<!-- Generator: Adobe Illustrator 26.4.1, SVG Export Plug-In . SVG Version: 6.00 Build 0)  -->
<svg version="1.1" id="レイヤー_1" xmlns="http://www.w3.org/2000/svg" xmlns:xlink="http://www.w3.org/1999/xlink" x="0px"
	 y="0px" viewBox="0 0 2267.7 708.7" style="enable-background:new 0 0 2267.7 708.7;" xml:space="preserve">
<style type="text/css">
	.st0{fill:#7DB2E0;stroke:#B5B5B6;stroke-miterlimit:10;}
</style>
<g>
	<rect y="0" class="st0" width="2267.7" height="708.7"/>
	<path class="st0" d="M109.9,281.9l-7.9,72.2l38.5-87.8L109.9,281.9L109.9,281.9z M1022.2,499l50.9,37.1l23.6-56.4l-7.6,2
		L1022.2,499z M1147,160.2l-20.7,11.2l4.2,49.1l7.8-14.4l18.1-33.6L1147,160.2z"/>
	<path class="st0" d="M1258.3,623l1.2-4.6l-6.4,4.7L1258.3,623z M1267.5,586.1l-29.2,37l14.3-0.1l6.9-5l2.5-9.9l3.6-14.5
		L1267.5,586.1L1267.5,586.1z"/>
	<path class="st0" d="M2253.9,353.4l-15.3,25.7l-22.8,38.3l51.9-0.5v-33.1L2253.9,353.4z M1651.6,118.6l-6-10.9l-11.2,8.4
		l-28.8,21.5l12,18l38.6,26.7l20.9-17.8L1651.6,118.6z M1656.4,182.4L1705,216l0.1-0.8l-28-50.5L1656.4,182.4z M1598.8,142.7
		l18.2,12.6l-11.7-17.4L1598.8,142.7z M1276.5,329.8l-17.2,44.8l53.8,3.2L1276.5,329.8z M1259.7,375l25.5,13l29.6-7.8l-1.6-2
		L1259.7,375z M0,417l14.9-0.1L0,383.8V417z"/>
	<path class="st0" d="M898.7,390.2l-67.4-19.3l-2.4,40.7l38.6,3.3L898.7,390.2z M834.5,316.8l-1.2,20.7l58.2-31.4l0,0l0.1,0l0.1-0.1
		l0,0l25.8-6.4l7.1-57.4l7.4-60.4l-82.6,114.4L834.5,316.8z M891.6,306.3l-58.3,31.4l-1.9,32.9L899,390l8.2-6.5l4-32.6l-7.6-17.3
		L891.6,306.3z M911.2,350.4l6.2-50.6l-25.6,6.4L911.2,350.4z M906.1,392l1-8.1l-7.8,6.2L906.1,392z M867.6,415l13.8,25.4l24.6-48.2
		l-7-2L867.6,415z M820.1,560.4l4.8-9.4l-3.9-5.3L820.1,560.4z M828.9,411.8L821,545.3l4,5.4l36.6-71.6l19.6-38.4l-13.9-25.6
		L828.9,411.8z M348.5,662.5l-3.7-0.3l0,0l0,0l-18.4,41.1l-2.4,5.3h26.8l-1.8-46.1L348.5,662.5z M353.2,496.9L353.2,496.9l3.2,9.9
		l0,0l0.5-10.1l-0.6,0L353.2,496.9z M155.1,674.4l7.6-24.6l-1.3-3.6l-1.4-4.1l-40.2,0.2l-7.1,28.5l-9.5,37.9h41.3l5.6-18
		L155.1,674.4z M357,498.5l-0.4,8.9v0l1.5,4.5v0L357,498.5L357,498.5z M352.9,496.9l-32.4,1.9l-52.3,3.1l-13.7,76.2l-11.4,63.3
		l0.2,0.2l-0.2,0l0,0.1l-0.1-0.1h0l-22,0.1l-60.6,0.4l2.7,7.6l47.3,3.2l57,3.9l23,1.6l54.4,3.7l3.4-7.5l0.9-2.1l0.7-1.6l0,0l0-0.2
		l0.1-2.1l0.2-4.5l1.7-35.3l4.8-101.3v0l0,0L352.9,496.9L352.9,496.9z M358.1,513l-1-3.1l-0.6-1.8v0l-3.9,83.8l-2.7,58.2v0l6.6-14.8
		l1.5-3.4l8-17.8l-1.7-21.5L358.1,513L358.1,513L358.1,513z M366,614.7l-10.5,23.5l-5.7,12.7l-0.5,11.6l1.8,46.2h22.1L366,614.7
		L366,614.7z M344.9,662l4.2,0.3l0,0l0.5-10.3l0-0.5v0L344.9,662L344.9,662z M328.8,697.4l5-11.2l10.7-23.9l-66.5-4.5l-34-2.3
		l-17.6-1.2l-22.7-1.5l-40.7-2.8l-9.9,31.9l-8.3,26.8h179l2.4-5.3L328.8,697.4z M242.7,641.4l-117.4-99.6l0,0l34.9,100.1
		L242.7,641.4z M133.7,585.6L133.7,585.6l-50.3-11.3L59,642.4l29.9-0.2l30-38L133.7,585.6z M83.5,574.1l50.6,11.3l0.1,0l-0.1,0.1v0
		l-14.1,56.5l40.1-0.2l-16.7-47.9l-4.4-12.6l-13.9-39.9l-1.9-1.6l-16.4-13.9L92.4,552l-3,5.6l0,0L83.5,574.1L83.5,574.1z
		 M83.2,574.1l5.4-15l-7.8,14.5l0.8,0.2L83.2,574.1z M58.8,642.4l24.4-68l-2.5-0.6l-5.9,10.9l-26.9,49.7l1.4,1L58.8,642.4z
		 M79,642.6l-20.1,0.1l0,0.1l-0.1-0.1h-0.1l0-0.1l-2.6-1.9l-8.4-6.1l-34.1,63.1l6.9,0.9l21.7,2.8l0.5-0.6l46-58.3h0L79,642.6z
		 M106.7,525.6l18.1,15.3l0,0l-10.3-29.6L106.7,525.6z M173.3,582.1l6.5,5.5l25.3,21.5l25.1,21.3l12.8,10.9l3.1-17.4l9.9-54.8
		l4.9-27.4L268,502l-77.5,4.6l-75.9,4.5l3.4,9.7l7.1,20.4l0,0L173.3,582.1z M2043.5,356.1l4.4,42.5l7.9,0.2l8.7-29.3L2043.5,356.1z
		 M2082.2,309.9l15.2-50.8l-64.6-5.9l9.8,94.9l0.8,7.7l21.1,13.5L2082.2,309.9z M2218.9,275.9l-2.7-6l-111.8-10.2l-6.7-0.6
		l-32.9,110.4l48,30.8l0.1,0l0,0.1l0.3,0.2l-0.4,0l-5.7,17.8l108.4-0.9l38.3-64.3L2218.9,275.9z M2064.7,369.7l-8.7,29.1l56.3,1.5
		L2064.7,369.7z M1315.1,378.2l-1.5-0.1l1.3,1.8L1315.1,378.2z M1327.7,217.9l-10,4l-16.6,43.5l-2.7,7.1l23.1,25L1327.7,217.9z
		 M1400.5,383.3l-85.1-5l-0.2,2l0.1,0.1l-0.1,0l0,0.2l-0.1-0.2l-29.5,7.8l59.8,30.6l71.1-18.1L1400.5,383.3z M1416.8,400.6l0.1,0
		l0,0.1l0.1,0.1l-0.1,0l-9,49.9l20,10.2l21.4-74.7l-48.4-2.9L1416.8,400.6z M1400.2,383l-59-63.9l-19.5-21.1l-6.3,80L1400.2,383z
		 M1315.1,378l6.3-80.2l-23.1-25l-21.7,56.9l36.9,48.3L1315.1,378z M1322.5,209.6l-4.6,12l9.8-4L1322.5,209.6z M1416.6,400.9
		l-70.8,18l61.9,31.7l8.5-47.4L1416.6,400.9z M1322.6,209.3l5.3,8.2l0.1,0l0,0.2l0.1,0.1l-0.1,0l-2.1,27.3l-4.1,52.6l78.9,85.4
		l48.7,2.9l25.4-88.6l10.6-37l-134.1-125.6L1322.6,209.3z M1618,34.1l-30.2-7.7l-16.1-4.1l-63.2,58l33.9,23.4l13.2-2.1L1618,34.1z
		 M1645.8,107.6l31.4,56.7l41.9-35.6l7.6-47.2l-55.2,17.8L1645.8,107.6z M1705.2,214.8l13.8-85.7l-41.7,35.5L1705.2,214.8z
		 M1493,2.3l15.4,77.8l63-57.8L1493,2.3z M1542.7,104l6.6,4.5l6-6.5L1542.7,104z M1612.2,0l6.1,34l0.1,0l-0.1,0.1l0,0.1l-0.1,0
		l-5,5.4l-57.2,62l22.7-3.6l0-0.2l0.1,0.2l0.1,0l0,0.1l26.4,39.4l16-11.9l24.1-18l0,0l0.1,0l0.1-0.1l0,0l81.1-26.2l4.8-29.8
		L1644.2,0H1612.2z M1572.2,124.3l26.4,18.2l6.6-4.9l-26.3-39.2L1572.2,124.3z M1555.7,101.9l-6.2,6.7l22.5,15.5l6.7-25.9
		L1555.7,101.9z M142.8,5.6l0.6-2l0.7-2.1l0.5-1.5h-41.3l-0.1,0.3l-0.1,0.2l28.2,3.6L142.8,5.6z M143.1,5.7l168.5,21.6L323.8,0h-179
		l-1.4,4.6L143.1,5.7z M351.2,0l0.5,13.5l0.8,19l8.4,1.1l15.2,1.9L373.3,0H351.2z M311.9,27.3l40.3,5.2h0l-0.9-22.8L350.9,0h-26.8
		l-2.8,6.2L311.9,27.3z M1609.9,696l2.3,12.7h32l-29.3-17.3L1609.9,696z M1608.4,687.6l1.5,8.1l4.8-4.4L1608.4,687.6z"/>
	<path class="st0" d="M1148.7,558.8l62,13.9l25-69.8l-53.4-45.3l-85.4,22.1l-23.7,56.7l11,8l6.6,1.5L1148.7,558.8z M1236,503
		l-25,69.7l56.9,12.7l0.1,0l-0.1,0.1v0l-8,32.1l59.9-43.7L1236,503z M1259.7,618.1L1259.7,618.1l-0.4,1.6l-0.8,3.2l0,0l90.7-0.5
		l27.3-0.2l-56.6-48L1259.7,618.1z M1210.7,572.9l-14.5-3.2l-111.4-25l21.2,15.5l86.5,63.1L1210.7,572.9z M1210.9,573l-18,50.4
		l45.1-0.3l29.6-37.5l-24.4-5.5L1210.9,573z M116.5,221.2l7.5,8.8l0.1,0l0,0.1l0.2,0.2l-0.2,0l-10.4,17.9l-3.6,33.4l13.5-6.9
		l17.3-8.8l0.1-0.1l0.1,0.1v0l0.2-0.1L141,266l26.6,28.8l12.2,13.2l16.6,18l1.3-1.3l2.8-108.9l-81.6-16.5L116.5,221.2z M163,130.5
		l-44,68.5l81.5,16.5l2-75.6l-21-5L163,130.5z M176.6,133.5l25.9,6.2l1.9-73.5l-41.2,64.1L176.6,133.5z M115.7,229.1l-2,18.4
		l10.1-17.3L115.7,229.1z M116.5,221.6l-0.8,7.3l7.9,1.1L116.5,221.6z M108.1,340.9l-6.2,14L94.5,424l101.7-97.9l-55.3-59.9
		L108.1,340.9z M1901,643.8l101-20.9l-92-49.7L1901,643.8z M1941.2,503.1l-41.3,3.2L1840,511l-4.7,39.7l20.3,9l38.8,17.3l-0.1,0.1
		l-3.1,9.5l18.6-13.8l0-0.1l0.1,0h0l0.2-0.1l0,0.2l92.3,49.9l3.2-0.7l33.3-13.9L1941.2,503.1z M2006.8,621.9l37.5-7.8l-5.3-5.7
		L2006.8,621.9z M1891.1,587l-20.4,63l30-6.2l9.1-70.6L1891.1,587z M1874.7,599.2l-51.9,58.4l-0.3,2.4l19.8-4.1l28.1-5.8l20.3-62.8
		L1874.7,599.2z M2044.6,613.9l2.9-9l-8.1,3.4L2044.6,613.9z M1962.6,396.6l-108.8-2.8l-13.7,116.9l101.1-7.9L1962.6,396.6z
		 M2049.7,419.1L2049.7,419.1l0-0.1l-2.1-20.1l-84.7-2.2l-17.4,85.9l-4.1,20.3l12.9,13.8l84.9,91.3l8.4-3.5l39.9-125.4l19.3-60.6
		l-57,0.5H2049.7z M1893.9,577.6l-18.4,20.7l15.4-11.4L1893.9,577.6z M1825.4,635.7l-2.5,21.5l50.9-57.3L1825.4,635.7z M1894,577.1
		l-58.6-26.2l-9.9,84.5l49.1-36.4L1894,577.1z M491.3,565.1l-25.4-8.2l4.8,40.5l38,33.8l22.2,19.7l31.5-22.7l18.9-34L491.3,565.1z
		 M580.7,595.7l-13.8,24.9l-4,7.2h0l32-23.1l-13.4-10.5L580.7,595.7z M596.5,603.7l1.1-0.8l-1.1-1.2L596.5,603.7z M591,473.5
		l-7.6,4.7l-0.4,0.2l-4.7,2.9l-5.7,3.5l81.9,77l15.6-52.1l1.6-5.4h0L591,473.5z M597.7,602.7l2.9-2.1l-4,0.7L597.7,602.7z
		 M591.2,473.4l80.5,30.8h0l4.3-14.3l8.6-28.6l5.1-17l11.4-38.1l-67.8,41.4L591.2,473.4z M572.2,485l-47.2,28.8l-59.9,36.6l0.7,6.2
		l36.4,11.8l79.2,25.6v0l0,0l0.1,0.1l0.1,0l0,0l0,0h0l5.4,4.2l8.1,6.3l1.1-0.8l0-2.5l-0.1-0.1l0.1,0l0-0.2l0.2,0.2l4.7-0.8
		l33.6-24.2l19.6-14.1l0,0L572.2,485L572.2,485z M470.7,597.7L470.7,597.7l10.4,89l49.5-35.7l-38.8-34.5L470.7,597.7z M960.3,0
		l-46.6,20.4l7.3,11.3l17.9,27.5l0,0L969.1,0H960.3z M720,247.4l14.5-8.6l120.1-71.5l-108.7-19.9L720,247.4z M822.2,60.6l-60.7,26.6
		L746,147.1l108.9,20l41.8-24.9L838,77.8L822.2,60.6z M913.5,20.5l-91,39.9l74.4,81.5l41.9-82.5L913.5,20.5L913.5,20.5z
		 M1394.3,520.1l0.5,1.5l0.3-1.5L1394.3,520.1z M1500.5,587.2l-18.3,15.5l-7.2,6.1l53.7,31.6l79.3,46.7l-28.3-157.2L1500.5,587.2z
		 M1479.6,604.6l18.3-15.5l-25.2,18.3l2.2,1.3L1479.6,604.6z M1437.5,640.7l22,61.5l25.3,6.4h7.5l-19.4-98L1437.5,640.7z
		 M1579.7,529.6l-1.5-8.3l-75.2,63.9L1579.7,529.6z M1472.3,607.5l-0.1-0.1l0.1-0.1l0-0.2l0.2,0.1l27.9-20.2l77.6-65.9l-182.6-1.1
		l-0.4,2l42.4,118.4l35.5-30.1L1472.3,607.5z M1211.2,38.9l-31,19.4L1119.9,96l2.3,26.5l1.4,16.9l0.9,10.3l1.8,21.4h0L1147,160
		l31.5-59.5L1211.2,38.9z M1211.4,38.4l0.1-0.2l0,0.1l0.3-0.2l-0.2,0.3l9.3,14.3l5.1-9.5l-66.4-29.2l0,0l-16.6,21l-25.5,32.4l0,0
		l2.4,28.3L1211.4,38.4z M1226.1,43.1L1236.8,0h-66.1l-0.4,0.5l-1.1,1.4l-1.5,1.9l-8,10.2l0,0l19.3,8.5L1226.1,43.1z M1220.8,53
		l-9.3-14.3l-48.7,92l-15.5,29.3l9.3,12.2L1220.8,53z M1244.2,679.2l6.9-27.5l-27.4-7.1L1244.2,679.2z M1223.1,644.5l0.1-0.1
		l-0.1-0.2l0.2,0.1l26.7-19.5l2.2-1.6l-14.2,0.1l-67.4,85.3h66.1l2-8.1l5.2-21l-20.8-35L1223.1,644.5z M1252.7,623.3l-29,21.2
		l27.5,7.1l7.1-28.3l-0.8,0L1252.7,623.3z M34.8,17.8l57.4,25.2l10.6-42.3l-2.9-0.4l-1.5-0.2L96.9,0H36.8l-1.6,2L29,10l2.6,3.5
		L34.8,17.8z M32.8,15.5l-4-5.3l-3,3.7l8.5,3.7L32.8,15.5z M0,213.6v0.6l0.3-0.6h0L0,213.6z M18.1,106.4l-16,37.7L0,149v64.4
		l0.5,0.1h0l42.2-78.3L18.1,106.4z M0,102.5v45.9l17.9-42.1L0,102.5z M18,105.9l0.1,0.1l0.1,0l0,0.1l24.6,28.8l0,0l33-61.3v0
		l-12-16.3L34.7,18l-9-3.9L0,46.7v55.5L18,105.9L18,105.9z M75.9,73.4l6.5-12l9.7-18L44.9,22.6l-9.8-4.3L75.9,73.4z M36.8,708.7
		h60.1l-54.5-7L36.8,708.7z M2264.4,220.5l3.4-6.2v-0.7l-4-0.5L2264.4,220.5z M2259.8,167l7.9-18.7v-45.9l-13.7-2.9L2259.8,167z
		 M2263.7,212.8l4,0.5V149l-7.9,18.5L2263.7,212.8z M2251.3,67.4l2.7,31.9l13.7,2.9V46.7L2251.3,67.4z M969.1,708.7l2.5-4.9
		l-11.2,4.9H969.1z M1492.3,0h-7.5l7.9,2L1492.3,0z"/>
	<path class="st0" d="M2047.9,398.8l2,19.5l5.8-19.3L2047.9,398.8z M2055.9,399.1l-5.9,19.8l56.9-0.5l5.7-17.8L2055.9,399.1z
		 M1596.1,708.7h15.8l-2.2-12.5L1596.1,708.7z M1608.1,687.4l-7.1-4.2L1474.9,609l-1.7,1.5l19.4,98.2h103.1l13.9-12.8L1608.1,687.4z
		 M1472.6,607.7l0.5,2.5l1.5-1.3L1472.6,607.7z M102.9,0.5L103,0h-4.1l2.7,0.3L102.9,0.5z M108.7,642.1l9.5-0.1l1.4,0h0l12.4-49.6
		l0.7-2.6l0.4-1.7l0.5-2l-44.3,56.2L108.7,642.1z M133.6,586.1L133.6,586.1L133.6,586.1L133.6,586.1z M89.1,642.5l-46.5,58.9v0
		l56.3,7.2h4.1l2.9-11.4l9.4-37.6l2.8-11.1l1.6-6.3L93,642.5L89.1,642.5z M1611.9,0h-15.8l-2.8,2.5l-21.4,19.6l46.1,11.7l-0.5-3
		L1611.9,0z M1519.6,8.8l52.1,13.3L1595.7,0h-103.1l0.4,2.1L1519.6,8.8z"/>
	<path class="st0" d="M365.8,117.3l-2.3,18.2l-2.1,16.3v0l7.1,9.8l2.6,3.6l5.3,7.4l41.6-38.6L365.8,117.3z M439.2,235.6l-21-101.5
		l-41.6,38.7v0l12.6,17.3l42.4,58.5l5-8.5L439.2,235.6z M574.4,220.5l38.4-7.6l-10.3-11.2L574.4,220.5z M355.7,113.8l9.9,3.2
		l6.7-52.3l-12.7-0.4l-5.9-0.2l0.6,15.7L355.7,113.8z M355.7,114l1.2,31.6l4.2,5.9l4.4-34.3L355.7,114z M431.8,248.7l9.7-1.9
		l-2.2-10.8L431.8,248.7z M355.4,113.9l-23.7-7.5l-4.1-1.3l4.2,5.9l24.8,34.3v0l-0.1-3.1L355.4,113.9z M365.8,117l52.4,16.7l0.1-0.1
		l0,0.1l0.1,0l-0.1,0.1l4,19.3l17,82.1l40.1-68.1L499,134l16.2-27.5l-35.1-38.2l-28.7-0.9l-25.5-0.8l-26.3-0.9l-27.1-0.9l0,0
		L365.8,117L365.8,117z M355.4,113.7l-2-49.7l-57-1.9h0l30.8,42.6h0L355.4,113.7L355.4,113.7z M555.7,150.6l-40.4-44L465.1,192
		l-25.7,43.6l2.3,11.1l132.1-26.1l28.6-19.2L555.7,150.6z M1705.2,216.2l0,0.2l-0.1,0v0l-48.9-33.8l-13.1,11.1l8.1,12l30.8,46l0.1,0
		l0,0.1l0.1,0.1l-0.1,0l-7.1,38.5l15.6,25.5l44.3-47.2l-29.3-52.9L1705.2,216.2z M1642.9,193.9l-17.7,15.1L1652,253l29.6-1.3
		l-20.9-31.2L1642.9,193.9z M1624.9,208.8l17.8-15.2l-25.4-37.9l-18.8-13l-38.7,28.9l-12,46.1L1624.9,208.8z M1547.6,218.2l-59,6.9
		L1513,259l24.3-1L1547.6,218.2z M1513.1,259.2l17.5,24.3l6.6-25.4L1513.1,259.2z M1651.9,253.3l-114.4,4.9l-6.6,25.6l82.4,114.4
		L1665,343l9.6-52.5L1651.9,253.3z M1665.4,342.7l5.3-5.6l19.6-20.9l-15.4-25.3L1665.4,342.7z M1655.9,182.4l-37-25.6l-1-0.7
		l25,37.3L1655.9,182.4z M1705.3,215.6l0,0.2L1705.3,215.6L1705.3,215.6z M1681.7,252l-29.5,1.3l22.5,36.9L1681.7,252z
		 M1547.9,218.1l-10.3,39.8l114.2-4.9l-26.9-44L1547.9,218.1z M1547.7,217.9l11.9-45.9l-70.8,52.9l42.8-5L1547.7,217.9z M86.8,293.6
		L86.8,293.6l-1.5,0.7l-10.7,5.4l-15.4,7.8L32.9,321L0,337.8v8.9L36.5,380L86.8,293.6z M87.2,293.4L56,347l-19.3,33.2l38.5,35.2
		l12.9-29.4l13.6-31.1l7.9-72.8L87.2,293.4L87.2,293.4z M36.6,380.4L15.3,417l0.1,0.1l-0.1,0v0l-0.1,0.1l-0.1-0.1l-15,0.1v71.7
		l48.5-12.6v0L72.3,422l2.8-6.4l-12.6-11.5L36.6,380.4z M36.4,380.2L0,347v36.2l15.1,33.5L36.4,380.2z M2254.1,353.1l13.6,30.1V347
		l-6.5-5.9L2254.1,353.1z M2156,517.8l111.7-29v-71.7l-52.1,0.5L2156,517.8z M2261.4,341l6.3,5.7v-8.9L2261.4,341z M1189.6,378.9
		l-46.2-42.2l-37.2,98.5l82.5-21.8l14.4-3.8l5.8-13.1L1189.6,378.9z M1081.8,398.1l4.3-7.2l-28.2-126L996.8,313l-8.4,6.6l88.4,86.8
		L1081.8,398.1z M1057.9,264.5l0.1-0.1l0,0.1h0l24.6,109.6l3.7,16.5l40.9-68.7l-0.1-0.1l0.1-0.1l0.1-0.1l0,0l26.5-13.5l8.3-22.1
		l0.7-1.9l-52.6-63.2l-23.5-28.2l-146.7,79.3l17.7,17.4L1057.9,264.5z M1203.5,409.6l15.3-4l-9.7-8.8L1203.5,409.6z M1259,374.9
		L1259,374.9L1259,374.9l17.3-45.3l-24-31.4l-43.1,98.2l9.8,9l65.8-17.4l-25.8-13.2L1259,374.9z M958,289.7l30.3,29.8l69.2-54.6
		L958,289.7z M1154.2,308.1l15.1-7.7l61-31l-7.1-9.3l-60.1,24.3L1154.2,308.1z M1223.1,259.9l-66.5-87.2l-2.2,4l-23.8,44.2l0,0.2
		l-0.1-0.1l-0.1,0.2l0-0.4l0,0l-40.2-30l-3.1,1.7l76.1,91.4L1223.1,259.9z M1130.3,220.7L1130.3,220.7l-3.8-44.8l-0.1-1.7l-0.2-1.9
		l-0.1-0.7l-35.8,19.3v0l38.8,28.9L1130.3,220.7z M1086.2,391.2l-9.2,15.5l16.3,16L1086.2,391.2z M1143.3,336.3l10.4-27.7
		l-26.2,13.3L1143.3,336.3z M1127.4,322.1l-41,68.8l7.2,32.1l12.4,12.2l37.2-98.7L1127.4,322.1z M1143.5,336.4l19.3,17.7l46.2,42.2
		l43.1-98.3l-21.3-27.9l-0.4-0.5l-76.4,38.8L1143.5,336.4z M959.7,585.6L901.3,610l85.3,55.4l25.4,16.5l-31.6-58.4L959.7,585.6z
		 M1024.5,494.9l-2.3,3.9l74.6-19.3l5.9-14.2l-55.9-7.9L1024.5,494.9z M960,585.5l52.2,96.5l55.9-133.9l0,0l-1-7.3L960,585.5z
		 M1021.6,499.2l0.1-0.2l-0.1-0.1l0.2-0.1l24.7-41.5l-94.3-13.3l-43,47.8l50.6,93.4l107.2-44.8l0-0.1l0.1,0l0.1,0l0,0.1l0.2,0.1
		l3.4,0.8l2.1-4.9l-51.1-37.3L1021.6,499.2z M909.1,492.1l-46.6,51.7l-23.3,25.9l61.8,40.2l58.6-24.5L909.1,492.1z M1067.4,540.8
		l0.7,5.2l0.2,1.6l2.5-6.1L1067.4,540.8L1067.4,540.8z M2076,64.6L2034,0h-36.5l-39.5,13.8l-7.6,112.6l-5,73.6l98.3,4.6L2076,64.6z
		 M2096.4,96.1l-0.1-0.1l-0.1-0.1l0,0l-16.9-26.1l29.2,95l-3.7-62.5L2096.4,96.1L2096.4,96.1z M2079.1,68.9l17.4,26.8l7.5-6.8
		l-1.3-21.5l-25.8-5.5L2079.1,68.9z M2076.6,61.8l-0.1-0.2l0.1,0l0.1-0.3l0.1,0.4l25.8,5.5l-4-67.1h-64.4l41.7,64.2L2076.6,61.8z
		 M2104.8,101.9l-0.8-12.7l-7.4,6.6L2104.8,101.9z M2094.6,120.2L2078.9,69l-2.7-4.1L2044,204.5l67.1,3.2l-2.5-41.9L2094.6,120.2z
		 M2076.2,64.5l2.3,3.6l-1.8-5.9L2076.2,64.5z M2076.3,681.2l21.4,11.6l-1.1-18.7L2076.3,681.2z M2076,681.3l-14,4.9l-34.4,12
		l6.8,10.5h64.4l-0.9-15.6L2076,681.3z M1997.6,708.7h36.5l-6.7-10.4L1997.6,708.7z"/>
	<path class="st0" d="M2174.6,25.7L2203.2,0h-0.4l-28.5,25.6L2127,0h-0.5l47.6,25.8l-50.8,45.7l-20.4-4.3l-4-67.2h-0.2l4,67.1
		l-25.8-5.5l-0.1-0.4l-0.1,0.3l-0.1,0l0.1,0.2l-0.6,2.5L2034.3,0h-0.3l42,64.6l-32.2,140l-98.3-4.6l5-73.6l7.6-112.6L1997.5,0h-0.8
		l-10.4,3.6l-28.4,9.9L1914.1,0h-0.8l20.7,6.4l23.9,7.4l-3.5,52.3l-9.1,133.8l-77.6,3.1l-0.8-1.8l8.4-65.2L1892.6,0h-0.3
		l-25.7,200.7l-51.7-120.3l-1.3-3l22.3-28.5l0,0l0-0.1l0.1-0.1l0,0l4.4-13.5L1851.8,0h-0.3l-15.7,48.6l-66.4-36.9l0.8-3.5v0l0,0
		l0.7-0.8l6.6-7.4h-0.3l-6.8,7.7l1.8-7.7h-0.3l-1.9,8.1l-2.3,2.6L1748.3,0h-0.5l19.7,10.9l-35.8,40.3l-87-51.2h-0.5l87.3,51.4
		l-4.8,29.8l-81.1,26.2l0,0l-0.1,0.1l-0.1,0l0,0l-24.1,18l-16,11.9L1579,98l0-0.1l-0.1,0l-0.1-0.2l0,0.2l-22.7,3.6l57.2-62l5-5.4
		l0.1,0l0-0.1l0.1-0.1l-0.1,0l-6.1-34h-0.3l5.6,30.9l0.5,3l-46.1-11.7l21.4-19.6l2.8-2.5h-0.4l-24.1,22.1l-52.1-13.3L1493,2.1
		l-0.4-2.1h-0.3l0.4,2l-7.9-2h-1l8.9,2.3l15.4,78.1l-0.1,0.1l0.1,0.1v0l0,0.2l0.1-0.1l33.7,23.3l-95.9,15.4L1423.3,67l-12.6-28.7
		l42-38.3h-0.4l-10.6,9.7l-31.1,28.4L1393.9,0h-0.3l16.8,38.3l-81.6,74.5L1261.7,0h-0.3l67.2,112.9l-0.1,0.1l0.1,0.1l0.1,0.1l0,0
		L1366,132l-15,2.4l-0.1-0.1l0,0.1l-0.2,0l0.1,0.1l-28.5,74.5l-26.9-41.4L1221,53l5.2-9.6l0,0l0-0.1l0.1-0.1l0,0L1237.1,0h-0.3
		l-10.8,43.1L1179,22.4l-19.3-8.5l0,0l8-10.2l1.5-1.9l1.1-1.4l0.4-0.5h-0.3l-10.9,13.8L1128.1,0h-0.6l31.8,14l-42,53.2l-76.6-41.5
		L1069.3,0h-0.4l-28.5,25.6L993.2,0h-0.5l34,18.4l13.6,7.4l-77.7,69.9l-23.5-36.2l11.6-22.9L969.3,0h-0.3l-30.1,59.2l0,0l-17.9-27.5
		l-7.3-11.3L960.3,0h-0.6l-46.1,20.2L900.5,0h-0.3l13.2,20.3l-91.1,39.9l-44.5-48.8L780.7,0h-0.3l-2.9,11.4l-33.4,12l5-7.3l-0.2,0
		L728.4,0H728l20.5,16l-54.8-8.8L687.6,0h-0.3l6,7.1L649.3,0h-1.6l34.4,5.6l11.5,1.9l22.2,26.2L595.4,76.7L595.9,0h-0.2l-0.5,76.7
		l-0.1,0l0.1,0.1l0,0.1l0.1,0l57.3,78.6l-15.7,22.7l-34.3,23l-85.2-92.8l-1.9-2.1L578.1,0h-0.3l-62.5,106.2l-35-38.2l21.2-38.3
		L518.1,0h-0.3l-37.7,68l-33.7-1.1l-73.8-2.4l3.7-28.6l0,0l0-0.1v0l0,0l0-0.1l0,0L373.5,0h-0.3l2.8,35.5l-11.4-1.5l-2.8-0.4
		l-1.1-0.1h0l-4.3-0.6l-4.1-0.5l-0.8-19L351.2,0h-0.3l0.4,9.7l0.9,22.8h0l-4.7-0.6l-35.7-4.6l6.3-14.1L324.1,0h-0.3l-12.2,27.3
		L143.1,5.7l0.3-1.1l1.4-4.6h-0.3l-0.5,1.5l-0.7,2.1l-0.6,2l-11.5-1.5l-28.2-3.6l0.1-0.2l0.1-0.3H103l-0.1,0.5l-1.3-0.2L98.9,0h-2
		l1.5,0.2l1.5,0.2l2.9,0.4L92.2,43.1L34.8,17.8l-4.1-5.6L29,10l6.3-8l1.6-2h-0.3l-7.7,9.7L21.6,0h-0.3l7.4,9.9l-3,3.8L0,2.5v0.3
		L25.5,14L0,46.3v0.4l25.7-32.6l9,3.9l29.1,39.3l12,16.3v0l-33,61.3l0,0l-24.6-28.8l0-0.1l-0.1,0h0l-0.1-0.1l0,0.1l-18-3.8v0.3
		l17.9,3.8L0,148.3v0.6l2.1-4.9l16-37.7l24.6,28.8L0.5,213.4h0L0,213.4v0.3l0.3,0h0L0,214.3v0.5l0.6-1.1l114.8,15.4l-2.1,19
		l-26.3,45.2L0,337.5v0.3L32.9,321l26.4-13.4l15.4-7.8l10.7-5.4l1.5-0.7v0L36.5,380L0,346.7v0.3l36.4,33.2l-21.2,36.4L0,383.2v0.6
		l14.9,33L0,417v0.2l15-0.1l0.1,0.1l0.1-0.1v0l0.1,0l-0.1-0.1l21.3-36.5l25.9,23.7l12.6,11.5l-2.8,6.4l-23.8,54.3v0L0,488.9v0.3
		l48.5-12.6l16,13.6l37.4,31.7l-12.7,35.6l-8.6,16L0,555.4v0.3l80.4,18l-32.7,60.5L0,599.5v0.3l47.5,34.7l-34.2,63.2l-0.2,0l0.1,0.2
		l0,0.1l0.1,0l7.9,10.7h0.3L13.7,698l28.4,3.6l-5.6,7h0.3l5.5-7l54.5,7h2l-56.3-7.2v0l46.5-58.9l3.9,0l26.5-0.2l-4.3,17.4l-9.4,37.6
		l-2.9,11.4h0.3l9.5-37.9l7.1-28.5l40.2-0.2l1.4,4l0,0.1l1.3,3.6l-7.6,24.6l-5,16.2l-5.6,18h0.3l8.3-26.8l9.9-31.9l40.7,2.8
		l22.7,1.5l17.6,1.2l34,2.3l66.5,4.5l-4.4,9.9l-9,20.1l-5,11.1l-2.4,5.3h0.3l2.4-5.3l18.4-41.1l0,0l0,0l4.3,0.3l1.8,46.1h0.2
		l-1.8-46.2l0.1-1.1l0.4-9.4l0.1-1.1v0l5.7-12.7l10.5-23.5v0l7.3,93.9h0.3l-1.2-15.4l-6.1-79l22.6-50.6L481,687l0,0.2l0.1-0.1
		l0.2,0.3l0-0.4l49.7-35.8l12.6,11.2l-25.7,46.3h0.3l25.6-46.1l37.2,33l3.1,2.7l-6.1,10.4h0.3l6-10.3l11.5,1.9l0,8.4h0.2l0-8.4
		l51.8,8.4h1.6l-53.4-8.6l0.4-70.7l0.1-23.4l10.9,8.5l80,94.2h0.3l-79.3-93.5L728,708.7h0.4l-120.9-94.4l-9.6-11.3l3.3-2.4l216.7-39
		l-7.4,29.2l-30,117.9h0.3l37.4-147l17.7,16.4l44,40.6l-30,12.5l-0.1,0l0.2,0.1l50.2,77.3h0.3l-50-77l81.2,44l23.8,12.9l16.2,15
		l-11.9,5.2h0.6l11.2-4.9l-2.5,4.9h0.3l2.6-5.1l0.1-0.1l-0.1-0.1l0.1-0.2l-0.2,0.1L956.3,689l18.2,9.8l18.2,9.8h0.5l-37.6-20.4
		l-75.2-69.5l20.7-8.6l111.2,72.2l0.1,0.2l0.1-0.2l55.8-133.8l4.9,34.7l15.2,108l-19.3,17.4h0.4l19.1-17.2l39.1,17.2h0.6l-39.6-17.4
		l-20.1-143.1l2.7-6.5l13.1,2.9l108.3,79l0,0.1l0.1,0l0.1,0.1l0-0.1l45-0.3l-56.1,71l-11.3,14.3h0.3l67.4-85.3l14.2-0.1l-2.2,1.6
		l-26.7,19.5l-0.2-0.1l0.1,0.2l-0.1,0.1l0.2,0.1l20.8,35l-5.2,21l-2,8.1h0.3l7.2-28.8l17.1,28.8h0.3l-17.3-29.1l6.9-27.7l132.5,34.3
		l9.9,22.5h0.3l-9.9-22.5l53.3-45.2l22,61.4l-7,6.4h0.4l6.8-6.2l24.3,6.2h1l-25.3-6.4l-22-61.5l35.4-30.1l19.4,98h0.3l-19.4-98.2
		l1.7-1.5l126.1,74.2l7.1,4.2v0l0.8,4.2l0.8,4.2l-13.9,12.8h0.4l13.6-12.5l2.2,12.5h0.3l-2.3-12.7l5-4.6l29.3,17.3h0.5l-29.6-17.4
		l38.2-35l94.5,52.5h0.5l-55.1-30.6l-39.9-22.1l6.1-183.6l86.2,38.5l-0.3,7.3l-0.1,0l0.1,0.1l0,0.1l0.1,0l35.5,65.4l32.7,60.3
		l-31.9,23.6l-0.1,0l0,0.1l-0.2,0.1l0.1,0l-9.7,40.7h0.3l9.7-40.6l24.6,7.6l-29.3,33h0.3l29.2-32.9l50.4,15.6l-5.6,17.3h0.3
		l5.6-17.3l35.8,11.1l-0.8,6.2h0.3l0.8-6.1l19.8,6.1h0.8l-20.6-6.4l7.5-58.3l101.4-21l0.4,0.2l-19.2,8l0.2,0.1l43.3,66.7l-30.4,10.6
		h0.8l29.7-10.4l6.7,10.4h0.3l-6.8-10.5l34.4-12l14-4.9l21.8,11.8l0.9,15.6h0.2l-0.9-15.4l28.5,15.4h0.5l-29-15.7l-1.1-18.9l0.2-0.1
		l-0.2-0.1l0-0.1l-0.1,0l-93.4-50.5l2.3-0.9l38.9-8.1l0.1,0.1l0-0.1v0l0.1,0l-0.1-0.1l3-9.4l144.2-60.2l10.6,7.8l19.5,138.9
		l-19.3,17.4h0.4l19.1-17.2l19.8,8.7l19.3,8.5h0.6l-39.6-17.4l-19.5-138.7l64.9,47.3v-0.3l-64.9-47.3v0l-0.1-0.7l-1.5-10.7
		l66.5,14.9v-0.3l-66.5-14.9l0-0.1l-0.1,0l-0.1,0l0,0.1l-9,3.7l-35.9-26.2l111.7-28.9v-0.3l-111.7,29l59.6-100.2l52.1-0.5V417
		l-51.9,0.5l22.8-38.3l15.3-25.7l13.8,30.4v-0.6l-13.6-30.1l7.1-12l6.5,5.9v-0.3l-6.3-5.7l6.3-3.2v-0.3l-6.5,3.3l0,0l-0.1,0.1l0,0
		l0,0l-0.1,0.1l0.1,0.1l-7.1,11.9l-37.6-83l25.3-59.7l9.5,1.3l12.9,9.6l0,0.4l0.1-0.2l0.1,0.1l0-0.2l3.3-6.2v-0.5l-3.4,6.2l-0.6-7.4
		l4,0.5v-0.3l-4-0.5l-3.9-45.3l7.9-18.5v-0.6l-7.9,18.7l-5.7-67.4l13.7,2.9v-0.3l-13.7-2.9l-2.7-31.9l16.4-20.8v-0.4l-16.6,21
		L2174.6,25.7z M25.9,13.9l3-3.7l5.5,7.5L25.9,13.9z M2201,540.8l1.6,11.2l-10.3-7.5L2201,540.8z M2123.1,71.7l-18.9,17l-1.3-21.2
		L2123.1,71.7z M2096.4,95.9l0.1,0.1L2096.4,95.9l8.4,6.3l3.7,62.5l-29.2-95l16.9,26.1l0,0L2096.4,95.9z M2096.6,95.9l7.4-6.6
		l0.8,12.7L2096.6,95.9z M2102.7,67.4l1.3,21.5l-7.5,6.8l-17.4-26.8l-2.1-7L2102.7,67.4z M2076.8,62.2l0.9,2.9l0.9,2.9l-2.3-3.6
		L2076.8,62.2z M2076.2,64.9l2.7,4.1l15.7,51.2l14,45.6l2.5,41.9l-67.1-3.2L2076.2,64.9z M1821.7,658.5l-7.8-14.3l11.2-8.3
		l-2.4,20.3l-0.1,1.3l0,0L1821.7,658.5z M1822.5,657.9l-0.1,0.9l-0.1,0.9l-0.5-1L1822.5,657.9z M1825.4,635.7l48.4-35.8l-50.9,57.3
		L1825.4,635.7z M1822.8,657.6l51.9-58.4l16-11.9l-20.3,62.8l-28.1,5.8l-19.8,4.1L1822.8,657.6z M1875.5,598.3l18.4-20.7l-3,9.3
		L1875.5,598.3z M1874.5,599l-49.1,36.4l9.9-84.5l58.6,26.2L1874.5,599z M1835.1,550.5l-74.6-33.3l79.3-6.2L1835.1,550.5z M1760,517
		l-14.1-6.3l2.7-71.5l20.7,6.2l0.1,0.1l0.1-0.1l0.2,0.1l-0.1-0.2l57.5-79.1l26.5,27.6l-12.7,107.9l-1.1,9.1L1760,517z M1578.5,521.1
		l0.2-0.2l-0.2,0l0-0.1l-0.1,0.1l-138.6-0.8l-44.3-0.3l12.4-68.9l20,10.2l0,0l0.1,0l0.1,0.1l0,0l210.4,25.9l-58.5,42.3L1578.5,521.1
		z M1579.7,529.6l-76.7,55.6l75.2-63.9L1579.7,529.6z M1259.3,619.8l0.4-1.6l60.2-43.9l56.6,48l-27.3,0.2l-90.7,0.5L1259.3,619.8z
		 M1258.3,623l-5.2,0l6.4-4.7L1258.3,623z M1267.9,585.5l-24.9-5.6l-32-7.2l25-69.7l83.8,71.1l-59.9,43.7l8-32.1v0L1267.9,585.5
		L1267.9,585.5z M1022.2,498.8l2.3-3.9l22.3-37.5l55.9,7.9l-5.9,14.2L1022.2,498.8z M1096.7,479.7l-23.6,56.4l-50.9-37.1l66.9-17.3
		L1096.7,479.7z M356.6,507.4l0.4-8.9v0l1,13.4v0L356.6,507.4L356.6,507.4z M356.4,506.8L356.4,506.8l-3.2-9.9l0,0l3.1-0.2l0.6,0
		L356.4,506.8z M357.1,496.5l0-0.1l-4,0.2l-22-68.2l20.6-11.2l68.8,80.8l-28.9,16l-27.8,15.4l-5.3-16.5L357.1,496.5z M118,520.8
		l-3.4-9.7l75.9-4.5L268,502l-7.1,39.6l-4.9,27.4l-7.4,41l-2.5,13.9l-3.1,17.4l-11.3-9.6l-51.8-44l-6.5-5.5l-48.2-40.9l0,0
		L118,520.8z M124.7,540.9l-18.1-15.3l7.7-14.3l8.2,23.5L124.7,540.9L124.7,540.9z M162.2,508l-47.7,2.8l-0.1-0.2l-0.1,0.2h0l0,0
		l-0.1,0l0,0.1l-7.8,14.4l-4.3-3.6l22-61.5l118.6-30.2l37.8,1.4L268,501.7l0,0L162.2,508z M108.1,340.9l32.7-74.6l55.3,59.9
		L94.5,424l7.5-69.1L108.1,340.9z M102.1,354.1l7.9-72.2l0,0l30.7-15.6L102.1,354.1z M141,266l30.2,32.7l3.5,3.8L141,266z
		 M727.6,47.4l33.7,39.7L745.7,147l-48.6-8.9l0-0.1l-0.1,0.1l-0.1,0l0,0.1l-38.1,25.5l-5.9-8.1l41.4-60L727.6,47.4z M727.5,47
		l-11.3-13.3l27.3-9.8L727.5,47z M745.9,147.3l108.7,19.9l-120.1,71.5l-14.5,8.6L745.9,147.3z M696.9,138.5l3.5,82.3l-41.5-56.9
		L696.9,138.5z M697.1,138.4l48.6,8.9l-25.9,100.1l-19.1-26.2L697.1,138.4z M719.7,247.7l-0.1,0.2l0.2-0.1l0.1,0.1l0.1-0.2l135-80.4
		l77,14.1l-97.6,135.2l-131.1-33.9l-2.5-58.5l-0.1-2.5L719.7,247.7z M1598.6,142.8l18.8,13l25.4,37.9l-17.8,15.2l-77,9l12-46.1
		L1598.6,142.8z M1560,171.3l6.1-23.4l6.1-23.4l26.3,18.1L1560,171.3z M1804.3,56.5l9,20.9l-85.8,109.8l13.9-58.3l5.6-23.6l0,0h0
		L1804.3,56.5z M1747.2,104.8l7.7-32.4l49-15.8L1747.2,104.8z M1739.9,134.1l-12.8,53.6v0l-21.7,27.7l-0.1-0.3l13.9-86.3l27.4-23.3
		L1739.9,134.1z M1722.3,209l99.6,12.8l41.4,5.3l0,0l0.1,0l0.1,0l0,0l13.8-1.1l19,44.2l-118.1-1.2l-43.1-0.4l-13.7-24.6l-15.7-28.4
		l21.4-27.4l-4.9,20.7l0,0L1722.3,209z M1723.8,208.9l142.6-5.6l-3,23.6l-90.5-11.6L1723.8,208.9z M2032.6,253l0,0.1l0,0l10.6,102.4
		l-63.6-40.9l-0.1-0.1l0-0.1l-0.1,0l-0.1-0.1l0,0.1L1872.9,303l23.6-32.5l0.1,0l0-0.1l0.1-0.1l-0.2,0l-19-44.2l164.2-12.7l-9.1,39.5
		l0,0L2032.6,253z M1749.6,412.7l4.6-122.1l72.6,75.5l-57.5,79.1L1749.6,412.7z M1769.1,445.1l-20.5-6.2l1-25.8L1769.1,445.1z
		 M1754.4,290.4l118,12.8l-45.5,62.6L1754.4,290.4z M1754.1,290.1l-0.2-0.2l0,0.2l-0.2,0l0.2,0.2l-4.6,122l-58.7-96.1l44.4-47.2
		l161.2,1.6l-23.6,32.5L1754.1,290.1z M1705.2,214.8l-27.9-50.2l24.5-20.8l17.2-14.6L1705.2,214.8z M1705.4,215.6L1705.4,215.6
		L1705.4,215.6L1705.4,215.6z M1705.1,215.2l-0.1,0.8l-48.6-33.6l20.8-17.7L1705.1,215.2z M1705.1,216.4L1705.1,216.4L1705.1,216.4
		l0.1-0.1l0.3-0.4l29.3,52.9l-44.3,47.2l-15.6-25.5l7.1-38.5l0.1,0l-0.1-0.1l0-0.1l-0.1,0l-30.8-46l-8.1-12l13.1-11.1L1705.1,216.4z
		 M1537.5,258.2L1537.5,258.2l114.4-4.9l22.8,37.3l-4.8,26.2L1665,343v0l-51.8,55.1l-82.4-114.4L1537.5,258.2z M1530.7,283.5
		l-17.5-24.3l12-0.5l12-0.5L1530.7,283.5z M1652,253l-26.9-44.1l17.7-15.1l17.9,26.7l20.9,31.2L1652,253z M1681.7,252l-7,38.2
		l-22.5-36.9L1681.7,252z M1651.8,253l-114.2,4.9l10.3-39.8l77-9L1651.8,253z M1674.9,290.9l15.4,25.3l-19.6,20.9l-5.3,5.6
		L1674.9,290.9z M1642.9,193.5l-25-37.3l1,0.7l37,25.6L1642.9,193.5z M1547.7,217.9l-16.1,1.9l-42.8,5l70.8-52.9L1547.7,217.9z
		 M1547.6,218.2l-10.3,39.8l-24.3,1l-24.4-33.9L1547.6,218.2z M1530.6,283.8l-27.3,105.3l-53.8-3.2l35.9-125.6l27.4-1.2
		L1530.6,283.8z M1503.4,389.4l22.5,16.3l112.4,81.2l-191-23.5l-19.3-2.4l15.7-54.9l5.7-19.9L1503.4,389.4z M1427.8,460.9l-20-10.2
		l9-49.9l0.1,0l-0.1-0.1l0-0.1l-0.1,0l-15.9-17.3l48.4,2.9L1427.8,460.9z M1407.6,450.6l-61.9-31.7l70.8-18l-0.4,2.3L1407.6,450.6z
		 M1416.5,400.6l-71.1,18.1l-59.8-30.6l29.5-7.8l0.1,0.2l0-0.2l0.1,0l-0.1-0.1l0.2-2l85.1,5L1416.5,400.6z M996.8,313l61.1-48.2
		l28.2,126l-4.3,7.2l-5,8.4l-88.4-86.8L996.8,313z M988.3,319.5L958,289.7l82.9-20.7l16.6-4.1L988.3,319.5z M1086.2,391.2l7,31.4
		l-16.3-16L1086.2,391.2z M1076.9,406.9l16.5,16.2l9.4,41.9l-55.8-7.8L1076.9,406.9z M1086.4,390.9l41-68.8l15.8,14.5l-37.2,98.7
		l-12.4-12.2L1086.4,390.9z M1313.3,378.1l1.6,2l-29.6,7.8l-25.5-13L1313.3,378.1z M1259.3,374.7l17.2-44.8l36.7,48L1259.3,374.7z
		 M1313.7,378.2l1.5,0.1l-0.1,1.7L1313.7,378.2z M1313.5,377.9L1313.5,377.9l-37-48.3l21.7-56.9l23.1,25l-6.3,80.2L1313.5,377.9z
		 M1276.4,329.3l-23.9-31.4l22.3-50.8l23.4,25.3L1276.4,329.3z M1252.3,297.7l-21.6-28.3l43.7-22.2L1252.3,297.7z M1230.9,270.1
		l21.3,27.9l-43.1,98.3l-46.2-42.2l-19.3-17.7l7.7-20.3l2.9-7.7l0,0l76.4-38.8L1230.9,270.1z M1143.3,336.3l-15.7-14.4l26.2-13.3
		L1143.3,336.3z M1143.4,336.7l46.2,42.2l19.4,17.7l-5.8,13.1l-14.4,3.8l-82.5,21.8L1143.4,336.7z M1209.1,396.7l9.7,8.8l-15.3,4
		L1209.1,396.7z M1209.3,396.5l43.1-98.2l24,31.4l-17.3,45.2h0l0,0.1l0.1,0l25.8,13.2l-65.8,17.4L1209.3,396.5z M1285.2,388.3
		l59.8,30.6l-87,22.1l-38.7-35.3L1285.2,388.3z M1315.4,378l6.3-80l19.5,21.1l59,63.9L1315.4,378z M1321.5,297.4l-23.1-25l2.7-7.1
		l16.6-43.5l10-4L1321.5,297.4z M1298.2,272.2l-23.4-25.3l0.1-0.2l-0.2,0.1l-0.1-0.1l-0.1,0.1l-44.1,22.4l-7.1-9.3l65.1-26.3
		l28.9-11.7L1298.2,272.2z M1230.3,269.4l-61,31l-15.1,7.7l8.9-23.7l60.1-24.3L1230.3,269.4z M1163.1,284.1l-76.1-91.4l3.1-1.7
		l40.2,30l0,0l0,0.4l0.1-0.2l0.1,0.1l0-0.2l23.8-44.2l2.2-4l66.5,87.2L1163.1,284.1z M1086.8,192.5l-8.6-10.3l11.6,8.7L1086.8,192.5
		z M1126.4,175.9l3.8,44.8h0l-1.2-0.9l-38.8-28.9v0l35.8-19.3l0.1,0.7l0.1,1.8L1126.4,175.9z M1126.3,171.4l20.7-11.2l9.3,12.2
		l-18.1,33.6l-7.8,14.4L1126.3,171.4z M1156.5,172.2l-9.3-12.2l15.5-29.3l48.7-92l9.3,14.3l-61,113.2L1156.5,172.2z M1178.5,100.5
		L1147,160l-20.7,11.2h0l-1.8-21.4l-0.9-10.3l-1.5-17.6l-2.2-25.8l60.3-37.7l31-19.4L1178.5,100.5z M1121.2,114.5l4.8,56.8l-36,19.4
		l-12.6-9.4l-32.2-38.7l74.4-46.5L1121.2,114.5z M1076.7,180.7l-38.8-29l7.3-9L1076.7,180.7z M1070.2,176.2l7.1,5.3l9.2,11.1
		l-146.2,79l97.3-119.7L1070.2,176.2z M1086.7,192.8l23.5,28.2l52.6,63.2l-0.7,1.9l-8.3,22.1l0,0l-6.7,3.4l-19.8,10.1l0,0l-0.1,0.1
		l-0.1,0.1l0.1,0.1l-40.9,68.7l-3.7-16.5l-24.6-109.6h0l0-0.1l-0.1,0.1l-100.1,25l-17.7-17.4L1086.7,192.8z M988.1,319.6l-67.1,53
		l-9.6-21.7l5.9-47.9l0.4-3.2l40-10L988.1,319.6z M773.6,406.9l-59.3-5l78.1-42.1l38.6,11l-2.4,40.8L773.6,406.9z M828.6,411.8
		L820.7,545l-52.1-69.8l-54.5-73.1l64.2,5.5L828.6,411.8z M832.2,338l-39.8,21.5l-86.9-24.9l-2.2-51.7l113.8,29.5l17.1,4.4
		l-1.2,20.8L832.2,338z M833,337.9l-1.9,32.6l-38.3-11L833,337.9z M831.3,370.9l67.4,19.3l-31.3,24.7l-38.6-3.3L831.3,370.9z
		 M899,390.3l7,2l-24.6,48.2L867.6,415L899,390.3z M899.3,390.1l7.8-6.2l-1,8.1L899.3,390.1z M899,390l-67.6-19.4l1.9-32.9
		l58.3-31.4l12,27.3l7.6,17.3l-4,32.6L899,390z M891.8,306.3l25.6-6.4l-6.2,50.6L891.8,306.3z M911.3,351.4l9.4,21.4l-13.3,10.5
		L911.3,351.4z M917.5,299.6l-25.8,6.4l0,0l-0.1,0.1l-0.1,0l0,0l-58.2,31.4l1.2-20.7l14.9-20.6l82.6-114.4l-7.4,60.4L917.5,299.6z
		 M703.3,289l2,45.7l-41.2,44l-111.8-81.2l0,0l-6.6-41.3l-2.3-14.6L703,282.8L703.3,289z M664.1,379l37,26.9l-110.2,67.3l-11.1-4.2
		L664.1,379z M579.7,468.8l-27.4-171l111.6,81.1L579.7,468.8z M543,241.2l-0.2,0.1l0.2,0l8.9,55.8l-25.4-18.5l0-0.1l-0.1,0l-0.1-0.1
		l0,0.2l-71.6,30.8L441.8,247l131.5-26l-30.1,20.2l-0.1,0L543,241.2z M319.2,391.6l-1.1-13.8l33.3,39.2L331,428.1L319.2,391.6z
		 M330.8,428.3l-8.3,4.5l-3.1-40.1L330.8,428.3z M317.9,377.1l-5.2-6.1l4.6-2L317.9,377.1z M315.1,338.7l56.5,6.6l-54.1,23.3
		L315.1,338.7z M317.9,377.5l1,13.1l-6.2-19.1L317.9,377.5z M318.1,377.4L318.1,377.4l-0.7-8.6l54.6-23.5l91.8,10.8l-112.1,60.8
		L318.1,377.4z M372.5,345.2l82-35.3l9.5,46L372.5,345.2z M454.5,309.6L372,345.1l-56.9-6.7L315,337l-7.8-99.8l69.2-64.3l55,75.9
		l-0.1,0.2l0.2,0l0.1,0.1l0.1-0.1l6.4-1.3l3.6-0.7L454.5,309.6z M355.7,114l9.9,3.2l-4.4,34.3l-4.2-5.9l0,0L355.7,114z M356.7,145.2
		L356.7,145.2l-24.8-34.3l-4.2-5.9l4.1,1.3l23.7,7.5l0.8,19.6L356.7,145.2z M361.1,151.8l-3,23.5l-1.2-29.3L361.1,151.8z M358.1,177
		L358.1,177L358.1,177l0-0.2l3.2-24.7l14.9,20.6L307,237l-106.3-21.5l2-75.6L358.1,177z M431.8,248.7l7.5-12.7l2.2,10.8L431.8,248.7
		z M436.5,240.1l-5,8.5L393.4,196l-16.8-23.2v0l41.6-38.7l21,101.5L436.5,240.1z M376.4,172.5l-5.3-7.4l-2.6-3.6l-7.1-9.8v0
		l2.1-16.3l2.3-18.2l52.2,16.6L376.4,172.5z M365.6,116.9l-9.9-3.2l-1.3-34L353.7,64l5.9,0.2l12.7,0.4l-6.1,47.6L365.6,116.9z
		 M355.4,113.7L355.4,113.7l-28.1-8.9h0l-30.8-42.6h0l16.3,0.5l40.6,1.3L355.4,113.7z M356.7,145.7l1.2,31l-10.4-2.5l-144.8-34.5
		l1.9-73.8L327.2,105L356.7,145.7z M202.5,139.7l-25.9-6.2l-13.4-3.2l41.2-64.1L202.5,139.7z M181.4,134.9l17.3,4.1l3.8,0.9l-2,75.6
		L119,199.1l44-68.5L181.4,134.9z M200.7,215.8l106.2,21.5l4.1,52.1l3.8,49l-116.9-13.7l0.1-5.4L200.7,215.8z M314.9,338.6l2.3,30
		l-4.9,2.1l0,0l0,0l0.1,0.1l6.7,20.7l3.2,41.2l-41.3-1.6l2.1-11.4l0.1,0l-0.1-0.1v0h0l0-0.1l-0.1,0l-86.4-93.5l1.3-1.2L314.9,338.6z
		 M280.7,431.3l-37-1.4l39-9.9l-1.4,7.6L280.7,431.3z M253.4,388.1l29.2,31.6l-39.8,10.1l-148.2-5.6l101.8-97.9L253.4,388.1z
		 M94.2,424.3l-0.2,0.2l0.2,0l0,0.2l0.2-0.2l147.6,5.6l-117.8,30l-48.8-44.5l26.3-59.9L94.2,424.3z M280.9,431.5l41.4,1.6l0,0.1
		l0.1-0.1l0.1,0l0-0.1l8.4-4.6l22,68.1l-84.6,5.1L280.9,431.5z M351.9,417.1l112.3-60.9l0.1,0l0-0.1l0.3-0.1l-0.3,0l-9.5-46.2
		l71.6-30.8l-1.6,161.2L420.7,498L351.9,417.1z M524.9,440.5l47.2,44.3l-94,57.4l-13,7.9l-44.2-52L524.9,440.5z M525,440.3
		l1.5-150.3l0.1-10.9l14.7,10.7l10.7,7.8h0L579.5,469l-0.1,0.1l0.1,0l0,0.2l0.1-0.1l11,4.2l-18.4,11.2L525,440.3z M575.7,482.8
		l5.6-3.4l2-1.2l7.6-4.7l80.7,30.9h0l-3.5,11.8l-13.7,45.7h0l-70.2-66l-11.7-11L575.7,482.8z M591.2,473.4l42.1-25.7l67.8-41.4
		l-8.2,27.2l-5.9,19.7l-11,36.7l-4.3,14.3h0L591.2,473.4z M692.8,434.8l8.7-28.8l0.1-0.1l-0.1-0.1l0.1-0.2l-0.2,0.1l-37.1-27
		l41.1-43.9l86.7,24.8l-78.2,42.1l-0.2,0l0.1,0.1l-0.2,0.1l0.4,0l106.8,143.4l-0.9,15.4L672,504.2L692.8,434.8z M820.9,545.7
		l3.9,5.3l-4.8,9.4L820.9,545.7z M821,545.3l7.9-133.5l38.5,3.3l13.9,25.6l-19.6,38.4L825,550.7L821,545.3z M881.4,441l27.5,50.9
		L839,569.6L825.2,551L881.4,441z M881.5,440.7l24.7-48.4l0,0l0-0.1l0.1-0.1l0,0l1-8.4l13.5-10.7l31.2,70.9l-42.9,47.7L881.5,440.7z
		 M942.4,421.5l-21.4-48.6l67.2-53l88.4,86.9l-30,50.4l-94.4-13.3L942.4,421.5z M1103,465.3L1103,465.3l0.1-0.1v0l0-0.1l-0.1,0
		l-9.3-41.6l12.2,12l-0.1,0.2l0.2,0l0.1,0.1l0-0.1l96.9-25.6l-12.1,27.7l-8.6,19.7l-85.2,22.1L1103,465.3z M1203.3,410l0.1-0.1
		l15.6-4.1l38.8,35.4l-22,61.4l-9.4-8l-43.9-37.3L1203.3,410z M1320.1,574.1l74-53.9l0.7,1.9l-18,100.1L1320.1,574.1z M1394.3,520.1
		l0.8,0l-0.3,1.5L1394.3,520.1z M1394.2,519.8L1394.2,519.8l-0.1,0l-0.1,0l0,0.1l-74.1,54l-83.9-71.2l13-36.3l9-25.2l87.3-22.2
		l23.7,12.1l38.6,19.7l-12.4,69L1394.2,519.8z M1503.5,389.2l27.2-105.1l71.4,99.1l10.9,15.1l-0.1,0.1l0.2,0l0,0l0.1,0.1l0.1-0.1
		l39.4,11.9l-14,76.5L1503.5,389.2z M1613.5,398.3l13.9-14.8l37.6-40l-1,5.6l-11.2,61L1613.5,398.3z M1665.3,343.1L1665.3,343.1
		l25.2-26.8l58.9,96.4l-1,26.1l-95.3-28.7L1665.3,343.1z M1853.8,393.8l108.8,2.8l-21.5,106.2l-101.1,7.9L1853.8,393.8z
		 M1853.8,393.6l-26.6-27.6l45.6-62.7l106.4,11.6l-16.5,81.6L1853.8,393.6z M1979.4,314.9l63.8,41v0l0.2,2.1l4.2,40.6l-84.7-2.2
		L1979.4,314.9z M2043.5,356.1l21,13.5l-8.7,29.3l-7.9-0.2L2043.5,356.1z M2055.7,399l-5.8,19.3l-2-19.5L2055.7,399z M2055.9,399.1
		l56.6,1.5l-5.7,17.8l-56.9,0.5L2055.9,399.1z M2056,398.8l8.7-29.1l47.6,30.6L2056,398.8z M2064.5,369.3l-21.1-13.5l-0.8-7.7
		l-9.8-94.9l64.6,5.9l-15.2,50.8L2064.5,369.3z M2032.9,252.9l5.4-23.5l3.7-16l69.3-5.4l0.1,0l0,0h0l-2.5-41.1l8.1,26.4l-19.5,65.5
		L2032.9,252.9z M2043.9,204.8l19.3,0.9l46,2.2l-39.5,3.1l-27.7,2.1L2043.9,204.8z M1945.3,200.2l98.4,4.6l-1.9,8.3l-164.3,12.7
		l-9.7-22.6L1945.3,200.2z M1877.2,225.8l-13.6,1.1l3-23.6l0.9,0L1877.2,225.8z M1866.8,201.7l0.6,1.3l-0.7,0L1866.8,201.7z
		 M1866.6,201.2l-0.2,1.8l-143.9,5.7l5-20.9l0,0l86-110.1L1866.6,201.2z M1835.7,48.8l-22.2,28.4l-9.1-21.1l-0.1,0.1l-49.4,15.9
		l1.5-6.4l12.8-53.8L1835.7,48.8z M1769.8,8.6l-0.7,3l-1.3-0.7L1769.8,8.6z M1729.3,67.2l2.5-15.8l35.8-40.4l1.4,0.8l-14.4,60.4
		l-27.7,8.9L1729.3,67.2z M1727,81.4L1727,81.4l27.6-8.9l-7.8,32.6l0,0l-11.3,9.6l-16.1,13.7L1727,81.4z M1671.5,99.3l55.2-17.8
		l-0.6,3.5l-7.1,43.7l-41.9,35.6l-31.4-56.7L1671.5,99.3z M1634.3,116.1l11.2-8.4l6,10.9l25.4,45.9l-20.9,17.8l-38.6-26.7l-12-18
		L1634.3,116.1z M1617,155.2l-18.2-12.6l6.5-4.9L1617,155.2z M1578.9,98.4l26.3,39.2l-6.6,4.9l-26.4-18.2L1578.9,98.4z M1578.7,98.2
		l-6.7,25.9l-22.5-15.5l6.2-6.7L1578.7,98.2z M1549.3,108.5l-6.6-4.5l12.6-2L1549.3,108.5z M1493,2.3l78.4,20l-63,57.8L1493,2.3z
		 M1508.5,80.4l63.2-58l16.1,4.1l30.2,7.7l-62.4,67.5l-13.2,2.1L1508.5,80.4z M1480.7,113.9l61.6-9.9l6.7,4.7l-72.9,78.9l-29.9-68.2
		L1480.7,113.9z M1475.9,187.6l-109.1-55.4l79.2-12.7L1475.9,187.6z M1329,112.9l81.5-74.4l35.4,80.7l-79.5,12.7L1329,112.9z
		 M1366.4,132.2l89,45.2l20.7,10.5l0.1,0.1l0.1-0.1l0.2,0.1l-0.1-0.2l73-79l22.6,15.6l-12.2,47.2l-71.4,53.3l-0.2,0l0.1,0.1
		l-0.3,0.2l0.4,0l24.4,33.9l-27.2,1.2l-134.1-125.5L1366.4,132.2z M1351.1,134.7l134.1,125.6l-10.6,37l-25.4,88.6l-48.7-2.9h0
		l-78.9-85.4l4.1-52.6l2.1-27.3l0.1,0l-0.1-0.1l0-0.2l-0.1,0l-5.3-8.2L1351.1,134.7z M1322.5,209.6l5.2,8l-9.8,4L1322.5,209.6z
		 M1322.3,209.3l-4.7,12.4l-94.2,38.1l-66.7-87.3l64.2-119.2L1322.3,209.3z M1117.5,67.4l25.5-32.4l16.6-21l66.4,29.2l-5.1,9.5
		l-9.3-14.3l0.2-0.3l-0.3,0.2l0-0.1l-0.1,0.2l-91.5,57.3L1117.5,67.4L1117.5,67.4z M981.9,78.6l58.6-52.7l76.7,41.5l2.4,28.4
		l-74.5,46.6l0,0l-0.1,0.1l-0.1,0.1l0,0l-7.3,9l-1.3-1l-73.5-54.8L981.9,78.6z M939,59.7l23.5,36.1l0,0l0.1,0.1l0,0l0,0l0.1,0.1l0,0
		l74.9,55.8l-20.9,25.7L939.8,272l-0.1,0.1l0.1,0.1l17.7,17.4l-22.9,5.7l-16.9,4.2l14.5-118.2l0.1-0.1l-0.2,0l-76.9-14.1l0.4-0.3
		l41.2-24.5l0.1,0.1l0.1-0.1l0.1-0.1l0,0L939,59.7z M913.5,20.5l25.3,38.9L896.9,142l-74.4-81.5L913.5,20.5z M838,77.8l58.7,64.3
		L854.9,167l-108.9-20l15.5-59.9l60.7-26.6L838,77.8z M777.6,11.7l44.5,48.7l-19.3,8.5L761.4,87l-33.7-39.8l16.2-23.5L777.6,11.7z
		 M694,7.5l54.8,8.8l-5,7.2l-2.8,1L716,33.5L694,7.5z M642.8,141.8l-47.3-64.9L716,33.8l11.4,13.5l-74.7,108.2L642.8,141.8z
		 M652.7,155.8l5.8,8L637.4,178L652.7,155.8z M637.1,178.5l21.7-14.5l9.3,12.7l32.4,44.5v0l2.6,61.3l-159.6-41.3l30.4-20.4l39.2-7.7
		l0.1,0.1l0.1-0.1l0.2,0l-0.1-0.1L637.1,178.5z M574.2,220.7l0.2-0.1l0,0L574.2,220.7z M574.4,220.5L574.4,220.5L574.4,220.5
		L574.4,220.5z M636.5,178.9l-23.4,33.8l-10.3-11.3L636.5,178.9z M612.9,212.9l-38.4,7.6l28.1-18.8L612.9,212.9z M515.4,106.6
		l31.3,34.1l1.2,1.3l4.7,5.2l5.1,5.6l44.7,48.7l-28.6,19.2l0,0l-132.1,26.1l-2.3-11.1l25.7-43.6l5.7-9.7L515.4,106.6z M399.7,65.5
		l26.3,0.9l6.5,0.2l2.7,0.1l0.6,0l1.6,0.1l-1.2,0l37.6,1.2l-36.4-1.2l14.1,0.5l28.7,0.9l35.1,38.2L499,134l-19.6,33.2l-40.1,68.1
		l-17-82.1l-4-19.3l0.1-0.1l-0.1,0l0-0.1l-0.1,0.1L365.8,117l0,0l6.7-52.4l0,0L399.7,65.5z M376,35.8l-3.7,28.6l-18.7-0.6l-1.2-31
		L376,35.8z M311.8,27.6l40.4,5.2l1.2,31l-57-1.9L311.8,27.6z M143,5.9l109.1,14l59.5,7.6l-15.3,34.4l-0.2,0l0.1,0.1l0,0l0,0.1
		l0.1,0l30.8,42.5l-77.5-24.7l-44.8-14.3l0-0.4l-0.2,0.3l-0.1,0l0,0.1L178.5,106l-15.5,24.2l-54.4-12.9L143,5.9z M92.4,43.4
		L92.4,43.4l0.1-0.1l0.1-0.1l0,0L103,0.8l39.7,5.1l-13.1,42.4l-21.3,68.8L76.1,73.6L92.4,43.4z M35.1,18.2l9.8,4.3l47.2,20.7
		l-9.7,18l-6.5,12L35.1,18.2z M76,73.8l32.3,43.6l0,0.1l0.1,0l0.1,0.2l0-0.1l25,5.9l29.3,7l-44,68.5l0,0l0,0.1l-0.1,0.1l0.1,0
		l-2.4,21.7l-73.4-85.9L76,73.8z M116.5,221.6l7.2,8.4l-7.9-1.1L116.5,221.6z M0.7,213.5l42.1-78.1l73.4,86l-0.8,7.5L0.7,213.5z
		 M113.9,245.7l1.8-16.6l8.1,1.1l-10.1,17.3L113.9,245.7z M113.6,248.1L113.6,248.1l10.4-17.9l0.2,0l-0.2-0.2l0-0.1l-0.1,0l-7.5-8.8
		l2.4-22l81.6,16.5l-2.8,108.9l-1.3,1.3l-19.5-21.1L141,266l0.1-0.2l-0.2,0.1l0,0v0l-0.1-0.1l-0.1,0.1v0h0l-17.3,8.8l-13.5,6.9
		L113.6,248.1z M113.3,248.7l-3.2,29.4l-0.4,3.6v0L87.5,293L113.3,248.7z M36.7,380.2L56,347l31.2-53.6l0,0l22.4-11.4l-7.9,72.8v0
		l-13.6,31.1l-12.9,29.4L36.7,380.2z M48.7,476.4l25.1-57.2l1.5-3.4l48.7,44.5l-22,61.4L48.7,476.4z M102.1,522.1l4.3,3.6L89.9,556
		L102.1,522.1z M88.6,559.1l-5.4,15l-1.6-0.4l-0.8-0.2L88.6,559.1z M74.7,584.7l5.9-10.9l2.5,0.6l-24.4,68l-7.3-5.3l-3.6-2.7
		L74.7,584.7z M42.8,700.8l-0.5,0.6l-21.7-2.8l-6.9-0.9l34.1-63.1l8.1,5.9l2.2,1.6l0.6,0.4l0,0.1l0.1,0l0,0h0l0.1,0.1l0-0.1
		l20.1-0.1l9.7-0.1h0L42.8,700.8z M89,642.3L59,642.4l24.4-68.1l50.3,11.3l0,0L119,604.2L89,642.3z M119.6,642.1L119.6,642.1l-1.5,0
		l-9.4,0.1l-19.5,0.1l44.3-56.2l-0.9,3.7l-0.7,2.6L119.6,642.1z M119.9,642.1l14.1-56.5v0l0.1-0.1l-0.1,0l0,0l-50.6-11.3h0l5.9-16.5
		l0,0l3-5.6l14.1-26.2l16.4,13.9l1.9,1.6l13.9,39.9l4.4,12.6l16.7,47.9L119.9,642.1z M125.3,541.7l117.4,99.6l-82.5,0.5L125.3,541.7
		z M349.6,651.5l-0.5,10.8l0,0l-4.2-0.3h0L349.6,651.5L349.6,651.5z M349.7,649l-0.1,1.8v0l-1.3,2.9l-1.8,4l-1.9,4.2l-54.4-3.7
		l-16.2-1.1l-5.7-0.4l-8.4-0.6l-49.6-3.4l-47.3-3.2l-2.7-7.6l45.7-0.3l4.5,0l4.5,0l9.9-0.1l18.1-0.1h0l0.1,0.1l0-0.1l0,0l0.2,0
		l-0.2-0.2l11.4-63.3l13.7-76.2l52.3-3.1l32.4-1.9l0,0l3.4,10.6l0,0v0l-4.8,101.3l-1.7,35.3L349.7,649z M362.9,621.1l-5.1,11.4
		l-7.9,17.7l2.7-58.2l3.9-83.8v0l0.6,1.8l1,3.1l0,0v0l0.4,4.7l5.8,75l1.7,21.5L362.9,621.1z M366.2,613.7l-7.7-99.7l5,15.6l0,0
		l0.1,0.1l0,0.1l0,0l25.1,33.5L366.2,613.7z M388.8,563.1l-24.9-33.4l56.2-31.1l0.6-0.3l44.3,52.1l0.7,6.1l-64.4-20.8l-0.1-0.1
		L388.8,563.1z M465.7,556.8l0.6,5.1l4.1,35.3l-68.7-61l4.2,1.4L465.7,556.8z M389,563.4l12.2-27.4l69.3,61.5l10.4,89L389,563.4z
		 M481.2,686.7l-10.4-89l21.2,18.8l38.8,34.5L481.2,686.7z M508.7,631.1l-38-33.8v0l-4.8-40.5l25.4,8.2l90,29.1l-18.9,34l-31.5,22.7
		L508.7,631.1z M581.5,594.3l13.4,10.5l-32,23.1h0l4-7.2l13.8-24.9L581.5,594.3z M543.6,662.1l-12.5-11.1l24.5-17.7l6.5-4.7
		L543.6,662.1z M595.7,700l-11.5-1.9l-40.4-35.8l18.9-34l32.5-23.4l1.1,0.8L595.7,700z M596.2,605.4l-0.9-0.7l0.9-0.6L596.2,605.4z
		 M606.5,613.5l-10.1-7.9l0-1.7l1.2-0.9L606.5,613.5z M596.5,603.7l0-2l1.1,1.2L596.5,603.7z M597.7,602.7l-1.1-1.3l4-0.7
		L597.7,602.7z M601.1,600.3l-4.7,0.8l-0.2-0.2l0,0.2l-0.1,0l0.1,0.1l0,2.5l-1.1,0.8l-8.1-6.3l-5.4-4.2h0l0,0l0,0l-0.1,0h0l0,0
		l-0.1-0.1l0,0v0l-79.2-25.6l-36.4-11.8l-0.7-6.2l59.9-36.6l47.2-28.8l82,77.1l0,0l-19.6,14.1L601.1,600.3z M954.7,687.8
		l-104.3-56.5l29.7-12.4L954.7,687.8z M880.1,618.6l-56.7-52.4l-5.2-4.8l0-0.1l-0.1,0l-0.1-0.1l0,0.1l-145.6,26.2l-70.7,12.7
		l52.8-38l0.1,0.1l0-0.2l0,0l0,0l0.1-0.1l-0.1-0.1l17.3-57.5l51.9,19.8l96.3,36.8l0-0.1l5-9.8l13.8,18.5l0,0l0.1,0.1l0,0l0.1,0.1
		l0,0l61.7,40.1L880.1,618.6z M839.2,569.7l23.3-25.9l46.6-51.7l50.6,93.3L901,609.9L839.2,569.7z M986.5,665.4L901.3,610l58.5-24.4
		l20.5,37.9l31.6,58.4L986.5,665.4z M1068.1,548.1L1012.2,682L960,585.5l107.1-44.7L1068.1,548.1L1068.1,548.1z M1068.3,547.6
		l-0.2-1.6l-0.7-4.8l-0.1-0.4h0l3.5,0.8L1068.3,547.6z M1070.9,541.3l-3.4-0.8l-0.2-0.1l0-0.1l-0.1,0l-0.1,0l0,0.1l-107.2,44.8
		l-50.6-93.4l43-47.8l94.3,13.3l-24.7,41.5l-0.2,0.1l0.1,0.1l-0.1,0.2l0.2-0.1l51.1,37.3L1070.9,541.3z M1071.2,541.4l2-4.9
		l10.5,7.7L1071.2,541.4z M1084.3,544.3l-11-8l23.7-56.7l85.4-22.1l53.4,45.3l-25,69.8l-62-13.9l-57.8-13l-4.9-1.1L1084.3,544.3
		L1084.3,544.3z M1192.6,623.3l-86.5-63.1l-21.2-15.5l111.4,25l14.5,3.2L1192.6,623.3z M1237.9,623.1l-45.1,0.3l18-50.4l32.1,7.2
		l24.4,5.5L1237.9,623.1z M1238.3,623.1l29.2-37l0,0l-1.6,6.2l-0.2,0.7l-0.6,2.3l-2.5,10.1l-0.6,2.5l-2.5,9.9h0l-6.9,5h0
		L1238.3,623.1z M1244.2,679.2l-20.6-34.6l27.4,7.1L1244.2,679.2z M1251.1,651.5l-27.5-7.1l29-21.2l4.7,0l0.8,0L1251.1,651.5z
		 M1383.8,685.9l-132.5-34.3l7.1-28.4l118.4-0.7l0.1,0.1l0-0.1l0.2,0l-0.2-0.2l17.9-99.8l42.3,118.1L1383.8,685.9z M1437.4,640.5
		L1395,522l0.4-2l182.6,1.1l-65.9,55.9l-11.7,10l0,0l-27.9,20.2l-0.2-0.1l0,0.2l-0.1,0.1l0.1,0.1l0.6,2.9L1437.4,640.5z
		 M1473.1,610.2l-0.5-2.5l2,1.2L1473.1,610.2z M1474.9,608.7l-2.2-1.3l25.2-18.3l-18.3,15.5L1474.9,608.7z M1528.8,640.4l-53.7-31.6
		l7.2-6.1l18.3-15.5l0,0l79.3-57.4l28.3,157.2L1528.8,640.4z M1609.9,695.7l-1.3-7.5l-0.1-0.6l6.3,3.7L1609.9,695.7z M1655.4,585.5
		l-2.3,70.5l-38.2,35.1l-6.5-3.8L1580,529.7l58.7-42.5l0.1,0.1l0-0.2l20.3-14.7L1655.4,585.5z M1659.4,472.1l0-0.2l-0.1,0.1l-0.1,0
		l0,0.1l-20.2,14.6l14-76.3l29.7,8.9l65.7,19.8l-2.7,71.5L1659.4,472.1z M1745.9,510.9l13.6,6.1l-13.9,1.1L1745.9,510.9z
		 M1745.7,518.4l14.3-1.1l75.1,33.6l-10,84.8l0,0l-11.4,8.4L1745.7,518.4z M1806.6,675.5l-24.6-7.6l31.7-23.5l7.8,14.4L1806.6,675.5
		z M1857.2,691.1l-43.2-13.3l-7.1-2.2l14.7-16.6l0.6,1.2l0,0.1l0.1,0l0.1,0.3l0-0.3l47.9-9.9L1857.2,691.1z M1893.2,702.2
		l-35.8-11.1l13.2-40.9l0,0l30-6.2L1893.2,702.2z M1900.7,643.8l-30,6.2l20.4-63l18.7-13.8L1900.7,643.8z M1901,643.8l9.1-70.6
		l92,49.7L1901,643.8z M2027.4,698l-43.1-66.4l91.4,49.5L2027.4,698z M2097.7,692.8l-21.4-11.6l20.3-7.1L2097.7,692.8z M2007,625.6
		l89.4,48.3L2076,681l-91.8-49.7l18.9-7.9L2007,625.6z M2003.1,623.2l-0.4-0.2l1.6-0.3L2003.1,623.2z M2005.6,622.1L2005.6,622.1
		l-3.2,0.7l-92.3-49.9l0-0.2l-0.2,0.1h0l-0.1,0l0,0.1l-18.6,13.8l0.6-1.8l2.5-7.7l0.1-0.1l-38.8-17.3l-20.3-9l4.7-39.7l59.9-4.7
		l41.3-3.2l97.7,105.1L2005.6,622.1z M2006.8,621.9l32.2-13.5l5.3,5.7L2006.8,621.9z M2047.1,606l-2.5,7.9l-5.2-5.6l8.1-3.4
		L2047.1,606z M2047.5,604.6l-8.4,3.5l-84.9-91.3l-12.9-13.8l4.1-20.3l17.4-85.9l84.7,2.2l2.1,20.1l0,0.1h0.1h0.1l57-0.5l-19.3,60.6
		L2047.5,604.6z M2165.9,500.8l-10.2,17.2l-0.2,0.1l0.1,0.1l0,0l-0.1,0.2l0.2-0.1l36,26.2l-124.9,52.1l-19,7.9l59.2-185.9l108.3-0.9
		L2165.9,500.8z M2218.9,275.9l34.9,77.2l-38.3,64.3l-108.4,0.9l5.7-17.8l0.4,0l-0.3-0.2l0-0.1l-0.1,0l-48-30.8l32.9-110.4l6.7,0.6
		l111.8,10.2L2218.9,275.9z M2220.2,260.2l-4,9.5l-92.7-8.5l-25.7-2.4l19.5-65.4l124.2,16.7L2220.2,260.2z M2241.6,209.8
		l-124.3-16.7l-8.4-27.4l-3.8-63.3l107.1,79.9l31.2,23.3L2241.6,209.8z M2241.9,209.9l1.8-4.2l7.2,5.4L2241.9,209.9z M2264.1,220.7
		l-12.3-9.2l11.7,1.6L2264.1,220.7z M2263.4,212.8l-9-1.2l-3.1-0.4l-7.6-5.7l15.9-37.5L2263.4,212.8z M2254.6,108.6l5,58.8
		l-16.1,37.8l-23.6-17.6L2105,102.1l0,0l0,0l0-0.4l-0.8-12.7l19.1-17.2l130.4,27.7L2254.6,108.6z M2253.8,99.2l-70-14.9l-60.1-12.8
		l50.7-45.7l76.7,41.5L2253.8,99.2z M2262,0h-0.6l6.4,2.8V2.5L2262,0z"/>
</g>
</svg>
