<?xml version="1.0" encoding="utf-8"?>
<!-- Generator: Adobe Illustrator 26.3.1, SVG Export Plug-In . SVG Version: 6.00 Build 0)  -->
<svg version="1.1" id="レイヤー_1" xmlns="http://www.w3.org/2000/svg" xmlns:xlink="http://www.w3.org/1999/xlink" x="0px"
	 y="0px" viewBox="0 0 150 150" style="enable-background:new 0 0 150 150;" xml:space="preserve">
<style type="text/css">
	.st0{fill:#0364ca ;}
</style>
<path class="st0" d="M130.7,13c7.1,0,12.9,5.8,12.9,12.9c0,4-1.9,7.9-5.1,10.3L80.1,79.9c-3.1,2.3-7.2,2.3-10.3,0L11.6,36.2
	c-3.2-2.4-5.1-6.2-5.1-10.3c0-7.1,5.8-12.9,12.9-12.9H130.7z M64.7,86.7c6.1,4.6,14.5,4.6,20.6,0L143.6,43v55.7
	c0,9.5-7.7,17.1-17.1,17.1H23.6c-9.5,0-17.1-7.7-17.1-17.1V43L64.7,86.7z"/>
</svg>
