<?xml version="1.0" encoding="UTF-8"?><svg xmlns="http://www.w3.org/2000/svg" width="400" height="220" viewBox="0 0 400 220"><defs><style>.cls-1{opacity:.4;}.cls-1,.cls-2,.cls-3,.cls-4,.cls-5,.cls-6,.cls-7,.cls-8,.cls-9,.cls-10,.cls-11{mix-blend-mode:multiply;}.cls-12{fill:#41bbf0;}.cls-13{fill:#fff;}.cls-14{fill:#b8dee8;}.cls-15,.cls-3,.cls-6{fill:#f0c95a;}.cls-2{opacity:.25;}.cls-2,.cls-16{fill:#124c82;}.cls-17{fill:#022d47;}.cls-18,.cls-4{fill:#dbeff8;}.cls-19{fill:#f9e6c5;}.cls-20{mix-blend-mode:screen;opacity:.62;}.cls-20,.cls-21{fill:#083a60;}.cls-22{fill:#c9e8f2;}.cls-23{isolation:isolate;}.cls-24{fill:#c2f2ee;}.cls-25{fill:#b3c2ce;}.cls-26{fill:#fad86a;}.cls-27{fill:#78b7ce;}.cls-28{fill:#b7ede6;}.cls-29{fill:#333;}.cls-30,.cls-8{fill:#0d4570;}.cls-31{fill:#f2d7b1;}.cls-32{fill:none;stroke:#fff;stroke-miterlimit:10;stroke-width:.5px;}.cls-5{opacity:.35;}.cls-5,.cls-33{fill:#f5ae99;}.cls-34{fill:#205f8e;}.cls-35{fill:#dc4e4d;}.cls-6{opacity:.2;}.cls-7,.cls-36{fill:#96cae0;}.cls-8{opacity:.39;}.cls-9,.cls-37{fill:#f1f1f2;}.cls-38{fill:#f7b126;}.cls-39{fill:#dcecf4;}.cls-40{fill:#e6f7ff;}.cls-41{fill:#33afdb;}.cls-42{fill:#cdedf9;}.cls-43,.cls-11{fill:#e6e7e8;}.cls-44{fill:#a6e4f4;}.cls-45{fill:#2b84cc;}.cls-46{fill:#d4ecf9;}.cls-47{fill:#b7e4f7;}.cls-48{fill:#edf7fd;}.cls-49{fill:#ededed;}</style></defs><g class="cls-23"><g id="_レイヤー_2"><g id="Layer_2"><g><rect class="cls-13" width="400" height="220"/><g><rect class="cls-49" x="86.11" y="16.79" width="32.23" height="33.55"/><rect class="cls-49" x="121.97" y="16.79" width="32.23" height="33.55"/><rect class="cls-49" x="157.83" y="16.79" width="32.23" height="33.55"/><rect class="cls-49" x="193.69" y="16.79" width="32.23" height="33.55"/><rect class="cls-49" x="86.11" y="53.36" width="32.23" height="33.55"/><rect class="cls-49" x="121.97" y="53.36" width="32.23" height="33.55"/><rect class="cls-49" x="157.83" y="53.36" width="32.23" height="33.55"/><rect class="cls-49" x="193.69" y="53.36" width="32.23" height="33.55"/><rect class="cls-49" x="86.11" y="89.92" width="32.23" height="33.55"/><rect class="cls-49" x="121.97" y="89.92" width="32.23" height="33.55"/><rect class="cls-49" x="157.83" y="89.92" width="32.23" height="33.55"/><rect class="cls-49" x="193.69" y="89.92" width="32.23" height="33.55"/></g><g><g><g><path class="cls-36" d="M179.77,121.63c-.02,5.02-.39,9.51,8.27,9.11h.46v2.74h-21.52l-.08-5.14,12.88-6.71Z"/><rect class="cls-48" x="148.56" y="130.74" width="19.98" height="2.06"/><path class="cls-18" d="M177.63,121.63h-19.33c.34,4.69-.31,8.77-7.09,9.11h17.33c8.66,.4,9.46-4,9.09-9.11Z"/></g><rect class="cls-36" x="136.24" y="72.93" width="64.62" height="51.4" rx="2.27" ry="2.27"/><rect class="cls-48" x="133.35" y="72.93" width="64.62" height="51.4" rx="2.27" ry="2.27"/><rect class="cls-21" x="136.91" y="75.76" width="57.51" height="40.68" rx="1.79" ry="1.79"/><rect class="cls-12" x="147.15" y="69.18" width="37.02" height="53.84" transform="translate(261.76 -69.56) rotate(90)"/><path class="cls-27" d="M163.26,120.45c0-.88,.72-1.6,1.6-1.6s1.6,.72,1.6,1.6-.72,1.6-1.6,1.6-1.6-.72-1.6-1.6Z"/></g><rect class="cls-44" x="165.01" y="92.21" width="1.31" height="43.49" transform="translate(279.62 -51.7) rotate(90)"/><rect class="cls-44" x="164.5" y="51.84" width="2.32" height="53.84" transform="translate(244.42 -86.9) rotate(90)"/><g><rect class="cls-21" x="145.06" y="88.57" width="15.12" height="23.76" rx="1.21" ry="1.21"/><path class="cls-16" d="M158.99,88.57h-12.73c-.66,0-1.19,.53-1.19,1.19v1.07h15.12v-1.07c0-.66-.53-1.19-1.19-1.19Z"/><path class="cls-35" d="M146.23,89.8c0-.27,.22-.49,.49-.49s.49,.22,.49,.49-.22,.49-.49,.49-.49-.22-.49-.49Z"/><path class="cls-33" d="M148.22,89.8c0-.27,.22-.49,.49-.49s.49,.22,.49,.49-.22,.49-.49,.49-.49-.22-.49-.49Z"/><path class="cls-43" d="M150.2,89.8c0-.27,.22-.49,.49-.49s.49,.22,.49,.49-.22,.49-.49,.49-.49-.22-.49-.49Z"/><rect class="cls-25" x="146.72" y="92.14" width="11.07" height=".67"/><rect class="cls-25" x="146.72" y="93.69" width="5.66" height=".67"/><rect class="cls-25" x="146.72" y="95.23" width="10.33" height=".67"/><rect class="cls-25" x="148.62" y="96.78" width="6.75" height=".67"/><rect class="cls-25" x="148.62" y="98.32" width="8.37" height=".67"/><rect class="cls-25" x="148.62" y="99.87" width="7.62" height=".67"/><rect class="cls-25" x="148.62" y="101.41" width="2.35" height=".67"/><rect class="cls-25" x="146.72" y="102.96" width="9.59" height=".67"/><rect class="cls-25" x="146.72" y="104.5" width="4.09" height=".67"/><rect class="cls-25" x="146.72" y="106.05" width="2.86" height=".67"/><rect class="cls-25" x="148.88" y="107.59" width="8.21" height=".67"/><rect class="cls-25" x="148.88" y="109.14" width="6.49" height=".67"/></g><g><rect class="cls-21" x="164.02" y="82.06" width="25.04" height="23.76" rx="1.21" ry="1.21"/><path class="cls-16" d="M187.87,82.06h-22.65c-.66,0-1.19,.54-1.19,1.19v1.07h25.04v-1.07c0-.66-.54-1.19-1.19-1.19Z"/><path class="cls-35" d="M165.19,83.29c0-.27,.22-.49,.49-.49s.49,.22,.49,.49-.22,.49-.49,.49-.49-.22-.49-.49Z"/><path class="cls-33" d="M167.17,83.29c0-.27,.22-.49,.49-.49s.49,.22,.49,.49-.22,.49-.49,.49-.49-.22-.49-.49Z"/><path class="cls-43" d="M169.16,83.29c0-.27,.22-.49,.49-.49s.49,.22,.49,.49-.22,.49-.49,.49-.49-.22-.49-.49Z"/><g><polyline class="cls-32" points="183.42 100.48 183.42 90.94 176.1 90.94 176.1 88.04"/><polyline class="cls-32" points="168.77 100.48 168.77 90.94 176.1 90.94 176.1 88.04"/></g><line class="cls-32" x1="176.1" y1="90.25" x2="176.1" y2="101.13"/><rect class="cls-25" x="174.18" y="85.83" width="3.84" height="3.84"/><rect class="cls-25" x="174.06" y="92.78" width="4.07" height="4.07"/><g><rect class="cls-25" x="167.02" y="92.78" width="4.07" height="4.07"/><rect class="cls-25" x="181.1" y="92.78" width="4.07" height="4.07"/></g><rect class="cls-25" x="174.06" y="98.62" width="4.07" height="4.07"/><g><rect class="cls-25" x="167.02" y="98.62" width="4.07" height="4.07"/><rect class="cls-25" x="181.1" y="98.62" width="4.07" height="4.07"/></g></g></g><g><path class="cls-39" d="M245.88,126.78c1.54,8.11,3.54,16.13,4.68,24.31,.55,3.96,1.13,7.74,2.35,11.57,1.09,3.43,2.19,6.64,4.48,9.48,1.4,1.73,2.96,3.34,4.46,4.99s4.7,4.1,3.77,6.49c-.29,.75,.92,1.08,1.21,.33,.6-1.55-.08-3.02-1.03-4.26-1.31-1.72-2.9-3.26-4.36-4.86s-2.87-3.05-4.07-4.77-1.81-3.45-2.46-5.34c-1.33-3.84-2.35-7.66-2.85-11.7s-1.22-8.15-2.04-12.19c-.97-4.8-2.03-9.57-2.95-14.38-.15-.79-1.35-.46-1.21,.33h0Z"/><path class="cls-39" d="M243.16,128.86c2.55,9.07,3.59,18.3,4.88,27.61,1.15,8.31,2.91,16.72,7.37,23.95,2.21,3.59,5.04,6.73,8.5,9.14,.66,.46,1.29-.62,.63-1.08-14.33-9.99-14.62-29.39-16.95-44.94-.76-5.07-1.84-10.08-3.23-15.01-.22-.77-1.42-.44-1.21,.33h0Z"/><path class="cls-39" d="M249.77,130.29c-3.16,7.8-12.56,9.2-19.87,10.11-8.12,1.01-16.95,2.06-24.83-.81-3.66-1.33-7.23-3.81-8.25-7.77-.2-.78-1.41-.45-1.21,.33,2.03,7.9,11.85,10.05,18.82,10.43,4.86,.27,9.72-.23,14.53-.81,4.49-.55,9.1-1.03,13.3-2.82,3.82-1.63,7.13-4.42,8.71-8.32,.3-.75-.91-1.07-1.21-.33h0Z"/><path class="cls-21" d="M244.64,162.57h35.49c1.21,0,2.2,.98,2.2,2.2v47.1c0,1.21-.98,2.2-2.2,2.2h-35.49c-1.21,0-2.2-.98-2.2-2.2v-47.1c0-1.21,.98-2.2,2.2-2.2Z" transform="translate(524.78 376.63) rotate(180)"/><rect class="cls-16" x="229.3" y="162.57" width="21.81" height="51.5" rx="1.83" ry="1.83"/><rect class="cls-2" x="231.91" y="165.63" width="16.77" height="23.94"/><rect class="cls-34" x="232.67" y="166.83" width="15.12" height=".52"/><rect class="cls-34" x="232.67" y="168.38" width="15.12" height=".52"/><rect class="cls-34" x="232.67" y="169.92" width="15.12" height=".52"/><rect class="cls-34" x="232.67" y="171.47" width="15.12" height=".52"/><rect class="cls-34" x="232.67" y="173.02" width="15.12" height=".52"/><rect class="cls-34" x="232.67" y="174.57" width="15.12" height=".52"/><rect class="cls-34" x="232.67" y="176.12" width="15.12" height=".52"/><rect class="cls-34" x="232.67" y="177.67" width="15.12" height=".52"/><rect class="cls-34" x="232.67" y="179.22" width="15.12" height=".52"/><rect class="cls-34" x="232.67" y="180.77" width="15.12" height=".52"/><rect class="cls-34" x="232.67" y="182.32" width="15.12" height=".52"/><rect class="cls-34" x="232.67" y="183.87" width="15.12" height=".52"/><rect class="cls-34" x="232.67" y="185.42" width="15.12" height=".52"/><rect class="cls-34" x="232.67" y="186.97" width="15.12" height=".52"/><path class="cls-21" d="M247.92,194.93c0,1.09-.76,1.98-1.69,1.98s-1.69-.89-1.69-1.98,.76-1.98,1.69-1.98,1.69,.89,1.69,1.98Z"/><path class="cls-35" d="M247.26,194.93c0,.74-.46,1.34-1.03,1.34s-1.03-.6-1.03-1.34,.46-1.34,1.03-1.34,1.03,.6,1.03,1.34Z"/><rect class="cls-20" x="232.37" y="207.46" width="16.16" height="3.99"/><rect class="cls-21" x="243.82" y="198.09" width="4.71" height="1.46"/><rect class="cls-21" x="243.82" y="200.61" width="4.71" height="1.46"/><rect class="cls-21" x="243.82" y="203.13" width="4.71" height="1.46"/><rect class="cls-17" x="244.76" y="198.09" width="3.77" height="1.46"/><rect class="cls-17" x="244.76" y="200.61" width="3.77" height="1.46"/><rect class="cls-17" x="244.76" y="203.13" width="3.77" height="1.46"/></g><g><rect class="cls-47" x="313.61" y="34.13" width="5.82" height="70.5" rx="1.28" ry="1.28" transform="translate(633.05 138.76) rotate(180)"/><rect class="cls-46" x="250.82" y="34.13" width="66.43" height="70.5" rx="1.28" ry="1.28"/><polygon class="cls-9" points="274.26 57.2 260.51 56.2 262.11 40.43 274.69 41.33 274.26 57.2"/><rect class="cls-26" x="260.08" y="40.69" width="13.79" height="14.75" transform="translate(5.19 -23.04) rotate(4.99)"/><rect class="cls-21" x="262.04" y="46.29" width="10.13" height="1.02" transform="translate(5.08 -23.05) rotate(4.99)"/><rect class="cls-21" x="262.68" y="48.42" width="6.99" height="1.02" transform="translate(5.26 -22.96) rotate(4.99)"/><polygon class="cls-9" points="297.14 60.48 283.61 63.07 281.06 47.42 293.44 45.04 297.14 60.48"/><rect class="cls-12" x="280.84" y="46.17" width="13.79" height="14.75" transform="translate(-4.93 50.92) rotate(-10.03)"/><rect class="cls-21" x="282.48" y="51.77" width="10.13" height="1.02" transform="translate(-4.71 50.86) rotate(-10.03)"/><rect class="cls-21" x="284.77" y="54.09" width="6.99" height="1.02" transform="translate(-5.1 51.02) rotate(-10.03)"/><rect class="cls-21" x="284.48" y="56.31" width="6.99" height="1.02" transform="translate(-5.5 51.01) rotate(-10.03)"/><polygon class="cls-9" points="301.67 87.68 287.92 86.71 289.48 70.93 302.06 71.81 301.67 87.68"/><rect class="cls-35" x="287.46" y="71.19" width="13.79" height="14.75" transform="translate(7.72 -24.68) rotate(4.87)"/><rect class="cls-21" x="289.69" y="75.15" width="10.13" height="1.02" transform="translate(7.48 -24.73) rotate(4.87)"/><rect class="cls-21" x="291.86" y="77.33" width="6.99" height="1.02" transform="translate(7.67 -24.77) rotate(4.87)"/><rect class="cls-21" x="290.59" y="80.01" width="6.99" height="1.02" transform="translate(7.89 -24.65) rotate(4.87)"/></g><g><g><path class="cls-36" d="M255.6,121.63c-.02,5.02-.39,9.51,8.27,9.11h.46v2.74h-21.52l-.08-5.14,12.88-6.71Z"/><rect class="cls-48" x="224.38" y="130.74" width="19.98" height="2.06"/><path class="cls-18" d="M253.45,121.63h-19.33c.34,4.69-.31,8.77-7.09,9.11h17.33c8.66,.4,9.46-4,9.09-9.11Z"/></g><rect class="cls-36" x="212.07" y="72.93" width="64.62" height="51.4" rx="2.27" ry="2.27"/><rect class="cls-48" x="209.18" y="72.93" width="64.62" height="51.4" rx="2.27" ry="2.27"/><rect class="cls-21" x="212.73" y="75.76" width="57.51" height="40.68" rx="1.92" ry="1.92"/><rect class="cls-12" x="222.98" y="69.18" width="37.02" height="53.84" transform="translate(337.59 -145.38) rotate(90)"/><rect class="cls-44" x="240.83" y="92.21" width="1.31" height="43.49" transform="translate(355.44 -127.53) rotate(90)"/><rect class="cls-44" x="240.32" y="51.84" width="2.32" height="53.84" transform="translate(320.24 -162.73) rotate(90)"/><path class="cls-27" d="M239.09,120.45c0-.88,.72-1.6,1.6-1.6s1.6,.72,1.6,1.6-.72,1.6-1.6,1.6-1.6-.72-1.6-1.6Z"/><rect class="cls-13" x="219.2" y="82.47" width="36.69" height="23.76" rx="1.21" ry="1.21"/><path class="cls-16" d="M254.69,82.47h-34.3c-.66,0-1.19,.53-1.19,1.19v1.07h36.69v-1.07c0-.66-.53-1.19-1.19-1.19Z"/><path class="cls-35" d="M223.92,83.7c0-.27,.22-.49,.49-.49s.49,.22,.49,.49-.22,.49-.49,.49-.49-.22-.49-.49Z"/><path class="cls-33" d="M222.35,83.7c0-.27,.22-.49,.49-.49s.49,.22,.49,.49-.22,.49-.49,.49-.49-.22-.49-.49Z"/><circle class="cls-43" cx="224.82" cy="83.7" r=".49"/><g><rect class="cls-21" x="247.26" y="88.58" width="15.12" height="23.76" rx="1.21" ry="1.21"/><path class="cls-16" d="M261.18,88.58h-12.73c-.66,0-1.19,.54-1.19,1.19v1.07h15.12v-1.07c0-.66-.53-1.19-1.19-1.19Z"/><path class="cls-35" d="M248.43,89.8c0-.27,.22-.49,.49-.49s.49,.22,.49,.49-.22,.49-.49,.49-.49-.22-.49-.49Z"/><path class="cls-33" d="M250.41,89.8c0-.27,.22-.49,.49-.49s.49,.22,.49,.49-.22,.49-.49,.49-.49-.22-.49-.49Z"/><path class="cls-43" d="M252.39,89.8c0-.27,.22-.49,.49-.49s.49,.22,.49,.49-.22,.49-.49,.49-.49-.22-.49-.49Z"/><rect class="cls-25" x="248.91" y="92.15" width="11.07" height=".67"/><rect class="cls-25" x="248.91" y="93.69" width="5.66" height=".67"/><rect class="cls-25" x="248.91" y="95.24" width="10.33" height=".67"/><rect class="cls-25" x="250.82" y="96.78" width="6.75" height=".67"/><rect class="cls-25" x="250.82" y="98.33" width="8.37" height=".67"/><rect class="cls-25" x="250.82" y="99.87" width="7.62" height=".67"/><rect class="cls-25" x="250.82" y="101.42" width="2.35" height=".67"/><rect class="cls-25" x="248.91" y="102.96" width="9.59" height=".67"/><rect class="cls-25" x="248.91" y="104.51" width="4.09" height=".67"/><rect class="cls-25" x="248.91" y="106.05" width="2.86" height=".67"/><rect class="cls-25" x="251.07" y="107.6" width="8.21" height=".67"/><rect class="cls-25" x="251.07" y="109.14" width="6.49" height=".67"/></g><rect class="cls-38" x="220.92" y="86.4" width="12.82" height=".75"/><rect class="cls-35" x="220.92" y="87.8" width="4.71" height=".75"/><rect class="cls-25" x="224.99" y="87.8" width="12.43" height=".75"/><rect class="cls-38" x="220.92" y="89.2" width="7.44" height=".75"/><rect class="cls-38" x="228.36" y="89.2" width="8.61" height=".75" transform="translate(465.34 179.16) rotate(180)"/><rect class="cls-25" x="220.92" y="90.61" width="14.36" height=".75"/><rect class="cls-38" x="220.92" y="90.61" width="5.81" height=".75"/><rect class="cls-25" x="220.92" y="93.9" width="14.36" height=".75"/><rect class="cls-33" x="220.92" y="93.9" width="4.2" height=".75"/><rect class="cls-25" x="220.92" y="95.53" width="18.87" height=".75"/><rect class="cls-38" x="220.92" y="95.53" width="10.22" height=".75"/><rect class="cls-25" x="220.92" y="97.15" width="20.55" height=".75"/><rect class="cls-38" x="220.92" y="97.15" width="5.81" height=".75"/><rect class="cls-25" x="220.92" y="98.78" width="19.76" height=".75"/><rect class="cls-38" x="220.92" y="98.78" width="7.13" height=".75"/><rect class="cls-25" x="220.92" y="100.41" width="18.69" height=".75"/><rect class="cls-35" x="220.92" y="100.41" width="5.81" height=".75"/></g><g><path class="cls-35" d="M273.01,128.59c-2.37,0-4.3-1.74-4.3-3.87s1.93-3.87,4.3-3.87,4.3,1.74,4.3,3.87-1.93,3.87-4.3,3.87Zm0-6.07c-1.45,0-2.62,.99-2.62,2.2s1.18,2.2,2.62,2.2,2.62-.99,2.62-2.2-1.18-2.2-2.62-2.2Z"/><path class="cls-35" d="M261.24,117.87v12.21c0,1.11,.87,2.01,1.93,2.01h7.72c1.07,0,1.93-.9,1.93-2.01v-12.21h-11.58Z"/><g class="cls-10"><path class="cls-35" d="M270.13,117.87v12.21c0,1.11-.87,2.01-1.93,2.01h2.69c1.21,0,1.93-.63,1.93-2.01v-12.21h-2.69Z"/></g><rect class="cls-13" x="264.87" y="117.87" width=".32" height="4.77"/><rect class="cls-26" x="263.45" y="122.51" width="3.16" height="3.16"/></g><g><g><polygon class="cls-15" points="138.83 213.8 134.86 213.8 122.7 137.61 129.48 137.61 138.83 213.8"/><polygon class="cls-3" points="129.48 137.61 122.7 137.61 123.31 141.49 129.96 141.49 129.48 137.61"/><polygon class="cls-15" points="84.89 213.8 88.87 213.8 101.03 137.61 94.24 137.61 84.89 213.8"/><polygon class="cls-3" points="93.76 141.49 100.41 141.49 101.03 137.61 94.24 137.61 93.76 141.49"/></g><rect class="cls-26" x="77.11" y="132.09" width="227.55" height="5.52"/><rect class="cls-15" x="253.52" y="132.09" width="59.99" height="5.52"/><rect class="cls-6" x="253.52" y="132.09" width="59.99" height="5.52"/><g><polygon class="cls-15" points="310.48 213.8 306.51 213.8 294.34 137.61 301.13 137.61 310.48 213.8"/><polygon class="cls-3" points="301.13 137.61 294.34 137.61 294.96 141.49 301.61 141.49 301.13 137.61"/><polygon class="cls-15" points="256.54 213.8 260.52 213.8 272.68 137.61 265.89 137.61 256.54 213.8"/><polygon class="cls-3" points="265.41 141.49 272.06 141.49 272.68 137.61 265.89 137.61 265.41 141.49"/></g></g><g><path class="cls-18" d="M211.43,127.18h-6.13c-2.82,0-5.11,2.29-5.11,5.11h16.34c0-2.82-2.29-5.11-5.11-5.11Z"/><path class="cls-33" d="M192.5,126.54s8.55-2.82,11.4-3.25c2.38-.36,8.46,1.81,10.1,2.96,1.59,1.37,2.37,2.38,2.96,3.54,.13,1.31-.56,1.3-1.52,.87-1.56-1.7-3.08-2.72-4.55-2.53-1.89,2.24-3.66,3.47-5.34,3.97l-6.71-.07-6.35-5.48Z"/><path class="cls-30" d="M148.59,211.08s.66-6.43,2.21-7.64,16.45,.35,16.45,.35c0,0,10.07,1.22,11.78,1.5,1.71,.29,4.64,2.78,4.36,5.78-.28,3-11.21,.93-11.21,.93l-23.58-.93Z"/><path class="cls-8" d="M148.59,211.08s.66-6.43,2.21-7.64,16.45,.35,16.45,.35c0,0,10.07,1.22,11.78,1.5,1.71,.29,4.64,2.78,4.36,5.78-.28,3-11.21,.93-11.21,.93l-23.58-.93Z"/><path class="cls-43" d="M148.59,211.08h34.8v1.39c0,.73-.59,1.32-1.32,1.32h-32.16c-.73,0-1.32-.59-1.32-1.32v-1.39h0Z"/><path class="cls-11" d="M148.59,211.08h34.8v1.39c0,.73-.59,1.32-1.32,1.32h-32.16c-.73,0-1.32-.59-1.32-1.32v-1.39h0Z"/><path class="cls-16" d="M175.15,211.08s.66-6.43,2.21-7.64c1.55-1.21,17.36,.96,17.36,.96,0,0,9.15,.61,10.87,.89,1.71,.29,4.64,2.78,4.36,5.78s-11.21,.93-11.21,.93l-23.58-.93Z"/><path class="cls-37" d="M175.15,211.08h34.8v1.39c0,.73-.59,1.32-1.32,1.32h-32.16c-.73,0-1.32-.59-1.32-1.32v-1.39h0Z"/><path class="cls-13" d="M198.02,206.63c-.17,0-.31-.13-.32-.3-.07-1.01-1.26-1.72-3.53-2.13-.18-.03-.29-.2-.26-.38,.03-.18,.2-.29,.38-.26,2.63,.47,3.96,1.36,4.06,2.72,.01,.18-.12,.33-.3,.35,0,0-.02,0-.02,0Z"/><path class="cls-13" d="M200.18,206.63c-.17,0-.31-.13-.32-.3-.07-1.01-1.26-1.72-3.53-2.13-.18-.03-.29-.2-.26-.38,.03-.18,.2-.29,.38-.26,2.63,.47,3.96,1.36,4.06,2.72,.01,.18-.12,.33-.3,.35,0,0-.02,0-.02,0Z"/><path class="cls-13" d="M202.34,206.63c-.17,0-.31-.13-.32-.3-.07-1.01-1.26-1.72-3.53-2.13-.18-.03-.29-.2-.26-.38,.03-.18,.2-.29,.38-.26,2.63,.47,3.96,1.36,4.06,2.72,.01,.18-.12,.33-.3,.35,0,0-.02,0-.02,0Z"/><path class="cls-13" d="M204.51,206.63c-.17,0-.31-.13-.32-.3-.07-1.01-1.26-1.72-3.53-2.13-.18-.03-.29-.2-.26-.38,.03-.18,.2-.29,.38-.26,2.63,.47,3.96,1.36,4.06,2.72,.01,.18-.12,.33-.3,.35,0,0-.02,0-.02,0Z"/><rect class="cls-33" x="128.74" y="81.21" width="15.03" height="21.66"/><path class="cls-5" d="M140.06,102.87h3.71v-7.11c-3.01-3.92-3.82-7.73-3.82-7.73l.11,14.84Z"/><polygon class="cls-41" points="144.65 154.07 182.72 154.07 187.77 158.23 171.21 204.42 150.45 204.42 167.25 167.37 136.5 166.41 144.65 154.07"/><path class="cls-12" d="M171.2,154.07h35.86c1.43,0,2.81,.5,3.91,1.4h0c2.01,1.65,2.76,4.39,1.88,6.83l-18.16,42.11h-17.7l16.8-37.04-30.76-.97,8.16-12.34Z"/><rect class="cls-36" x="144.75" y="176.47" width="10.12" height="25.07"/><rect class="cls-27" x="151.69" y="176.47" width="3.18" height="25.07"/><rect class="cls-22" x="145.91" y="176.47" width="3.35" height="25.07"/><rect class="cls-27" x="144.75" y="176.47" width="10.12" height="4.72"/><rect class="cls-14" x="145.91" y="176.47" width="3.35" height="4.72"/><path class="cls-27" d="M115.31,171.69h76.92v2.28c0,2.61-2.12,4.73-4.73,4.73H120.04c-2.61,0-4.73-2.12-4.73-4.73v-2.28h0Z"/><path class="cls-33" d="M150.5,75.78s3.52,6.38,4.07,7.48c.55,1.1-4.62,.99-4.95,1.1-.33,.11,.88-8.58,.88-8.58Z"/><path class="cls-5" d="M150.5,75.78s3.52,6.38,4.07,7.48c.55,1.1-4.62,.99-4.95,1.1-.33,.11,.88-8.58,.88-8.58Z"/><path class="cls-33" d="M152.26,75.82c0,11.06,.25,25.55-8.43,20.01-2.58-1.65-4.25-5.74-6.17-9.74-.95-1.98-11.38,.65-11.38-2.47,0-11.06-5.03-25.26,6.04-25.26s19.94,6.39,19.94,17.45Z"/><path class="cls-29" d="M143.69,70.42c-1.54,1.16,2.25,6.68,0,9.65-5.79-8.56-6.39-2.29-6.15,1.45,.25,3.89,2.41,6.51,2.41,6.51,0,0-1.33,2.05-5.67,2.17-2.45-.11-8.41,1.02-13.13-9.87-5.29-12.18,.11-21.96,11.18-21.96,7.03,0,16.14,3.45,19.26,9.2,4.12,7.59-2.19-1.45-7.89,2.84Z"/><path class="cls-45" d="M199.59,131.87c.67-4.05-4.17-7.34-8.84-5.44l-12.04,7.06-18.8-27.17c-1.55-2.24-4.02-3.66-6.74-3.87l-9.52-.73-15.05-.4-9.89,.86c-3.76,.33-6.53,3.67-6.14,7.43l6.1,59.27,44.04-1.4,8.49-13.41-4.58-17.08,9.09,11.75,23.87-16.86Z"/><path class="cls-42" d="M142.84,108.66h-42.89l16.62,57.74h46.48l-15.63-54.29c-.59-2.04-2.46-3.45-4.58-3.45Z"/><path class="cls-40" d="M132.42,108.66h-35.46c-3.16,0-5.44,3.03-4.57,6.07l14.88,51.67h46.48l-15.32-53.22c-.77-2.68-3.22-4.52-6-4.52Z"/><polygon class="cls-27" points="138.69 149.29 115.86 149.29 120.79 166.41 143.61 166.41 138.69 149.29"/><polygon class="cls-36" points="136.98 149.29 114.16 149.29 119.09 166.41 141.91 166.41 136.98 149.29"/><path class="cls-40" d="M107.24,166.41h46.51v8.57h-43.71c-1.55,0-2.8-1.26-2.8-2.8v-5.77h0Z"/><rect class="cls-27" x="120.79" y="166.41" width="22.83" height="8.57"/><rect class="cls-36" x="119.09" y="166.41" width="22.83" height="8.57"/><path class="cls-42" d="M156.48,166.41h38.9v8.57h-38.9c-1.51,0-2.74-1.23-2.74-2.74v-3.09c0-1.51,1.23-2.74,2.74-2.74Z" transform="translate(349.12 341.39) rotate(180)"/><polygon class="cls-18" points="149.27 206.01 117.08 206.01 117.08 201.93 149.27 199.99 149.27 206.01"/><polygon class="cls-36" points="149.27 206.01 181.45 206.01 181.45 201.93 149.27 199.99 149.27 206.01"/><polygon class="cls-4" points="149.27 206.01 117.08 206.01 117.08 205.1 149.27 204.66 149.27 206.01"/><polygon class="cls-7" points="149.27 206.01 181.45 206.01 181.45 205.1 149.27 204.66 149.27 206.01"/><g><g><path class="cls-36" d="M113.57,209.7c0-2.26,1.83-4.09,4.09-4.09s4.09,1.83,4.09,4.09-1.83,4.09-4.09,4.09-4.09-1.83-4.09-4.09Z"/><path class="cls-18" d="M122.41,209.7c0-2.62-2.12-4.74-4.74-4.74s-4.74,2.12-4.74,4.74h9.49Z"/></g><g><path class="cls-36" d="M142.87,209.7c0-2.26,1.83-4.09,4.09-4.09s4.09,1.83,4.09,4.09-1.83,4.09-4.09,4.09-4.09-1.83-4.09-4.09Z"/><path class="cls-18" d="M151.71,209.7c0-2.62-2.12-4.74-4.74-4.74s-4.74,2.12-4.74,4.74h9.49Z"/></g><g><path class="cls-36" d="M177.96,209.7c0-2.26,1.83-4.09,4.09-4.09s4.09,1.83,4.09,4.09-1.83,4.09-4.09,4.09-4.09-1.83-4.09-4.09Z"/><path class="cls-18" d="M186.8,209.7c0-2.62-2.12-4.74-4.74-4.74s-4.74,2.12-4.74,4.74h9.49Z"/></g></g><rect class="cls-36" x="163.17" y="150.37" width="4.58" height="24.61"/><rect class="cls-36" x="182.21" y="150.37" width="4.58" height="24.61"/><rect class="cls-27" x="163.17" y="150.37" width="4.58" height="2.64"/><rect class="cls-27" x="182.21" y="150.37" width="4.58" height="2.64"/><rect class="cls-48" x="154.09" y="143.44" width="12.7" height="7.51" rx="2.73" ry="2.73" transform="translate(320.88 294.39) rotate(180)"/><rect class="cls-42" x="160.76" y="143.44" width="38.83" height="7.51" rx="3.03" ry="3.03"/></g><g><g><path class="cls-24" d="M305.87,189.41c-17.05-27.07-19.83-49.37-4.85-66.77,13.8,21.08,17.6,56.31,4.85,66.77Z"/><g class="cls-10"><path class="cls-24" d="M305.87,189.41c-17.05-27.07-19.83-49.37-4.85-66.77,13.8,21.08,17.6,56.31,4.85,66.77Z"/></g><path class="cls-13" d="M297.51,177.4c-.07,0-.14-.02-.2-.07-2.71-2.06-6.56-1.76-6.6-1.76-.18,0-.33-.12-.35-.29-.02-.18,.12-.33,.29-.35,.17-.01,4.14-.33,7.04,1.88,.14,.11,.17,.31,.06,.45-.06,.08-.16,.13-.26,.13Z"/><path class="cls-13" d="M301.04,172.51s-.04,0-.06,0c-.18-.03-.29-.2-.26-.37,1.45-8.39-.33-45.6-.35-45.97,0-.18,.13-.33,.31-.34,.17-.02,.33,.13,.34,.31,.07,1.53,1.8,37.65,.34,46.11-.03,.16-.16,.27-.32,.27Z"/><path class="cls-13" d="M301.15,142.16c-.08,0-.16-.03-.22-.09l-5.57-5.12c-.13-.12-.14-.33-.02-.46,.12-.13,.33-.14,.46-.02l5.57,5.12c.13,.12,.14,.33,.02,.46-.06,.07-.15,.1-.24,.1Z"/><path class="cls-13" d="M301.38,153.75c-.08,0-.16-.03-.22-.09l-6.71-6.37c-.13-.12-.13-.33-.01-.46,.12-.13,.33-.14,.46-.01l6.71,6.37c.13,.12,.13,.33,.01,.46-.06,.07-.15,.1-.23,.1Z"/><path class="cls-24" d="M304.26,189.13c-20.96-13.15-30.9-27.45-15.92-44.86,12.07,23.51,19.03,24.62,15.92,44.86Z"/><g class="cls-10"><path class="cls-24" d="M304.26,189.13c-20.96-13.15-30.9-27.45-15.92-44.86,12.07,23.51,19.03,24.62,15.92,44.86Z"/></g><g class="cls-10"><path class="cls-24" d="M304.26,189.13c-20.96-13.15-30.9-27.45-15.92-44.86,12.07,23.51,19.03,24.62,15.92,44.86Z"/></g><path class="cls-13" d="M303.2,187.63c-.11,0-.22-.05-.28-.15-.05-.07-4.58-7.52-8.67-15.88-4.46-9.11-6.72-15.79-6.72-19.88,0-.18,.14-.32,.32-.32s.32,.14,.32,.32c0,3.98,2.24,10.58,6.66,19.59,4.08,8.33,8.6,15.75,8.64,15.82,.09,.15,.04,.35-.11,.44-.05,.03-.11,.05-.17,.05Z"/><path class="cls-13" d="M294.1,171.26c-.08,0-.16-.03-.22-.09-3.04-2.94-7.45-2.86-7.5-2.87-.18,0-.33-.14-.33-.32,0-.18,.14-.33,.31-.33,.19,0,4.72-.08,7.96,3.05,.13,.12,.13,.33,0,.46-.06,.07-.15,.1-.23,.1Z"/><path class="cls-13" d="M289.9,161.14c-.09,0-.18-.04-.25-.12-1.58-1.89-5.15-1.7-5.19-1.7-.18,.02-.33-.13-.34-.3-.01-.18,.12-.33,.3-.34,.16-.01,3.94-.21,5.72,1.93,.11,.14,.1,.34-.04,.46-.06,.05-.13,.08-.21,.08Z"/><path class="cls-28" d="M309.11,189.32c-17.05-27.07-5.72-39.2,9.26-56.61,12.07,23.51,3.49,46.15-9.26,56.61Z"/><path class="cls-13" d="M308.67,187.5h-.01c-.18,0-.32-.16-.31-.34,0-.09,.39-9.23,1.68-19.56,1.74-13.91,4.2-23.27,7.33-27.8,.1-.15,.3-.18,.45-.08,.15,.1,.18,.3,.08,.45-7.32,10.62-8.88,46.66-8.9,47.02,0,.17-.15,.31-.32,.31Z"/><path class="cls-13" d="M311.84,158.64c-.08,0-.17-.03-.23-.09-.13-.13-.13-.33,0-.46,.23-.23,5.54-5.52,8.21-6.33,.17-.05,.35,.04,.4,.22,.05,.17-.04,.35-.22,.4-2.51,.76-7.88,6.12-7.94,6.17-.06,.06-.15,.09-.23,.09Z"/><path class="cls-13" d="M310.36,168.19c-.08,0-.17-.03-.23-.09-.13-.13-.13-.33,0-.46,.15-.15,3.83-3.81,7.47-5.63,.16-.08,.35-.01,.43,.14,.08,.16,.02,.35-.14,.43-3.55,1.77-7.27,5.47-7.31,5.51-.06,.06-.15,.09-.23,.09Z"/><path class="cls-13" d="M309.11,177.63c-.09,0-.18-.04-.25-.11-.12-.14-.1-.34,.04-.46,.26-.22,6.32-5.39,8.72-6.42,.16-.07,.35,0,.42,.17,.07,.16,0,.35-.17,.42-2.31,.99-8.5,6.26-8.56,6.31-.06,.05-.14,.08-.21,.08Z"/><path class="cls-13" d="M301.61,147.39c-.08,0-.17-.03-.23-.1-.12-.13-.12-.33,0-.46l5.34-5.23c.13-.12,.33-.12,.46,0,.12,.13,.12,.33,0,.46l-5.34,5.23c-.06,.06-.14,.09-.23,.09Z"/><path class="cls-13" d="M291.6,165.46s-.07,0-.1-.02c-.17-.06-.26-.24-.2-.41,.05-.14,1.16-3.47,2.42-5.42,.1-.15,.3-.19,.45-.1,.15,.1,.19,.3,.1,.45-1.21,1.88-2.34,5.24-2.35,5.27-.05,.14-.17,.22-.31,.22Z"/><path class="cls-13" d="M310.93,163.19c-.12,0-.23-.06-.29-.18-.03-.07-3.39-6.64-5.45-7.95-.15-.1-.2-.29-.1-.45,.1-.15,.29-.2,.45-.1,2.21,1.4,5.54,7.92,5.69,8.2,.08,.16,.02,.35-.14,.43-.05,.02-.1,.04-.15,.04Z"/><path class="cls-13" d="M309.68,172.74c-.13,0-.25-.07-.3-.2-.03-.07-3.06-7.23-5.14-8.97-.14-.12-.15-.32-.04-.46,.11-.14,.32-.15,.46-.04,2.19,1.85,5.19,8.92,5.32,9.22,.07,.16,0,.35-.17,.42-.04,.02-.08,.03-.13,.03Z"/><path class="cls-13" d="M312.75,153.3c-.14,0-.26-.09-.31-.22-.02-.05-1.57-4.78-3.37-5.73-.16-.08-.22-.28-.13-.44,.08-.16,.28-.22,.44-.14,2.03,1.07,3.61,5.89,3.68,6.1,.06,.17-.04,.35-.21,.41-.03,.01-.07,.02-.1,.02Z"/></g><polygon class="cls-19" points="318.56 213.79 293.54 213.79 289.66 194.57 322.44 194.57 318.56 213.79"/><g class="cls-10"><polygon class="cls-31" points="318.56 213.79 293.54 213.79 289.66 194.57 322.44 194.57 318.56 213.79"/></g><g class="cls-1"><polygon class="cls-19" points="318.56 213.79 317.29 213.8 319.01 197.82 289.66 194.57 322.44 194.57 318.56 213.79"/></g><path class="cls-19" d="M322.78,195.06h-33.45c-1.01,0-1.88-.71-2.08-1.7l-1.07-5.3c-.11-.53,.3-1.02,.83-1.02h38.08c.54,0,.94,.49,.83,1.02l-1.07,5.3c-.2,.99-1.07,1.7-2.08,1.7Z"/></g><rect class="cls-27" x="63.77" y="213.79" width="269.51" height="2.32"/></g></g></g></g></svg>