<?xml version="1.0" encoding="UTF-8"?><svg id="_レイヤー_2" xmlns="http://www.w3.org/2000/svg" width="244.74" height="296.59" viewBox="0 0 244.74 296.59"><defs><style>.cls-1,.cls-2,.cls-3,.cls-4,.cls-5,.cls-6,.cls-7,.cls-8,.cls-9,.cls-10{fill:none;}.cls-1,.cls-3,.cls-11{stroke-miterlimit:10;}.cls-1,.cls-5{stroke:#b1b1b1;}.cls-2,.cls-3{stroke:#f9de98;}.cls-2,.cls-4,.cls-5,.cls-6,.cls-7,.cls-9,.cls-10{stroke-linecap:round;stroke-linejoin:round;}.cls-2,.cls-4,.cls-6,.cls-7,.cls-10{stroke-width:2px;}.cls-12{fill:#f9b862;}.cls-4{stroke:#95c0e7;}.cls-13{fill:#fff;font-family:Europa-Bold, Europa-Bold;font-size:32.8px;}.cls-6{stroke:#e36576;}.cls-14{fill:#e36576;}.cls-15{fill:#0364ca ;}.cls-16{fill:#95c0e7;}.cls-7{stroke:#6d6c6c;}.cls-17{fill:#b1b1b1;}.cls-9{stroke:#f9b862;}.cls-10{stroke:#0364ca ;}.cls-18{fill:#f9de98;}.cls-19{fill:#fffff9;}.cls-11{fill:#fddc2d;stroke:#fddc2d;}</style></defs><g id="_レイヤー_9"><g><path class="cls-19" d="M148.31,168.6c0,2.21,1.8,4,4,4s4-1.79,4-4-1.79-4-4-4-4,1.79-4,4Zm72.26,111.44c1.69,.79,6.03,2.57,9.53,.68,3.41-1.84,4.29-6.21,4.77-9.2,1.6-9.97,2.01-25.01,2.07-35.67,.05-5.43,0-9.72-.03-11.64l-.1-.68c.64-.1,1.29-.19,1.93-.29l.14,.94c-.08,19.15-.17,38.3-.25,57.45-17.41,7.24-51.8,18.68-94.98,13.78-25.18-2.85-45.35-10.35-59.25-16.91-.08-1.53-.15-3.07-.21-4.64-.49-11.84-.5-24.64,.21-38.25,.14-2.67,.3-5.31,.49-7.91l-.7-.05c-9.02-1.19-15.79-2.08-24.81-3.27,.7-4.31,1.39-8.62,2.09-12.93,3.05-18.84,6.1-37.68,9.14-56.52,.47-4.25,1.92-10.91,7.15-15.32,3.27-2.75,6.64-3.23,11.24-4.6,8-2.38,16-4.76,24-7.15l1.99-1.72c8.47,6.63,19.02,14.89,27.49,21.52,3.06-4.43,9.05-14.07,9.19-14.28-3.95-3.18-7.47-6.35-10.92-9.53,4.02,3.3,8.07,6.61,12.59,10.17,.12,.1,1.22-.65,2.94-1.93l.23,.32c-1.4,1.04-2.8,2.07-4.2,3.11,3.75,3.92,7.49,7.83,11.24,11.75l.6-.42c.13,.14,.27,.28,.4,.42,9.43-6.57,18.86-13.14,28.29-19.71,10.16,3,20.3,5.99,30.45,8.99,1.83,1.7,4.14,4.21,6.13,7.66,2.14,3.71,3.07,7.05,3.58,9.19,1.52,6.47,5.43,28.52,10.22,59.15-14.26,2.24-28.53,4.49-42.79,6.74,.13,3.23,.26,6.46,.4,9.68,1-.15,1.99-.3,2.99-.45l.07,.45c.06,3.37,.12,6.73,.18,10.1l-.36,.85c-11.63-5.02-23.26-10.02-34.88-15.03,2.96-6.23,3.06-8.04,3.06-8.85,0-1.46-.3-5.42-4.77-9.88-1.21-3.57-2.52-8.71-2.72-14.98-.18-5.53,.55-10.19,1.36-13.61-1-.13-4.29-.42-6.81,1.7-.89,.75-1.9,1.98-2.72,5.11-.64,2.43-1.44,7.04,0,13.27-12.26-8.28-24.51-16.57-36.77-24.85-1.3-1.1-2.89-1.56-4.08-1.02-2.23,1-1.74,4.87-1.7,5.11,.4,2.9,2.63,4.78,3.4,5.44,4.02,3.45,10.85,9.94,19.95,18.6l-1.33,1.39c-1.87-1.67-4.65-1.91-6.7-.58-2.41,1.56-3.22,4.88-1.71,7.49-2.47,2.64-3.57,5.27-4.08,6.81-.62,1.85-1.86,5.58-.34,9.19,.99,2.35,2.76,3.69,3.74,4.42,7.83,5.78,23.01,14.77,24.51,15.66,3.72,2.04,7.44,4.09,11.15,6.13l-.34,.72c2.56,1.22,6.31,3,10.75,5.11,.52,.24,1.03,.49,1.55,.74,.79,.37,1.6,.76,2.43,1.15,.77,.37,1.54,.73,2.31,1.1,.46,.22,.94,.45,1.42,.68l2.16,1.02c5.27,2.51,10.92,5.19,16.43,7.81l3.78,1.8c6.66,3.17,12.92,6.14,17.81,8.47Z"/><path class="cls-6" d="M40.83,68.85c.69-1.67,1.56-3.25,2.59-4.71"/><path class="cls-6" d="M48.9,58.47c4.16-3.12,9.32-4.96,14.91-4.96,13.74,0,24.88,11.14,24.88,24.88s-11.14,24.88-24.88,24.88-24.88-11.14-24.88-24.88c0-1.79,.19-3.53,.55-5.21"/><path class="cls-11" d="M54.71,42.1c-5.43,1.67-6.35,3.02-7.48,11.02-1.13-8-2.05-9.35-7.48-11.02,5.43-1.67,6.35-3.02,7.48-11.02,1.13,8,2.05,9.35,7.48,11.02Z"/><path class="cls-11" d="M40.36,27.75c-5.43,1.67-6.35,3.02-7.48,11.02-1.13-8-2.05-9.35-7.48-11.02,5.43-1.67,6.35-3.02,7.48-11.02,1.13,8,2.05,9.35,7.48,11.02Z"/><circle class="cls-12" cx="63.81" cy="78.39" r="20.6"/><text class="cls-13" transform="translate(52.74 90.38) scale(1.38 1)"><tspan x="0" y="0">P</tspan></text><path class="cls-10" d="M7.83,144.52v-34.03c0-3.77,3.05-6.83,6.82-6.83h24.14c3.77,0,6.82,3.06,6.82,6.83v47.29c0,3.77-3.05,6.82-6.82,6.82h-4.88"/><path class="cls-15" d="M33.46,164.74c-.97-.35-1.87-.29-2.19-.26l-.77-.51c.52-2.04,1.03-4.08,1.54-6.13,.07,.09,.12,.34,.22,.27,0-.03-1.44-3.58-3.8-4.35-1.98-.65-4.09,.84-5.1,1.53-2.6,1.77-6.08,3.86-10.97,6.44l-1.29-1.67c.23-2.05,.45-4.09,.68-6.13,1.61,.02,3.97,0,6.81-.34,3.79-.45,6.04-.71,8.51-2.05,2.93-1.58,6.59-4.91,5.79-7.14-.16-.43-.72-1.5-3.41-2.05-7.49,.68-14.97,1.35-22.46,2.02v-34.03c0-3.77,3.05-6.83,6.82-6.83h24.14c3.77,0,6.82,3.06,6.82,6.83v47.29c0,3.77-3.05,6.82-6.82,6.82h-4.52v.29Z"/><path class="cls-18" d="M32.08,164.63c.32-.03,1.22-.09,2.19,.26,.37,.14,.76,.34,1.13,.63,1.55,1.26,2.07,3.65,1.15,5.88-.36,.18-.71,.36-1.07,.54l.43,.86c1.69,.77,2.82,1.74,3.58,2.55,5.04,5.45,2.41,14.16,2.17,14.94-2.77,1.79-5.54,3.57-8.3,5.36l-1.13,.25c2.51,2.91,3.52,2.58,4.96,4.86,.28,.44,3.19,5.2,1.15,10.34-.16,.42-.35,.81-.56,1.17l.81,.36c3.36,2.61,6.72,5.22,10.09,7.83,2.86,1.88,5.72,3.75,8.58,5.63l1.12-1.71c9.02,1.19,15.79,2.08,24.81,3.27l.7,.05c-.19,2.6-.35,5.24-.49,7.91-.71,13.61-.7,26.41-.21,38.25-3.94,3.8-9.53,5.15-14.43,3.45-5.59-1.93-7.81-6.97-8.17-7.83-14.98-17.25-29.96-34.49-44.93-51.74-5.11-14.19-10.22-28.37-15.32-42.56-.12-1.47-.23-2.95-.34-4.42,.22-7.49,.45-14.98,.68-22.47,1.02-1.13,2.04-2.27,3.06-3.4,1.36-.12,2.73-.25,4.09-.37,7.49-.67,14.97-1.34,22.46-2.02,2.69,.55,3.25,1.62,3.41,2.05,.8,2.23-2.86,5.56-5.79,7.14-2.47,1.34-4.72,1.6-8.51,2.05-2.84,.33-5.2,.36-6.81,.34-.23,2.04-.45,4.08-.68,6.13l1.29,1.67c4.89-2.58,8.37-4.67,10.97-6.44,1.01-.69,3.12-2.18,5.1-1.53,2.36,.77,3.8,4.32,3.8,4.35-.1,.07-.15-.18-.22-.27-.51,2.05-1.02,4.09-1.54,6.13l.77,.51Z"/><path class="cls-5" d="M92.06,174.84c-2.31,11.46-4.36,24.08-5.83,37.71"/><path class="cls-8" d="M86,214.79c-8.18-1.11-16.35-2.23-24.53-3.34"/><path class="cls-9" d="M30.19,164.89c-4.91,1.79-9.82,3.58-14.73,5.36"/><path class="cls-2" d="M14.2,161.88c4.54-2.58,7.77-4.67,10.19-6.44,.94-.69,2.9-2.18,4.74-1.53,4.24,1.5,3.98,9.48-.06,11.03"/><path class="cls-9" d="M7.76,164.63c1.96-.98,3.75-1.89,5.37-2.75"/><path class="cls-9" d="M33.34,172.8c-6,3.23-12.01,6.47-18,9.7"/><path class="cls-8" d="M36.91,172.8c1.69,.77,2.82,1.74,3.58,2.55,5.04,5.45,2.41,14.16,2.17,14.94-2.77,1.79-5.54,3.57-8.3,5.36"/><path class="cls-2" d="M33.23,195.9c2.51,2.91,3.52,2.58,4.96,4.86,.28,.44,3.19,5.2,1.15,10.34-.16,.42-.35,.81-.56,1.17-.07,.12-.13,.24-.2,.35"/><path class="cls-9" d="M38.58,212.62c-1.42,2.34-3.45,3.59-4.35,4.1"/><path class="cls-9" d="M33.34,185.82c-.96,.26-3.1,.97-3.71,2.68-.74,2.08,1.18,4.44,3.07,6.77,.18,.22,.36,.43,.53,.63"/><path class="cls-8" d="M39.59,212.63c3.36,2.61,6.72,5.22,10.09,7.83,2.86,1.88,5.72,3.75,8.58,5.63,3.73,2.45,7.47,4.9,11.2,7.35"/><path class="cls-8" d="M12.91,160.21c.23-2.05,.45-4.09,.68-6.13,1.61,.02,3.97,0,6.81-.34,3.79-.45,6.04-.71,8.51-2.05,2.93-1.58,6.59-4.91,5.79-7.14-.16-.43-.72-1.5-3.41-2.05-7.49,.68-14.97,1.35-22.46,2.02-1.36,.12-2.73,.25-4.09,.37-1.02,1.13-2.04,2.27-3.06,3.4-.23,7.49-.46,14.98-.68,22.47,.11,1.47,.22,2.95,.34,4.42,5.1,14.19,10.21,28.37,15.32,42.56,14.97,17.25,29.95,34.49,44.93,51.74,.36,.86,2.58,5.9,8.17,7.83,4.9,1.7,10.49,.35,14.43-3.45"/><path class="cls-17" d="M136.1,20.44c.05,.09,.09,.17,.14,.25l.31,2.03c-.29,.04-.58,.08-.87,.13-2.36,.38-4.69,.98-7.11,1.87-3.21,1.18-5.72,2.55-7.4,3.57l-.51,1.53c-1.46,4.94-2.91,9.89-4.36,14.82l-1.77-.52c-.68-7.15-1.36-14.3-2.04-21.45,.43-2.87,1.65-7.93,5.61-12.25,2.68-2.92,6.27-5.13,14.3-7.15,.82-.21,1.75-.44,2.79-.68,.06-.01,.12-.03,.19-.04l.49,2.2c-.33,.79-2.14,5.32-1.29,10.81,.34,2.23,1.01,3.87,1.52,4.88Z"/><path class="cls-17" d="M151.77,22.66c-5.88-.44-10.65-.59-15.22,.06l-.31-2.03c-.05-.08-.09-.16-.14-.25-.51-1.01-1.18-2.65-1.52-4.88-.85-5.49,.96-10.02,1.29-10.81l-.49-2.2c3.8-.87,9-1.83,15.26-2.01l.07,2.05c-.75,1.54-2.66,6.02-1.56,11.57,.54,2.73,1.63,4.8,2.51,6.16,.09,.12,.17,.25,.25,.37l-.14,1.97Z"/><path class="cls-17" d="M190.74,57.54c.12-1.92,.25-3.84,.38-5.76-2.38-8.51-4.76-17.02-7.15-25.53,0,0-11.51-1.35-15.91-1.92-5.78-.76-11-1.27-15.56-1.62-.25-.02-.49-.04-.73-.05l.14-1.97c-.08-.12-.16-.25-.25-.37-.88-1.36-1.97-3.43-2.51-6.16-1.1-5.55,.81-10.03,1.56-11.57l-.07-2.05c.21-.01,.42-.02,.63-.02,4.81-.11,10.23,.25,16.11,1.45,1.75,.35,3.54,.78,5.36,1.3,8.15,2.3,14.08,4.06,18.38,9.7,3.58,4.68,4.27,9.71,5.11,15.83,.72,5.24,1.18,13.42-1.02,23.49l.64,2.87c-2.33,.61-4.49,2.25-4.73,2.41l-.38-.03Z"/><path class="cls-16" d="M244.74,222.33c-2,.3-4,.61-6,.91-.64,.1-1.29,.19-1.93,.29-11,1.67-22,3.33-32.99,4.99-1,.15-1.99,.3-2.99,.45-.14-3.22-.27-6.45-.4-9.68,14.26-2.25,28.53-4.5,42.79-6.74,.5,3.17,1.01,6.43,1.52,9.78Z"/><path class="cls-18" d="M202.76,271.57l-3.78-1.8c1.27,.61,2.53,1.21,3.78,1.8Z"/><path class="cls-16" d="M192.84,127.56c-9.43,6.57-18.86,13.14-28.29,19.71-.13-.14-.27-.28-.4-.42l27.99-19.5c.23,.07,.47,.14,.7,.21Z"/><path class="cls-16" d="M192.14,127.35c-3.94-3.94-7.88-7.88-11.82-11.82,.19-.15,.38-.29,.57-.43l12.25,12.25-.3,.21c-.23-.07-.47-.14-.7-.21Z"/><path class="cls-16" d="M192.14,127.35l-27.99,19.5c-3.62-3.78-7.22-7.55-10.84-11.33,9.01-6.66,18.01-13.33,27.01-19.99,3.94,3.94,7.88,7.88,11.82,11.82Z"/><path class="cls-18" d="M190.74,57.54l.38,.03c.24-.16,2.4-1.8,4.73-2.41,1.18-.31,2.4-.35,3.44,.19,1.88,.99,2.48,3.02,3.07,5.11,2.05,7.34-.96,13.78-2.05,16-1.43,2.95-2.97,6.12-5.61,6.3-1.91,.12-4.68-2.05-5.45-2.9,.06-.83,.11-1.66,.17-2.49,.37-5.65,.75-11.29,1.13-16.94,.06-.96,.13-1.93,.19-2.89Z"/><path class="cls-18" d="M182.55,261.96l-2.16-1.02c.71,.33,1.43,.67,2.16,1.02Z"/><path class="cls-18" d="M178.97,260.26c-.77-.37-1.54-.73-2.31-1.1,.76,.36,1.53,.73,2.31,1.1Z"/><path class="cls-18" d="M174.23,258.01c-.52-.25-1.03-.5-1.55-.74,.51,.24,1.02,.49,1.55,.74Z"/><path class="cls-18" d="M171.67,115.6c-.15,.04-.29,.08-.44,.11,.15-.04,.3-.08,.44-.11Z"/><path class="cls-18" d="M171.23,115.71c-3.87,.99-8.47,1.2-14.38,1.06,8.04,.14,11.85-.47,14.38-1.06Z"/><path class="cls-18" d="M152.22,58.31c1.85,0,7.89,22.39,5.19,23.59-2.71,1.19-10.2,2.94-11.49-.39-1.3-3.33,4.45-23.2,6.3-23.2Z"/><circle class="cls-17" cx="152.31" cy="168.6" r="4"/><path class="cls-14" d="M138.87,94.84c10.21,.12,20.42,.23,30.64,.34-.75,.9-6.05,7.06-14.98,7.15-9.43,.1-15.01-6.66-15.66-7.49Z"/><path class="cls-18" d="M125.59,106.78c1.77,2.14,4.71,5.09,9.05,7.24-1.47-.64-2.88-1.45-4.28-2.5-1.97-1.47-3.53-3.11-4.77-4.74Z"/><path class="cls-18" d="M154.53,102.33c8.93-.09,14.23-6.25,14.98-7.15-10.22-.11-20.43-.22-30.64-.34,.65,.83,6.23,7.59,15.66,7.49Zm2.32,14.44c5.91,.14,10.51-.07,14.38-1.06,.15-.03,.29-.07,.44-.11-.14,.03-.29,.07-.44,.11-2.53,.59-6.34,1.2-14.38,1.06Zm-31.26-9.99c1.24,1.63,2.8,3.27,4.77,4.74,1.4,1.05,2.81,1.86,4.28,2.5-4.34-2.15-7.28-5.1-9.05-7.24ZM183.97,26.25c2.39,8.51,4.77,17.02,7.15,25.53-.13,1.92-.26,3.84-.38,5.76-.06,.96-.13,1.93-.19,2.89-.38,5.65-.76,11.29-1.13,16.94-.06,.83-.11,1.66-.17,2.49-.4,5.96-.79,11.92-1.19,17.88-.66,3.54-2.75,8.93-8,13.44-1.1,.95-2.14,1.94-1.54,1.69,.3,.53,.79,1.15,1.08,1.68,.04,.08,.02,.17-.05,.21-6.83,4.48-17.99,13.4-23.27,17.33-1.72,1.28-2.82,2.03-2.94,1.93-4.52-3.56-8.57-6.87-12.59-10.17-4.58-4.22-9.02-8.44-14.18-12.65-.13-1.81-1.75-5.45-1.74-5.45h-.01s-.02-.04-.02-.05c-.25-.41-2.16-3.58-2.97-5.11l-.15-.3c-3.89-7.79-4.2-15.04-4.09-18.89,0-.13-.02-.26-.02-.39-.02-.37-.04-.73-.06-1.09-.27-4.46-.54-8.91-.8-13.37-.18-2.92-.35-5.84-.53-8.76-.05-.98-.11-1.95-.17-2.93-.15-2.56-.31-5.12-.46-7.68,.25-.85,.5-1.69,.75-2.54,1.45-4.93,2.9-9.88,4.36-14.82l.51-1.53c1.68-1.02,4.19-2.39,7.4-3.57,2.42-.89,4.75-1.49,7.11-1.87,.29-.05,.58-.09,.87-.13,4.57-.65,9.34-.5,15.22-.06,.24,.01,.48,.03,.73,.05,4.56,.35,9.78,.86,15.56,1.62,4.4,.57,15.91,1.92,15.91,1.92Zm-26.56,55.65c2.7-1.2-3.34-23.59-5.19-23.59s-7.6,19.87-6.3,23.2c1.29,3.33,8.78,1.58,11.49,.39Z"/><path class="cls-16" d="M126.57,111.2c5.16,4.21,9.6,8.43,14.18,12.65-4.61-3.77-9.16-7.52-14.31-11.57-.07-.06-.06-.15-.01-.22,.14-.17,.17-.47,.14-.86Z"/><path class="cls-16" d="M126.43,112.06c-.05,.07-.06,.16,.01,.22,5.15,4.05,9.7,7.8,14.31,11.57,3.45,3.18,6.97,6.35,10.92,9.53-.14,.21-6.13,9.85-9.19,14.28-8.47-6.63-19.02-14.89-27.49-21.52-.89-.69,7.7-10.97,10.6-15.74,.33,.27,.66,.53,.98,.8,.03,.39,0,.69-.14,.86Z"/><path class="cls-18" d="M204.07,239.07c-.06-3.37-.12-6.73-.18-10.1l-.07-.45c10.99-1.66,21.99-3.32,32.99-4.99l.1,.68c.03,1.92,.08,6.21,.03,11.64-.06,10.66-.47,25.7-2.07,35.67-.48,2.99-1.36,7.36-4.77,9.2-3.5,1.89-7.84,.11-9.53-.68-4.89-2.33-11.15-5.3-17.81-8.47-1.25-.59-2.51-1.19-3.78-1.8-5.51-2.62-11.16-5.3-16.43-7.81-.73-.35-1.45-.69-2.16-1.02-.48-.23-.96-.46-1.42-.68-.78-.37-1.55-.74-2.31-1.1-.83-.39-1.64-.78-2.43-1.15-.53-.25-1.04-.5-1.55-.74-4.44-2.11-10.41-5.83-10.41-5.83-3.71-2.04-7.43-4.09-11.15-6.13-1.5-.89-16.68-9.88-24.51-15.66-.98-.73-2.75-2.07-3.74-4.42-1.52-3.61-.28-7.34,.34-9.19,.51-1.54,1.61-4.17,4.08-6.81-1.51-2.61-.7-5.93,1.71-7.49,2.05-1.33,4.83-1.09,6.7,.58l1.33-1.39c-9.1-8.66-15.93-15.15-19.95-18.6-.77-.66-3-2.54-3.4-5.44-.04-.24-.53-4.11,1.7-5.11,1.19-.54,2.78-.08,4.08,1.02,12.26,8.28,24.51,16.57,36.77,24.85-1.44-6.23-.64-10.84,0-13.27,.82-3.13,1.83-4.36,2.72-5.11,2.52-2.12,5.81-1.83,6.81-1.7-.81,3.42-1.54,8.08-1.36,13.61,.2,6.27,1.51,11.41,2.72,14.98,4.47,4.46,4.77,8.42,4.77,9.88,0,.81-.1,2.62-3.06,8.85,11.62,5.01,23.25,10.01,34.88,15.03l.36-.85Z"/><path class="cls-18" d="M116.74,81.06c-1.45-.34-3.06,1.52-5.02,0-5.18-4.03-8.49-18.68-4.72-23.49,2.24-2.87,6.07-2.56,7.91-2.64l1.1-.07c.06,.98,.12,1.95,.17,2.93,.18,2.92,.35,5.84,.53,8.76,.26,4.46,.53,8.91,.8,13.37,.02,.36,.04,.72,.06,1.09l-.83,.05Z"/><path class="cls-3" d="M189.42,77.37c.37-5.65,.75-11.29,1.13-16.94"/><path class="cls-3" d="M140.75,123.85c4.02,3.3,8.07,6.61,12.59,10.17,.12,.1,1.22-.65,2.94-1.93,5.28-3.93,16.44-12.85,23.27-17.33,.07-.04,.09-.13,.05-.21-.29-.53-.78-1.15-1.08-1.68-.6,.25,.44-.74,1.54-1.69,5.25-4.51,7.34-9.9,8-13.44"/><path class="cls-3" d="M124.82,105.74h.01s1.61,3.65,1.74,5.46"/><path class="cls-3" d="M121.83,100.59c.81,1.53,2.72,4.7,2.97,5.11"/><path class="cls-3" d="M183.97,26.25s-11.51-1.35-15.91-1.92c-5.78-.76-11-1.27-15.56-1.62-.25-.02-.49-.04-.73-.05-5.88-.44-10.65-.59-15.22,.06-.29,.04-.58,.08-.87,.13-2.36,.38-4.69,.98-7.11,1.87-3.21,1.18-5.72,2.55-7.4,3.57l-.51,1.53"/><path class="cls-4" d="M114.99,126.14c8.47,6.63,19.02,14.89,27.49,21.52,3.06-4.43,9.05-14.07,9.19-14.28-3.95-3.18-7.47-6.35-10.92-9.53-4.58-4.22-9.02-8.44-14.18-12.65-.32-.27-.65-.53-.98-.8-2.9,4.77-11.49,15.05-10.6,15.74Z"/><path class="cls-4" d="M192.14,127.35l-27.99,19.5-.6,.42c-3.75-3.92-7.49-7.83-11.24-11.75,1.4-1.04,2.8-2.07,4.2-3.11,7.8-5.76,15.59-11.54,23.38-17.31l.43,.43c3.94,3.94,7.88,7.88,11.82,11.82Z"/><path class="cls-5" d="M145.03,148.22c-.42,8.72-.84,17.43-1.26,26.16"/><path class="cls-5" d="M200.24,214.8c-.31-7.71-.63-15.41-.95-23.11-.2-4.38,.01-10.67,2.05-17.87,2.74-9.71,7.54-16.56,10.72-20.42"/><path class="cls-8" d="M192.14,127.35c.23,.07,.47,.14,.7,.21,10.16,3,20.3,5.99,30.45,8.99,1.83,1.7,4.14,4.21,6.13,7.66,2.14,3.71,3.07,7.05,3.58,9.19,1.52,6.47,5.43,28.52,10.22,59.15,.5,3.17,1.01,6.43,1.52,9.78-2,.3-4,.61-6,.91-.64,.1-1.29,.19-1.93,.29-11,1.67-22,3.33-32.99,4.99-1,.15-1.99,.3-2.99,.45-.14-3.22-.27-6.45-.4-9.68-.06-1.5-.12-3-.19-4.49"/><path class="cls-8" d="M113,127.86c-8,2.39-16,4.77-24,7.15-4.6,1.37-7.97,1.85-11.24,4.6-5.23,4.41-6.68,11.07-7.15,15.32-3.04,18.84-6.09,37.68-9.14,56.52-.7,4.31-1.39,8.62-2.09,12.93,9.02,1.19,15.79,2.08,24.81,3.27"/><path class="cls-8" d="M86.24,212.55c-.08,.74-.16,1.49-.24,2.24-.43,4.21-.81,8.51-1.11,12.91-.19,2.6-.35,5.24-.49,7.91-.71,13.61-.7,26.41-.21,38.25,.06,1.57,.13,3.11,.21,4.64,13.9,6.56,34.07,14.06,59.25,16.91,43.18,4.9,77.57-6.54,94.98-13.78,.08-19.15,.17-38.3,.25-57.45"/><path class="cls-9" d="M164.06,233.74c1.12-1.85,2.57-4.39,4.11-7.51"/><path class="cls-9" d="M206.02,241.33c4.02,1.88,7.83,4.25,11.3,7.03"/><path class="cls-3" d="M190.55,60.43c.06-.96,.13-1.93,.19-2.89,.12-1.92,.25-3.84,.38-5.76"/><path class="cls-3" d="M175.39,114.24c1.66-.78,2.75-1.45,4.23-2.72,5.25-4.51,7.78-10.24,8.44-13.78,.4-5.96,.79-11.92,1.19-17.88,.06-.83,.11-1.66,.17-2.49"/><path class="cls-9" d="M130.36,111.52c1.4,1.05,2.81,1.86,4.28,2.5,.05,.03,.11,.05,.16,.07,4.6,1.95,9.86,2.22,17.51,2.54,.95,.04,1.88,.07,2.77,.1,.6,.02,1.19,.04,1.77,.04,5.91,.14,10.51-.07,14.38-1.06,.15-.03,.29-.07,.44-.11,.14-.03,.28-.07,.41-.11"/><path class="cls-3" d="M117.51,79.92c.02,.36,.04,.72,.06,1.09,0,.13,.01,.26,.02,.39-.11,3.85,.2,11.1,4.09,18.89l.15,.3c.7,1.4,1.62,3.21,2.97,5.11,0,.01,.01,.03,.02,.04"/><path class="cls-3" d="M115.55,47.18c.15,2.56,.31,5.12,.46,7.68"/><path class="cls-3" d="M120.66,29.82c-1.46,4.94-2.91,9.89-4.36,14.82-.25,.85-.5,1.69-.75,2.54"/><path class="cls-3" d="M183.97,26.25c2.39,8.51,4.77,17.02,7.15,25.53"/><path class="cls-1" d="M114.53,44.12c-.68-7.15-1.36-14.3-2.04-21.45,.43-2.87,1.65-7.93,5.61-12.25,2.68-2.92,6.27-5.13,14.3-7.15,.82-.21,1.75-.44,2.79-.68,.06-.01,.12-.03,.19-.04,3.8-.87,9-1.83,15.26-2.01,.21-.01,.42-.02,.63-.02,4.81-.11,10.23,.25,16.11,1.45,1.75,.35,3.54,.78,5.36,1.3,8.15,2.3,14.08,4.06,18.38,9.7,3.58,4.68,4.27,9.71,5.11,15.83,.72,5.24,1.18,13.42-1.02,23.49"/><path class="cls-7" d="M136.24,20.69c-.05-.08-.09-.16-.14-.25-.51-1.01-1.18-2.65-1.52-4.88-.85-5.49,.96-10.02,1.29-10.81"/><path class="cls-7" d="M151.91,20.69c-.08-.12-.16-.25-.25-.37-.88-1.36-1.97-3.43-2.51-6.16-1.1-5.55,.81-10.03,1.56-11.57"/><path class="cls-7" d="M168.14,22.28c-1.05-1.39-2.61-3.86-3.06-7.18-.63-4.67,1.33-8.27,2.3-9.78"/><path class="cls-6" d="M138.87,94.84c10.21,.12,20.42,.23,30.64,.34-.75,.9-6.05,7.06-14.98,7.15-9.43,.1-15.01-6.66-15.66-7.49Z"/><path class="cls-7" d="M166.78,37.31c3.63,.23,7.27,.46,10.9,.68"/><path class="cls-7" d="M166.1,40.69c3.86,.25,7.72,.49,11.58,.74"/><path class="cls-7" d="M141.59,36.97c-3.06,.23-6.13,.46-9.19,.68"/><path class="cls-7" d="M141.25,41.01c-3.97,.34-7.94,.68-11.91,1.03"/><path class="cls-7" d="M165.82,54.86c.83-.51,4.89-2.88,9.7-1.53,2.17,.61,3.7,1.75,4.59,2.55"/><path class="cls-7" d="M143.2,54.86c-.83-.51-4.89-2.88-9.7-1.53-2.17,.61-3.71,1.75-4.6,2.55"/><path class="cls-7" d="M152.22,58.31c-1.85,0-7.6,19.87-6.3,23.2,1.29,3.33,8.78,1.58,11.49,.39,2.7-1.2-3.34-23.59-5.19-23.59Z"/><path class="cls-9" d="M189.5,77.37c.32-4.79,.64-9.59,.96-14.38"/><path class="cls-9" d="M116.18,59.44c.17,2.37,.35,4.74,.53,7.11,.27,3.61,.53,7.21,.8,10.82"/><path class="cls-16" d="M61.47,211.45c8.18,1.11,16.35,2.23,24.53,3.34-.43,4.21-.81,8.51-1.11,12.91l-.7-.05c-9.02-1.19-15.79-2.08-24.81-3.27,.7-4.31,1.39-8.62,2.09-12.93Z"/></g></g></svg>