<?xml version="1.0" encoding="UTF-8"?><svg id="_レイヤー_2" xmlns="http://www.w3.org/2000/svg" width="260.77" height="355.46" viewBox="0 0 260.77 355.46"><defs><style>.cls-1{fill:#727272;}.cls-2{stroke-miterlimit:10;}.cls-2,.cls-3{stroke:#b1b1b1;}.cls-2,.cls-3,.cls-4,.cls-5,.cls-6,.cls-7,.cls-8{fill:none;}.cls-9{fill:#f9b862;}.cls-3,.cls-4,.cls-5,.cls-6{stroke-width:2px;}.cls-3,.cls-4,.cls-5,.cls-6,.cls-7,.cls-8{stroke-linecap:round;stroke-linejoin:round;}.cls-4{stroke:#e36576;}.cls-5,.cls-8{stroke:#f9b862;}.cls-10{fill:#cecdcc;}.cls-11{fill:#0364ca ;}.cls-12{fill:#95c0e7;}.cls-6,.cls-7{stroke:#6d6c6c;}.cls-13{fill:#b1b1b1;}.cls-14{fill:#fffff9;}.cls-15{fill:#f4e9e1;}.cls-16{fill:#6d6c6c;}</style></defs><g id="_レイヤー_7"><g><g><path class="cls-9" d="M217.55,253.65c-5.35,8.03-10.69,16.05-16.02,24.08-1.35,2.02-2.69,4.04-4.03,6.06h-.01c-1.02,1.54-2.05,3.08-3.07,4.62-2.67,4.02-5.35,8.05-8.03,12.07-6.06-3.91-12.11-7.83-18.17-11.74l-.92-1.17c6.19-4.89,12.39-9.77,18.58-14.66l1.03-1.02c1.52-2.04,3.05-4.09,4.58-6.13l.18-.12c.05,.08,.1,.15,.15,.23,1.17,1.74,2.35,3.49,3.52,5.23l21.21-17.49c.51-.42,1.02-.84,1.52-1.25,.25-.2,.49-.41,.74-.61-.42,.63-.85,1.27-1.26,1.9Z"/><path class="cls-10" d="M226.73,283.63c11.34,23.95,22.69,47.89,34.04,71.83h-.68c-11.35-23.94-22.7-47.88-34.04-71.83h.68Z"/><path class="cls-14" d="M226.31,245.39l.09,.1c-.36,.3-.73,.6-1.09,.9-2.16,1.79-4.33,3.57-6.5,5.36,.09-.13,.17-.26,.26-.39,2.42-1.99,4.84-3.98,7.24-5.97Z"/><path class="cls-10" d="M226.05,283.63c-2.05,.01-4.04,.02-6,.04-7.55,.04-14.62,.07-22.55,.12,1.34-2.02,2.68-4.04,4.03-6.06,5.32-.03,10.63-.06,15.95-.09,.03-8,.05-15.99,.07-23.99,.41-.63,.84-1.27,1.26-1.9,2.17-1.79,4.34-3.57,6.5-5.36,.36-.3,.73-.6,1.09-.9l.43,.53c-.03,12.53-.07,25.07-.1,37.61h-.68Z"/><path class="cls-14" d="M216.42,216.63c3.1-2.42,6.21-4.83,9.31-7.24v.38c-3.05,2.36-6.1,4.72-9.14,7.08l-.17-.22Z"/><path class="cls-16" d="M221.62,16.74c2.06,.31,3.2,1.19,3.75,1.7,3.38,3.18,1.64,9.23,1.36,10.21-.48,1.65-1.16,2.92-1.7,3.75l-3.41-15.66Z"/><path class="cls-10" d="M221.96,288.74c5.22,11.01,10.45,22.01,15.66,33.02h-.68c-5.22-11.01-10.44-22.01-15.66-33.02h.68Z"/><path class="cls-1" d="M217.55,253.65c-.02,8-.04,15.99-.07,23.99-5.32,.03-10.63,.06-15.95,.09,5.33-8.03,10.67-16.05,16.02-24.08Z"/><path class="cls-13" d="M216.39,184.1c3.12,5.97,6.24,11.93,9.37,17.9h0c-.01,2.47-.02,4.94-.03,7.39-3.1,2.41-6.21,4.82-9.31,7.24l-.12-.15c.03-10.79,.06-21.59,.09-32.38Z"/><path class="cls-14" d="M216.59,216.85c-3.96,3.07-7.94,6.14-11.9,9.22l-.16-.2,.69-.54c3.73-2.9,7.47-5.81,11.2-8.7l.17,.22Z"/><path class="cls-13" d="M194.12,96.63c.13,.45,.26,.9,.38,1.35-.05,.09-.09,.18-.14,.27l-1.85-1c-.97-2.3-2.02-5.41-2.55-9.19-.38-2.7-.39-5.11-.28-7.09,.79-.5,1.57-1.03,2.32-1.59,8.39-6.29,12-14.51,12.95-16.74,.37-.88,.65-1.63,.84-2.16,.49,.61,2.41,2.84,4.6,2.56,3.4-.44,4.41-6.58,4.59-7.66,.23-1.4,.95-5.75-.8-7.62l1.65-.04c1.8-2.34,3.83-3.07,5.72-11.81,.03-.18,.26-1.28,.46-2.27h.06c.58,2.93,1.35,7.6,1.59,13.4,.36,8.55-.81,10.96,0,17.36,.96,7.59,2.98,7.22,4.77,15.66,.45,2.15,2.14,10.78,.34,21.79-1.26,7.67-3.79,13.88-6.13,18.38l-1.17,.47c-9.07-8.61-18.17-17.2-27.24-25.81,.07,.25,.14,.49,.21,.74,.15,.54,.31,1.08,.46,1.62-.01,.03-.03,.05-.04,.08-.25-.23-.49-.47-.74-.7Z"/><path class="cls-1" d="M216.42,216.63c-3.73,2.89-7.47,5.8-11.2,8.7l-.69,.54-.14-.18c.27-.22,.55-.43,.82-.64l-.96-1.22c-3.16-1.92-6.31-3.85-9.47-5.76l.05-.08c-.05-6.43,.67-16.52,5.11-27.83,3.05-7.77,6.93-13.77,10.2-18.02,2.09,3.99,4.17,7.97,6.25,11.96-.03,10.79-.06,21.59-.09,32.38l.12,.15Z"/><path class="cls-9" d="M203.74,224.85l.65,.84c-8.78,6.79-17.55,13.59-26.33,20.39,.65,.96,1.29,1.91,1.92,2.87-2.85,1.01-5.72,2.01-8.57,3.02,.08,.11,.17,.23,.26,.34l-2.3,1.71c-1.52,1.06-3.74,2.32-6.64,3.06-1.57,.4-3.08,.58-4.5,.6-4.32-.05-7.69-1.46-9.12-2.13-.02,.08-.03,.17-.05,.28-.24-.1-.45-.2-.63-.28-.14,.72-.42,2.64,.64,4.47,.28,.48,1.02,1.58,3.32,2.68,2.64,1.26,5.3,1.55,7.41,1.5,.53,.01,1.03,0,1.5-.03-6.03,2.79-12.07,5.58-18.1,8.39-8.38-5.41-16.75-10.83-25.12-16.24-6.85-4.43-13.69-8.85-20.54-13.28,8.69-13.39,17.39-26.77,26.1-40.15l-.25-.16c4.32-6.65,8.65-13.32,12.98-19.97,19.25,11.73,38.51,23.46,57.77,35.18v.69l-.17,.28c3.26,1.97,6.51,3.96,9.77,5.94Z"/><path class="cls-10" d="M199.01,288.83c1.6-.01,3.19-.02,4.79-.02-1.57,0-3.16,0-4.79,.02Z"/><path class="cls-15" d="M194.88,98.54c-1.81,3.33-3.62,6.65-5.43,9.98l-.35-.19c1.59-2.93,3.19-5.86,4.78-8.79,.21-.4,.43-.79,.65-1.19l.35,.19Z"/><path class="cls-14" d="M194.14,217.69c.03-6.53,.89-16.34,5.19-27.26,3.19-8.1,7.26-14.3,10.63-18.63,.06,.11,.12,.23,.18,.34-3.27,4.25-7.15,10.25-10.2,18.02-4.44,11.31-5.16,21.4-5.11,27.83l-.05,.08-.3-.18c-.11-.07-.23-.14-.34-.2Z"/><path class="cls-14" d="M194.5,97.98c-.12-.45-.25-.9-.38-1.35,.25,.23,.49,.47,.74,.7-.12,.22-.24,.43-.36,.65Z"/><path class="cls-14" d="M194.66,218.26c-.17-.11-.35-.21-.52-.32v-.25c.11,.06,.23,.13,.34,.2l.3,.18-.12,.19Z"/><path class="cls-9" d="M203.74,224.85c-3.26-1.98-6.51-3.97-9.77-5.94l.17-.28v-.69c.17,.11,.35,.21,.52,.32l.12-.19c3.16,1.91,6.31,3.84,9.47,5.76l.96,1.22c-.27,.21-.55,.42-.82,.64l-.65-.84Z"/><path class="cls-15" d="M193.88,99.54c-1.59,2.93-3.19,5.86-4.78,8.79l-.18-.09c1.76-3.24,3.52-6.46,5.28-9.7,.05-.1,.1-.19,.16-.29l.17,.1c-.22,.4-.44,.79-.65,1.19Z"/><path class="cls-12" d="M157.85,165.34c10.31-18.94,20.61-37.88,30.92-56.82,.05-.09,.1-.19,.15-.28l.18,.09c-.22,.4-.43,.79-.65,1.19-10.21,18.75-20.41,37.52-30.62,56.27,.01-.15,.01-.3,.02-.45Z"/><path class="cls-12" d="M186.57,271.43c-.12,.15-.24,.31-.35,.46-4.78-6.42-9.55-12.83-14.31-19.25l.44-.33c4.73,6.38,9.46,12.74,14.22,19.12Z"/><path class="cls-16" d="M185.58,50.16c2.28,0,4.12,1.85,4.12,4.12s-1.84,4.13-4.12,4.13-4.13-1.85-4.13-4.13,1.85-4.12,4.13-4.12Z"/><path class="cls-13" d="M185.54,41.93c-10.23-.2-17.97-7.06-20.77-9.53-2.39-2.11-7.12-6.29-9.33-11.19l-.43,.24-.55-.97c-.86-2.18-1.2-4.49-.58-6.8,.82-3.1,3.07-5.25,4.98-6.62l-2.12-1.52c.71-.32,1.41-.64,2.09-.93,5.76-2.53,10.68-4.23,17.17-4.55,3.26-.17,5.64,.08,8.17,.34,4.82,.49,13.16,1.43,22.13,6.13,5.43,2.84,10.39,5.43,13.45,10.34,.44,.7,.83,1.45,1.19,2.25,2.29,5.16,1.7,10.07,1.36,12.94-.02,.19-.15,.85-.29,1.58-.2,.99-.43,2.09-.46,2.27-1.89,8.74-3.92,9.47-5.72,11.81l-1.65,.04c-.21-.22-.45-.41-.73-.55-1.94-.99-5.32,.32-7.66,3.57l-1.53-1.36c-1.85-2.36-4.84-5.33-9.19-6.81-1.04-.35-1.98-.55-2.86-.66-2.32-.31-4.26,.03-6.67-.02Z"/><path class="cls-14" d="M181.66,248.31c3.73,5.52,7.45,11.04,11.16,16.56l-1.15,.77c-3.66-5.44-7.33-10.89-11.01-16.33-.06-.1-.13-.19-.2-.29,.1-.04,.21-.07,.31-.11l.89-.6Z"/><path class="cls-14" d="M190.81,265.76l-8.57-13.46-2.03-3.19c.08-.03,.17-.06,.25-.09,.07,.1,.14,.19,.2,.29,3.68,5.44,7.35,10.89,11.01,16.33l-.18,.12c-1.53,2.04-3.06,4.09-4.58,6.13-.11-.15-.23-.31-.34-.46,1.41-1.89,2.82-3.78,4.24-5.67Z"/><path class="cls-12" d="M180.21,249.11l2.03,3.19c-.65-.98-1.32-1.96-1.98-2.94-.05-.08-.1-.15-.15-.22,.03-.01,.07-.02,.1-.03Z"/><path class="cls-12" d="M180.26,249.36c.66,.98,1.33,1.96,1.98,2.94l8.57,13.46c-1.42,1.89-2.83,3.78-4.24,5.67-4.76-6.38-9.49-12.74-14.22-19.12-.09-.11-.18-.23-.26-.34,2.67-.94,5.35-1.88,8.02-2.83,.05,.07,.1,.14,.15,.22Z"/><path class="cls-12" d="M180.09,248.91l.12,.2s-.07,.02-.1,.03c-.04-.06-.08-.13-.13-.19,.04-.01,.07-.03,.11-.04Z"/><path class="cls-15" d="M169.95,86.39h.48c6.38,0,12.9-1.64,18.55-5,.24-.13,.47-.28,.7-.42-.11,1.98-.1,4.39,.28,7.09,.53,3.78,1.58,6.89,2.55,9.19l1.85,1c-.06,.1-.11,.19-.16,.29-1.76,3.24-3.52,6.46-5.28,9.7l-.49-.27c-1.13,1.51-8.08,10.48-17.35,10.22h-.01c-1.49-.05-4.16-.18-6.64-2.05-3.67-2.77-4.05-7.09-4.08-8.37,.63-.46,1.32-1.06,1.97-1.79,.01,0,.01-.01,.02-.02,1.21-1.08,2.44-2.6,3.11-4.63,.54-1.66,.56-3.2,.31-4.87-.17-1.18-.48-2.42-.82-3.81-.78-3.14-1.92-5.59-2.78-7.22,2.51,.59,5.14,.92,7.79,.96Z"/><path class="cls-12" d="M172.09,251.97c.08,.11,.17,.23,.26,.34l-.44,.33-.24-.33c-.09-.11-.18-.23-.26-.34,2.85-1.01,5.72-2.01,8.57-3.02,.05,.06,.09,.13,.13,.19-2.67,.95-5.35,1.89-8.02,2.83Z"/><path class="cls-12" d="M188.77,108.52c-10.31,18.94-20.61,37.88-30.92,56.82,.78-18.14,1.56-36.26,2.35-54.4,.51,1.69,1.54,3.68,3.55,5.2,2.47,1.87,5.15,2,6.64,2.05,.23,.01,.46,.01,.68,0h.01c9.27,.26,16.22-8.71,17.35-10.22l.49,.27c-.05,.09-.1,.19-.15,.28Z"/><path class="cls-9" d="M161.45,264.1s-.1,.05-.15,.07c-.47,.03-.97,.04-1.5,.03,.6-.01,1.15-.05,1.65-.1Z"/><path class="cls-15" d="M160.34,107.46c.56-.35,1.27-.84,1.98-1.48-.65,.73-1.34,1.33-1.97,1.79,0-.06,0-.11,0-.16v-.15Z"/><path class="cls-10" d="M155.92,327.55c1.59,7.03,3.18,14.07,4.77,21.1-19.97,.23-39.95,.45-59.92,.67,1.02-7.26,2.04-14.51,3.06-21.77h52.09Z"/><path class="cls-10" d="M160.64,289.59s.06,.01,.1,.02c-.03,0-.07-.01-.1-.02Z"/><path class="cls-12" d="M163.75,116.14c-2.01-1.52-3.04-3.51-3.55-5.2,.04-1.05,.09-2.11,.13-3.16,.01,0,.02,0,.02-.01,.03,1.28,.41,5.6,4.08,8.37,2.48,1.87,5.15,2,6.64,2.05-.22,.01-.45,.01-.68,0-1.49-.05-4.17-.18-6.64-2.05Z"/><path class="cls-12" d="M160.33,107.78s.01-.11,.01-.17c0,.05,0,.1,0,.16,0,.01,0,.01-.02,.01Z"/><path class="cls-14" d="M159.69,108.24c-.02-.29-.03-.52-.03-.66v-.12c1.45-.89,3.8-2.7,4.94-5.67-.04,.18-.09,.36-.15,.54-.48,1.47-1.26,2.67-2.11,3.63-.01,.01-.01,.02-.02,.02-.71,.64-1.42,1.13-1.98,1.48v.15c0,.06-.01,.12-.01,.17-.22,.17-.44,.32-.64,.46Z"/><path class="cls-14" d="M159.66,107.58c0,.14,.01,.37,.03,.66-.02,.01-.04,.03-.06,.04,.01-.23,.02-.47,.03-.7Z"/><path class="cls-10" d="M159.35,289.05s-.09-.08-.13-.12c.04,.05,.08,.09,.13,.12Z"/><path class="cls-10" d="M161.18,289.65c-1.36,.08-2.37-.26-2.79-.91l.36-.14,.21-.08c.03,.08,.06,.15,.11,.22,.04,.07,.09,.13,.15,.19,.04,.04,.08,.09,.13,.12,.11,.1,.24,.19,.39,.26,.07,.04,.14,.07,.22,.1,.2,.08,.43,.14,.68,.18,.03,.01,.07,.02,.1,.02,.14,.02,.29,.03,.44,.04Z"/><path class="cls-10" d="M158.39,288.74c.42,.65,1.43,.99,2.79,.91,.9,.05,2-.11,3.23-.53,.22-.07,.44-.15,.67-.25,.45-.18,.92-.39,1.39-.64,.28-.22,.55-.44,.83-.66l.92,1.17c6.06,3.91,12.11,7.83,18.17,11.74,2.68-4.02,5.36-8.05,8.03-12.07l.65,.43h.64c1.1-.01,2.2-.01,3.3-.01,1.63-.01,3.22-.01,4.79-.02,5.83-.02,11.66-.05,17.48-.07,5.22,11.01,10.44,22.01,15.66,33.02-70.81,.23-141.62,.45-212.43,.68,5-11.01,9.99-22.01,14.98-33.02,40.57-.15,77.1-.3,117.62-.46h.68l.6-.22Z"/><path class="cls-9" d="M158.23,257.68c-4.09,.08-7.41-1.08-9.17-1.85,.02-.11,.03-.2,.05-.28,1.43,.67,4.8,2.08,9.12,2.13Z"/><path class="cls-12" d="M189.45,108.52c-10.56,19.39-21.1,38.79-31.66,58.18,.01-.3,.03-.61,.04-.91,10.21-18.75,20.41-37.52,30.62-56.27,.22-.4,.43-.79,.65-1.19l.35,.19Z"/><path class="cls-10" d="M158.75,288.6l-.36,.14-.6,.22h-.68c-40.52,.16-77.05,.31-117.62,.46h-.68c-4.99,11.01-9.98,22.01-14.98,33.02h.68c70.81-.23,141.62-.45,212.43-.68h.68c-5.21-11.01-10.44-22.01-15.66-33.02h-.68c-5.82,.02-11.65,.05-17.48,.07-1.6,0-3.19,0-4.79,.02-1.1,0-2.2,0-3.3,.01h-.64l-.65-.43c1.02-1.54,2.05-3.08,3.07-4.62h.01c7.93-.05,15-.08,22.55-.12,1.96-.02,3.95-.03,6-.04,11.34,23.95,22.69,47.89,34.04,71.83-86.69-.11-173.39-.22-260.09-.34,11.25-23.49,22.47-46.98,33.71-70.47h.36c1.63,0,3.25-.02,4.87-.03,37.78-.19,74.11-.39,111.94-.59,.16,.01,.34,.01,.53,0,1.04-.01,2.08-.01,3.13-.02,0,.29,.04,.61,.19,.9,.58,1.16,2.61,1.74,4.72,.77-.2,.43-.91,1.84-.49,2.84l-.21,.08Zm2.62,60.05c-1.59-7.03-3.18-14.07-4.77-21.1h-53.45c-1.02,7.26-2.04,14.52-3.06,21.78,.23,0,.45,0,.68-.01h0c20.2-.21,40.4-.44,60.6-.67Z"/><path class="cls-16" d="M156.22,42.91c2.28,0,4.12,1.84,4.12,4.12s-1.84,4.13-4.12,4.13-4.13-1.85-4.13-4.13,1.85-4.12,4.13-4.12Z"/><path class="cls-10" d="M156.6,327.55c1.59,7.03,3.18,14.07,4.77,21.1-20.2,.23-40.4,.46-60.6,.68h0c19.97-.23,39.95-.45,59.92-.68-1.59-7.03-3.18-14.07-4.77-21.1h.68Z"/><path class="cls-15" d="M156.22,51.16c2.28,0,4.12-1.85,4.12-4.13s-1.84-4.12-4.12-4.12-4.13,1.84-4.13,4.12,1.85,4.13,4.13,4.13Zm29.36,7.25c2.28,0,4.12-1.85,4.12-4.13s-1.84-4.12-4.12-4.12-4.13,1.85-4.13,4.12,1.85,4.13,4.13,4.13Zm-30.14-37.2c2.21,4.9,6.94,9.08,9.33,11.19,2.8,2.47,10.54,9.33,20.77,9.53,2.41,.05,4.35-.29,6.67,.02,.88,.11,1.82,.31,2.86,.66,4.35,1.48,7.34,4.45,9.19,6.81l1.53,1.36c2.34-3.25,5.72-4.56,7.66-3.57,.28,.14,.52,.33,.73,.55,1.75,1.87,1.03,6.22,.8,7.62-.18,1.08-1.19,7.22-4.59,7.66-2.19,.28-4.11-1.95-4.6-2.56-.19,.53-.47,1.28-.84,2.16-.95,2.23-4.56,10.45-12.95,16.74-.75,.56-1.53,1.09-2.32,1.59-.23,.14-.46,.29-.7,.42-5.65,3.36-12.17,5-18.55,5h-.48c-2.65-.04-5.28-.37-7.79-.96-12.41-2.94-22.38-12.66-21.22-28.52,.32-4.37,1.13-8.53,2.22-12.41,.02-.06,.03-.12,.05-.18,2.64-9.17,6.95-16.81,10.5-22.13l1.3-.74,.43-.24Z"/><path class="cls-15" d="M159.45,285.68c-2.11,.97-4.14,.39-4.72-.77-.15-.29-.19-.61-.19-.9,.01-.55,.21-1.05,.31-1.27-1.15,.82-2.37,1.23-3.44,1.29h-.53c-1.04-.04-1.9-.41-2.41-1.04-.72-.88-.75-2.29-.38-3.31,.76-2.12,3.37-3.11,3.32-3.2-.02-.02-.19,.05-.88,.42-.72,.32-1.78,.72-3.14,.96,0,0-.62,.11-1.22,.16-.67,.06-1.69,.07-2.72-.01-1.73-.14-3.51-.56-3.79-1.53-.08-.27-.2-1.14,1.79-2.8,.68-.31,1.35-.63,2.03-.94,6.21-2.89,12.44-5.76,18.65-8.64-.26,.03-.54,.05-.83,.07,.05-.02,.1-.05,.15-.07-.5,.05-1.05,.09-1.65,.1-1.99-.02-4.37-.37-6.73-1.5-2.3-1.1-3.04-2.2-3.32-2.68-.94-1.63-.83-3.33-.69-4.19,1.76,.77,5.08,1.93,9.17,1.85,1.61,.03,3.35-.14,5.18-.6,2.9-.74,5.12-2,6.64-3.06l1.86-1.38c4.76,6.42,9.53,12.83,14.31,19.25,.11-.15,.23-.31,.35-.46,.11,.15,.23,.31,.34,.46l-1.03,1.02c-6.19,4.89-12.39,9.77-18.58,14.66-.28,.22-.55,.44-.83,.66-.47,.25-.94,.46-1.39,.64-.23,.09-.45,.17-.67,.25-1.23,.42-2.33,.58-3.23,.53-.15,0-.3-.02-.44-.04-.04-.01-.07-.01-.1-.02-.25-.04-.48-.1-.68-.18-.08-.03-.15-.06-.22-.1-.15-.07-.28-.16-.39-.26-.05-.03-.09-.07-.13-.12-.06-.06-.11-.12-.15-.19-.05-.07-.08-.14-.11-.22-.42-1,.29-2.41,.49-2.84Z"/><path class="cls-13" d="M143.21,44.32c-.02,.06-.03,.12-.05,.18l-.62-.17h-.01c-1.55-1.72-5.55-6.57-6.36-13.97-.2-1.92-.89-8.23,2.73-13.96,2.4-3.82,6.82-5.84,15.67-9.87,.74-.34,1.46-.67,2.17-.99l2.12,1.52c-1.91,1.37-4.16,3.52-4.98,6.62-.62,2.31-.28,4.62,.58,6.8l.55,.97-1.3,.74c-3.55,5.32-7.86,12.96-10.5,22.13Z"/><path class="cls-9" d="M140.79,273.67c-7.53-4.86-15.06-9.71-22.58-14.57,0-1.02-.05-1.94-.14-2.76v-.02c8.38,5.41,16.75,10.83,25.13,16.24-.13,.06-.27,.12-.4,.18l-2.01,.93Z"/><path class="cls-11" d="M139.66,276.48c.28,.97,2.06,1.39,3.79,1.53-11.01,.06-21.58,.12-31.99,.18v-1.07c1.86-2.31,4.19-5.78,5.57-10.26,.9-2.92,1.18-5.56,1.18-7.76,7.52,4.86,15.05,9.71,22.58,14.57l2.01-.93c.13-.06,.27-.12,.4-.18,.09,.06,.19,.12,.28,.18-.68,.31-1.35,.63-2.03,.94-1.99,1.66-1.87,2.53-1.79,2.8Z"/><path class="cls-14" d="M122.46,201.58c4.26-6.55,8.54-13.12,12.81-19.67,19.62,11.93,39.24,23.85,58.87,35.78v.25c-19.26-11.72-38.52-23.45-57.77-35.18-4.33,6.65-8.66,13.32-12.98,19.97l-.82-.54c-.04-.2-.07-.41-.11-.61Z"/><path class="cls-14" d="M123.39,202.73c-.25,.39-.5,.77-.75,1.16l-1.08-.7-.03-.18c.31-.48,.62-.95,.93-1.43,.04,.2,.07,.41,.11,.61l.82,.54Z"/><path class="cls-9" d="M123.64,202.89c-8.71,13.38-17.41,26.76-26.1,40.15,6.85,4.43,13.69,8.85,20.54,13.28v.02c.08,.82,.13,1.74,.13,2.76-.84-.54-1.69-1.09-2.53-1.63-6.96-4.49-13.9-8.97-20.86-13.46,8.82-13.57,17.66-27.13,26.51-40.69,.07-.1,.13-.21,.2-.31l.03,.18,1.08,.7c.25-.39,.5-.77,.75-1.16l.25,.16Z"/><path class="cls-1" d="M119.01,187.46c.82,5.66,1.7,10.93,2.52,15.55-.07,.1-.13,.21-.2,.31-8.85,13.56-17.69,27.12-26.51,40.69,6.96,4.49,13.9,8.97,20.86,13.46,.84,.54,1.69,1.09,2.53,1.63,0,2.2-.28,4.84-1.18,7.76-1.38,4.48-3.71,7.95-5.58,10.26v1.07c-22.61,.12-44.5,.25-68.53,.38-.21-38.38-.41-76.77-.62-115.15,4.62,.02,9.23,.04,13.85,.05,.05,.33,.1,.66,.16,1,.28,1.74,.59,3.5,.91,5.27,3.65,20,8.93,37.32,14.29,51.57,1.71,.34,3.41,.68,5.11,1.02,2.04-.85,4.09-1.7,6.13-2.55,12.09-10.77,24.18-21.55,36.26-32.32Z"/><path class="cls-14" d="M159.66,107.56v.02c-.01,.23-.02,.47-.03,.7-.1,.06-.2,.12-.29,.18v.1c-.85,19.72-1.7,39.42-2.55,59.14,.35-.64,.69-1.27,1.04-1.91-.01,.3-.03,.61-.04,.91,10.56-19.39,21.1-38.79,31.66-58.18,1.81-3.33,3.62-6.65,5.43-9.98l-.35-.19s.03-.07,.05-.1c-.03-.09-.05-.18-.08-.27,.12-.22,.24-.43,.36-.65,8.78,8.35,17.59,16.69,26.37,25.04,.14,.13,.27,.26,.41,.39,1.87,3.06,3.75,6.13,5.62,9.19,10.3,26.56,20.59,53.11,30.89,79.66,.43,2.21,.85,4.43,1.28,6.64-11.01,9.08-22.01,18.16-33.03,27.24l-.09-.1c-2.4,1.99-4.82,3.98-7.24,5.97-.09,.13-.17,.26-.26,.39-.25,.2-.49,.41-.74,.61-.5,.41-1.01,.83-1.52,1.25l-21.21,17.49c-1.17-1.74-2.35-3.49-3.52-5.23-.05-.08-.1-.15-.15-.23l1.15-.77c-3.71-5.52-7.43-11.04-11.16-16.56l-.89,.6c-.1,.04-.21,.07-.31,.11-.65-.98-1.31-1.96-1.97-2.94,8.68-6.74,17.36-13.48,26.04-20.21l.16,.2c3.96-3.08,7.94-6.15,11.9-9.22,3.04-2.36,6.09-4.72,9.14-7.08v-.38c.07-.05,.13-.1,.2-.15,.95-.74,1.91-1.48,2.86-2.22l-.09-.18c-.81-1.56-1.63-3.11-2.44-4.67-.1-.19-.2-.39-.3-.58h0c-3.08-5.9-6.15-11.78-9.22-17.67-2.11-4.05-4.22-8.09-6.33-12.14l-.27,.36c-.06-.11-.12-.23-.18-.34-3.37,4.33-7.44,10.53-10.63,18.63-4.3,10.92-5.16,20.73-5.19,27.26-19.63-11.93-39.25-23.85-58.87-35.78-4.27,6.55-8.55,13.12-12.81,19.67-.81-4.52-1.66-9.64-2.45-15.12-12.08,10.77-24.17,21.55-36.26,32.32-2.04,.85-4.09,1.7-6.13,2.55-1.7-.34-3.4-.68-5.11-1.02-5.36-14.25-10.64-31.57-14.29-51.57-.31-1.77-.63-3.53-.91-5.27-.34-2.06-.65-4.1-.94-6.11l-.45,.06h-.68c-1.44-10.23-2.24-19.79-2.62-28.53,.43-.03,.85-.05,1.28-.07h0c6.68-.4,13.35-.79,20.03-1.18,1.58-.09,3.15-.19,4.73-.28,.15,7.72,1.01,17.32,3.58,28.08,.25,1.04,.5,2.06,.77,3.07,.55,2.09,1.14,4.11,1.75,6.06,1.52,4.8,3.2,9.16,4.92,13.08l.64-.28,1.11-.48c.13-.24,.25-.49,.38-.73l.62-.27c2.22-4.26,4.35-8.36,6.38-12.27,1.07-2.07,2.12-4.08,3.13-6.04h-.47c9.86-19,16.92-32.67,19.58-38.39,.11-.24,.25-.56,.44-.94,.85-1.69,2.54-4.56,5.68-6.72,4.17-2.88,8.64-2.98,10.22-3.07,5.65-.3,14.28-2.53,27.37-11,.22,1.49,.23,2.87-.16,4.33-1.14,2.97-3.49,4.78-4.94,5.67v.1Z"/><path class="cls-10" d="M103.83,327.55c-1.02,7.26-2.04,14.51-3.06,21.77-.23,.01-.45,.01-.68,.01,1.02-7.26,2.04-14.52,3.06-21.78h.68Z"/><path class="cls-14" d="M101.47,157.58h.47c-1.01,1.96-2.06,3.97-3.13,6.04h-.48c.89-1.72,1.76-3.4,2.61-5.04h.01c.17-.33,.35-.67,.52-1Z"/><path class="cls-10" d="M101.26,157.58h.21c-.17,.33-.35,.67-.52,1h-.01c-.85,1.64-1.72,3.32-2.61,5.04-4.2-.02-8.38-.03-12.57-.05-.61-1.95-1.19-3.97-1.75-6.06,5.75,.02,11.5,.05,17.25,.07Z"/><path class="cls-14" d="M92.43,175.89l-.62,.27c2.08-4,4.09-7.85,6-11.54,.17-.34,.35-.67,.52-1h.48c-2.03,3.91-4.16,8.01-6.38,12.27Z"/><path class="cls-14" d="M97.81,164.62c-1.91,3.69-3.92,7.54-6,11.54l-1.13,.49c-1.72-3.92-3.4-8.28-4.92-13.08,4.19,.02,8.37,.03,12.57,.05-.17,.33-.35,.66-.52,1Z"/><path class="cls-10" d="M38.94,284.62c-1.62,.01-3.24,.02-4.87,.03l-.02-2.72c-.34-41.53-.68-83.06-1.03-124.6,7.41,.03,14.82,.06,22.22,.09,.04,.31,.08,.63,.13,.94,.24,1.68,.5,3.39,.78,5.11-4.62-.01-9.23-.03-13.85-.05,.21,38.38,.41,76.77,.62,115.15,24.03-.13,45.92-.26,68.54-.38,10.41-.06,20.98-.12,31.99-.18,1.03,.08,2.05,.07,2.72,.01,.6-.05,1.22-.16,1.22-.16,1.36-.24,2.42-.64,3.14-.96,.69-.37,.86-.44,.88-.42,.05,.09-2.56,1.08-3.32,3.2-.37,1.02-.34,2.43,.38,3.31,.51,.63,1.37,1,2.41,1.04-37.83,.2-74.16,.4-111.94,.59Z"/><path class="cls-12" d="M75.25,121.59c-.12,1.68-.22,3.33-.32,5.01-.23,.01-.45,.03-.68,.04,.1-1.68,.2-3.33,.32-5.01,.22-.01,.45-.02,.68-.04Z"/><path class="cls-12" d="M74.93,126.6v.04c-.23,0-.45,.03-.68,.04v-.04c.23-.01,.45-.03,.68-.04Z"/><path class="cls-12" d="M74.25,126.64v.04c-6.45,.38-12.9,.75-19.34,1.13v-.04c6.45-.38,12.89-.75,19.34-1.13Z"/><path class="cls-14" d="M120.01,186.46c.79,5.48,1.64,10.6,2.45,15.12-.31,.48-.62,.95-.93,1.43-.82-4.62-1.7-9.89-2.52-15.55-12.08,10.77-24.17,21.55-36.26,32.32-2.04,.85-4.09,1.7-6.13,2.55-1.7-.34-3.4-.68-5.11-1.02-5.36-14.25-10.64-31.57-14.29-51.57-.32-1.77-.63-3.53-.91-5.27-.06-.34-.11-.67-.16-1h1.16c.28,1.74,.6,3.5,.91,5.27,3.65,20,8.93,37.32,14.29,51.57,1.71,.34,3.41,.68,5.11,1.02,2.04-.85,4.09-1.7,6.13-2.55,12.09-10.77,24.18-21.55,36.26-32.32Z"/><path class="cls-14" d="M55.92,157.42l.45-.06c.29,2.01,.6,4.05,.94,6.11h-1.16c-.28-1.72-.54-3.43-.78-5.11-.05-.31-.09-.63-.13-.94h.68Z"/><path class="cls-15" d="M73.99,121.67c-12.76,.85-19.01,1.25-19.33,1.25h-.19v-.02c1.72-.1,7.88-.5,18.84-1.23,.22-.01,.45-.02,.68-.04v.04Z"/><path class="cls-12" d="M54.66,122.92c.32,0,6.57-.4,19.33-1.25,.19-.01,.38-.02,.58-.04-.12,1.68-.22,3.33-.32,5.01-6.45,.38-12.89,.75-19.34,1.13l-.1-1.41c-.23-1.14-.45-2.27-.68-3.41,.01-.02,.12-.03,.34-.03h.19Z"/><path class="cls-15" d="M51.02,90.29s.02-.14-.07-.3c.42,.26,.69,.37,.75,.3,.4-.41-5.19-6.14-16.77-17.2-.43-1.42,.11-2.91,1.29-3.69,.52-.34,1.06-.49,1.55-.52,.54,.05,.93,.19,.99,.21,5.7,5.94,12.57,11.24,18.27,17.18-.48-.74-.98-1.47-1.5-2.19,.74,.72,1.47,1.45,2.18,2.19-3.66-5.63-8.48-10.62-12.14-16.26-.85-1.3-.57-3.01,.65-3.99,.5-.41,1.12-.65,1.75-.71,.63,.06,1.25,.3,1.76,.71,5.04,6.7,11.19,13.68,16.23,20.38,3.67,4.87,6.22,9.46,9.89,14.34,.09-.15,.2-.32,.31-.49,.12,.16,.25,.33,.37,.49,1.27-2.08,4.33-6.35,9.35-7.38,.44-.09,1.27-.25,2.15-.29,.03,0,.05,0,.08,0,1.12-.05,2.31,.12,2.93,.91,.96,1.2,.08,3.2,0,3.38-1.23,2.71-4.24,2.52-6.77,4.91-1.14,1.08-2.48,2.97-2.9,6.46-1.45,4.19-1.62,4.6-1.62,4.6-.73,1.85-2.25,4.37-5.8,7.07l.04,1.23c-.23,.02-.46,.03-.68,.04-10.96,.73-17.12,1.13-18.84,1.23l-.03-1.31c-2.25-3.59-4.58-8.25-6.05-13.94-.42-1.64-.74-3.22-.96-4.72-2.93-2.17-16.49-12.31-17.54-15.21-.13-.37-.46-1.26,0-1.85,.27-.35,.74-.48,1.21-.51,.23,.01,.42,.04,.53,.05,10.62,7.36,16.6,10.82,17.96,10.37h0c.42,.08,.71,.04,.85-.11,.2-.22,.12-.68-.24-1.38-4.01-2.56-19.08-12.33-19.35-15.67-.04-.48-.14-1.7,.6-2.19,.19-.13,.46-.22,.75-.26,.28,.04,.54,.14,.75,.3,.14,.11,17.47,14.43,18.06,13.82Z"/><path class="cls-15" d="M50.41,66.02c5.04,6.7,11.19,13.68,16.23,20.38,3.55,4.71,6.05,9.15,9.52,13.85-.11,.17-.22,.34-.31,.49-3.67-4.88-6.22-9.47-9.89-14.34-5.04-6.7-11.19-13.68-16.23-20.38-.51-.41-1.13-.65-1.76-.71,.85-.09,1.74,.15,2.44,.71Z"/><path class="cls-10" d="M39.49,289.42c-4.99,11.01-9.98,22.01-14.98,33.02h-.68c5-11.01,9.99-22.01,14.98-33.02h.68Z"/><path class="cls-15" d="M39.44,69.09c4.99,5.2,10.87,9.91,16.08,14.98h.01c.52,.73,1.02,1.46,1.5,2.2-5.7-5.94-12.57-11.24-18.27-17.18-.06-.02-.45-.16-.99-.21,.88-.08,1.59,.18,1.67,.21Z"/><path class="cls-15" d="M33.64,76.47c.12,.1,13.89,11.48,17.31,13.52,.09,.16,.11,.26,.07,.3-.59,.61-17.92-13.71-18.06-13.82-.21-.16-.47-.26-.75-.3,.12-.02,.24-.03,.36-.03,.38,0,.78,.1,1.07,.33Z"/><path class="cls-15" d="M49.59,95.78c-1.36,.45-7.34-3.01-17.96-10.37-.11-.01-.3-.04-.53-.05,.51-.05,1.01,.02,1.21,.05,9.36,6.49,15.12,9.94,17.28,10.37Z"/></g><g><path class="cls-3" d="M220.05,283.68c-6.22,.03-12,.06-18.52,.1"/><path class="cls-3" d="M142.6,283.88c-.94,.01-1.88,.01-2.83,.02h-.47c-33.91,.18-66.5,.36-100.36,.53"/><path class="cls-3" d="M100.77,349.32c-.23,.01-.45,.01-.68,.01,1.02-7.26,2.04-14.52,3.06-21.78h52.77c1.59,7.03,3.18,14.07,4.77,21.1-19.97,.23-39.95,.45-59.92,.67Z"/><path class="cls-3" d="M24.51,322.44h-.68c5-11.01,9.99-22.01,14.98-33.02h.68"/><path class="cls-5" d="M75.65,100.88c-.69,.16-1.99,.56-3.19,1.66-2.01,1.83-2.26,4.25-2.3,4.85"/><path class="cls-5" d="M55.24,100.95c1.22,.96,2.84,2.48,4.21,4.73,.7,1.14,1.19,2.24,1.53,3.19"/><path class="cls-2" d="M221.96,288.74c5.22,11.01,10.45,22.01,15.66,33.02h-.68c-70.81,.23-141.62,.45-212.43,.68,5-11.01,9.99-22.01,14.98-33.02,40.57-.15,77.1-.3,117.62-.46h.68"/><path class="cls-8" d="M165.24,86.11c1.55,.19,3.12,.28,4.71,.28h.48c5.09-.1,10.24-1.24,14.95-3.45"/><path class="cls-3" d="M129.79,136.82c-4.31,15.77-7.06,24.01-8.93,28.6-.5,1.21-1.81,4.33-2.29,8.68-.43,3.67-.06,6.49,.24,8.68,.17,1.24,.35,2.47,.52,3.68,.01,.03,.01,.07,.02,.1"/><path class="cls-3" d="M171.06,172.59c7.34,.69,14.7,1.38,22.04,2.07"/><path class="cls-6" d="M173.96,209.59c1.87,1.19,3.75,2.38,5.62,3.57"/><path class="cls-6" d="M159.66,6.53c-.25,.16-.52,.34-.8,.53-1.91,1.37-4.16,3.52-4.98,6.62-.62,2.31-.28,4.62,.58,6.8"/><path class="cls-6" d="M166.13,9.59c-.69,2.01-1.46,5.22-.68,8.85,.59,2.75,2.12,6,9.53,12.26,2.81,2.36,6.59,5.28,11.4,8.26"/><path class="cls-7" d="M221.55,35.91c-1.89,8.74-3.92,9.47-5.72,11.81"/><path class="cls-6" d="M182.13,1.76c4.16,3.42,9.99,9.04,14.98,17.36,4.12,6.88,6.29,13.31,7.49,18.04"/><path class="cls-6" d="M167.66,48.57c-1.64,3.46-3.29,6.92-4.93,10.38,1.19,1.19,2.38,2.38,3.57,3.58"/><path class="cls-4" d="M158.47,68.14c.42,.8,1.97,3.48,5.28,4.77,4.7,1.84,8.9-.73,9.36-1.02"/></g></g></g></svg>