<?xml version="1.0" encoding="utf-8"?>
<!-- Generator: Adobe Illustrator 26.3.1, SVG Export Plug-In . SVG Version: 6.00 Build 0)  -->
<svg version="1.1" id="レイヤー_1" xmlns="http://www.w3.org/2000/svg" xmlns:xlink="http://www.w3.org/1999/xlink" x="0px"
	 y="0px" viewBox="0 0 131.2 150" style="enable-background:new 0 0 131.2 150;" xml:space="preserve">
<style type="text/css">
	.st0{fill:#0364ca;}
	.st1{display:none;fill:#FFFFFF;}
</style>
<g id="XMLID_00000172436766052190781970000013570375639681587328_">
	<path class="st0" d="M129.9,69.2c0,11.5-4.5,21.9-13.8,32.1c-13.5,15.5-43.7,34.4-50.5,37.3c-6.9,2.9-5.8-1.9-5.6-3.5
		c1.7-10.1,2.6-12.9-5-14.5C24.2,116.6,1.3,95,1.3,69.2c0-28.8,28.8-52.2,64.3-52.2S129.9,40.5,129.9,69.2z M109.7,84.6v-4.5
		c0-0.7-0.6-1.3-1.3-1.3H96.2v-4.7h12.3c0.7,0,1.3-0.6,1.3-1.3v-4.5c0-0.7-0.6-1.3-1.3-1.3H96.2v-4.7h12.3c0.7,0,1.3-0.6,1.3-1.3
		v-4.5c0-0.7-0.6-1.3-1.3-1.3h-18c-0.7,0-1.3,0.6-1.3,1.3v28c0,0.7,0.6,1.3,1.3,1.3h18C109.2,85.9,109.7,85.3,109.7,84.6z
		 M84.8,84.6v-28c0-0.7-0.6-1.3-1.3-1.2H79c-0.7,0-1.3,0.6-1.3,1.3v16.6L64.9,55.9c-0.2-0.4-0.6-0.6-1-0.6h-4.5
		c-0.7,0-1.3,0.6-1.3,1.3v28c0,0.7,0.6,1.3,1.3,1.3H64c0.7,0,1.3-0.6,1.3-1.3V68l12.8,17.3c0.2,0.3,0.6,0.5,1,0.5h4.5
		C84.3,85.9,84.8,85.3,84.8,84.6z M53.8,84.6v-28c0-0.7-0.6-1.3-1.3-1.3H48c-0.7,0-1.3,0.6-1.3,1.3v28c0,0.7,0.6,1.3,1.3,1.3h4.5
		C53.2,85.9,53.8,85.3,53.8,84.6z M42.9,84.6v-4.5c0-0.7-0.6-1.3-1.2-1.3H29.4V56.6c0-0.7-0.6-1.3-1.3-1.3h-4.5
		c-0.7,0-1.3,0.6-1.3,1.3v28c0,0.4,0.1,0.6,0.4,0.9c0.2,0.2,0.5,0.4,0.9,0.4h18C42.4,85.8,42.9,85.3,42.9,84.6z"/>
	<path class="st1" d="M109.7,80.1v4.5c0,0.7-0.6,1.3-1.3,1.3h-18c-0.7,0-1.3-0.6-1.3-1.3v-28c0-0.7,0.6-1.3,1.3-1.3h18
		c0.7,0,1.2,0.6,1.3,1.3v4.5c0,0.7-0.6,1.3-1.3,1.3H96.2v4.7h12.3c0.7,0,1.3,0.6,1.3,1.3v4.5c0,0.7-0.6,1.3-1.3,1.3H96.2v4.7h12.3
		C109.2,78.9,109.7,79.4,109.7,80.1z"/>
	<path class="st1" d="M84.8,56.6v28c0,0.7-0.6,1.3-1.3,1.3h-4.5c-0.4,0-0.8-0.2-1-0.5L65.2,68v16.6c0,0.7-0.6,1.3-1.3,1.3h-4.5
		c-0.7,0-1.3-0.6-1.3-1.3v-28c0-0.7,0.6-1.3,1.3-1.3h4.5c0.4,0,0.8,0.2,1,0.6l12.8,17.3V56.6c0-0.7,0.6-1.3,1.3-1.3h4.5
		C84.2,55.3,84.8,55.9,84.8,56.6z"/>
	<path class="st1" d="M53.8,56.6v28c0,0.7-0.6,1.3-1.3,1.3H48c-0.7,0-1.3-0.6-1.3-1.3v-28c0-0.7,0.6-1.3,1.3-1.3h4.5
		C53.2,55.3,53.8,55.9,53.8,56.6z"/>
	<path class="st1" d="M42.9,80.1v4.5c0,0.7-0.6,1.3-1.3,1.3h-18c-0.4,0-0.6-0.2-0.9-0.4c-0.2-0.2-0.4-0.5-0.4-0.9v-28
		c0-0.7,0.6-1.3,1.3-1.3h4.5c0.7,0,1.3,0.6,1.3,1.3v22.2h12.3C42.4,78.8,42.9,79.4,42.9,80.1z"/>
</g>
</svg>
