<?xml version="1.0" encoding="utf-8"?>
<!-- Generator: Adobe Illustrator 26.3.1, SVG Export Plug-In . SVG Version: 6.00 Build 0)  -->
<svg version="1.1" id="レイヤー_1" xmlns="http://www.w3.org/2000/svg" xmlns:xlink="http://www.w3.org/1999/xlink" x="0px"
	 y="0px" viewBox="0 0 100 100" style="enable-background:new 0 0 100 100;" xml:space="preserve">
<style type="text/css">
	.st0{fill:#0364ca ;}
	.st1{fill:none;stroke:#0364ca ;stroke-width:5.6693;stroke-linecap:round;stroke-miterlimit:10;}
</style>
<path class="st0" d="M88.4,69.7l-3.5,15.2c-0.5,2.1-2.4,3.6-4.6,3.6c-37.9,0-68.8-30.9-68.8-68.8c0-2.2,1.5-4.1,3.6-4.6l15.2-3.5
	c2.2-0.5,4.5,0.6,5.4,2.7l7,16.3c0.8,1.9,0.3,4.2-1.4,5.5l-8.1,6.5c5.1,10.4,13.6,18.9,24,24l6.6-8.1c1.3-1.6,3.6-2.2,5.5-1.3
	l16.3,7C87.6,65.2,88.9,67.5,88.4,69.7z"/>
<g>
	<path class="st1" d="M83.9,50.7c4.5-4.6,7.3-11,7.3-17.9c0-14.2-11.5-25.7-25.7-25.7c-6.7,0-12.8,2.6-17.3,6.7"/>
	<path class="st1" d="M54.8,20.8c2.8-2.5,6.5-4,10.6-4c8.9,0,16.1,7.2,16.1,16.1c0,4.3-1.7,8.1-4.4,11"/>
	<path class="st1" d="M77.1,43.8c2.7-2.9,4.4-6.7,4.4-11c0-8.9-7.2-16.1-16.1-16.1c-4.1,0-7.8,1.5-10.6,4"/>
	<path class="st1" d="M60.4,26.6c1.4-1.1,3.1-1.8,5-1.8c4.4,0,8,3.6,8,8c0,2-0.7,3.8-1.9,5.2"/>
</g>
</svg>
