<?xml version="1.0" encoding="UTF-8"?><svg id="_レイヤー_2" xmlns="http://www.w3.org/2000/svg" width="400" height="220" viewBox="0 0 400 220"><defs><style>.cls-1{fill:#fff;}.cls-2{fill:none;fill-rule:evenodd;stroke:#363435;stroke-linecap:round;stroke-linejoin:round;stroke-width:.93px;}</style></defs><g id="Layer_1"><g><rect class="cls-1" width="400" height="220"/><path class="cls-2" d="M371.47,158.82c-1.08,0-82.41-.86-82.41-.86,0,0,12.26-85.87,8.73-89.06-3.52-3.18-101.34-2.27-101.34-2.27,0,0-8.57,90.79-6.79,91.99,1.79,1.2,5.04,2.01,5.09,.02,.04-1.99,4.04-88.46,5.41-88.81,1.37-.34,95,.81,95,.81,0,0-7.27,4.88-5.57,4.9,1.7,.01,5.57-4.9,6.03-2.07,.46,2.83-8,84.1-10.15,84.49-2.15,.39-24.03,1.73-25.51-.26-1.48-1.99-3.11-41.73-5.58-42.87-2.48-1.14-16.54-1.98-16.88-.1-.34,1.88-.71,58.09,1.11,58.91,1.83,.81,20.86,4.52,20.79,.87,2.42-4.52,1.15-15.15-.31-9.55-.26,5.21,1.04,9.95,2.86,9.96,1.82,0,10.58,.84,10.58,.84,0,0,1.17,2.84,.47,4.06-.7,1.22-33.35,6.87-35.93,6.86-2.57,0-13.29-1.27-13.65-2.91-.36-1.64-2.55-4.09,.02-4.49,2.57-.4,6.64,2.06,14.7,1.27,8.05-.79,24.94-3.6,21.66-3.61-3.28,0-22.63,3.19-24.48-1.7-4.11-6.47-1.85-78.44-1-53.2,.39,11.62,1.65,38.34-.05,38.32-3.62-.01-38.11,.26-38.11,.26l-25.58,.7s-2.98-45.89-7.9-47.05c-4.91-1.16-10.93,1.83-10.93,1.83,0,0-3.53-10.56-.67-11.29,2.86-.73,13.12-1.78,12.36-.29-.77,1.49-.08-15.15-1.89-21.72-1.8-6.52-11.05-15.54-11.53-12.7-.49,2.86,8.11,11.58,4.67,10.83-3.44-.75-10.58-3.7-12.19,.27-1.62,3.99,10.86,5.54,7.47,3.69-3.39-1.84-10.25-3.71-9.08,.3,1.17,4.03,7.74,5.54,6.75,4.43-.99-1.11-6.07-4.06-5.57-.41,.5,3.68,2.97,3.33,5.25,6.66,2.29,3.35,6.42,20.23,6.23,24.41-.2,4.2-2.35,34.59-2.65,40.97-.3,6.43,3.99,17,9.56,16.19,5.56-.8,12.17-11.3,10.31-10.5-1.86,.8-14.11,12.94-18.31,8.03-4.18-4.88-12.37-16.56-12.65-18.16-.28-1.59,2.71-30.1,4.13-23.15,1.44,7.01-3.06,30.64-5.39,33.05-2.34,2.41-13.58,9.21-13.8,6.76-.22-2.44-.41-37.19-.29-39.13,.12-1.94,2.19-6.17,2.19-6.17,0,0-3.41-2.71-2-2.32,1.41,.39,11.29,3.14,11.35,1.98,.07-1.15-2.14-24.26-2.56-23.14-.42,1.12-6.05,23.09-10.89,20.38-4.83-2.71-12.22-19.86-12.1-26.2,.12-6.29,2.13-9.36,2.34-12.18,.21-2.81-.28-12.71,3.05-14.95,3.32-2.23,3.76,1.79,4.09,4.06,.33,2.28,2.97,2.81,3.88,.28,.9-2.52,2.05-5.27,2.77-8.77,.71-3.48,5.21,1.79,10.12-3.4,4.87-5.16,4.1-4.18,8.1-2.66,4.01,1.52,9.43,9.04,11.94,7.06,2.5-1.97,1.44-10.4-6.65-16.36-8.03-5.92-19.4-7.24-21.92-5.08-2.53,2.17,.24,3.66,.08,2.44-.16-1.22-.73-3.41-5.64-1.51-4.92,1.91-9.04,12.2-9.84,19.66-.81,7.53-.23,12.85-.02,10.06,.21-2.78,4.01-18.24,13.14-21.61,9.09-3.36,25.16,.71,27.14,4.18,2,3.48,3.01,7.47,2.86,10.72-.15,3.26-7.84,25.66-12.7,29-4.88,3.36-14.22,6.44-21.96-3.78-7.65-10.1-3.49-13.39-5.01-9.31-1.52,4.1-5.48,4.33-7.51,8.45-2.05,4.14-4.78,29.79-.86,31.15,3.92,1.37,10.22-2.36,9.84-.48-.38,1.88-1.27,3.77-1.36,5.12-.09,1.35,9.16,2.49,6.39,2.47-2.77-.01-5.33,.52-5.68,1.87-.35,1.36-4.08,40.41-1.49,40.42,2.59,0,9.94-1.68,4.97-.84-4.97,.84-15.77-7.16-15.6-9.42,.17-2.26,27.87-14.44,29.28-12.49,1.42,1.95,4.59,14.02,3.61,13.17-.98-.85-5.14-8.72-4.76-10.95,.38-2.22,13.36-6.88,17.65-6.31,4.29,.57,15.85,10.34,13.02,10.89-2.83,.55-8.34-7.55-7.67-5.61,.68,1.95,8.16,12.63,4.13,10.92-4.02-1.7-5.53-8.14-5.33-6.75,.19,1.4,3.95,9.28,1.9,8.99-2.04-.29-7.06-7.89-7.06-7.89,0,0,3.74,13.26,.84,9.28-.1-.14-.2-.28-.3-.42-2.65-3.76-3.46-6.64-3.46-6.64,0,0,26.18-10.48,27.53-5.2,1.36,5.31,4.8,9.53,2.57,7.28-2.23-2.25-1-8.66-8.96-6.47-7.99,2.2-21.19,5.52-22.7,10.02-1.52,4.53,3.91,20.31,8.2,17.43,4.27-2.87,1.31-12.02-1.94-14.01-3.25-1.99-5.65-.3-4.38,5.39,1.27,5.73,6.83,26.39,13.19,24.64,6.34-1.75,.82-13.69-1.98-15.14-2.79-1.45-6.11-2.61-4.59,4.04,1.53,6.7,7,13.46,10.5,10.82,3.49-2.63,15.53-12.78,15.38-16.53-.15-3.73-1.95-4.02-1.95-4.02,0,0,1.18,3.73-.43,5.46-1.61,1.73-18.5-3.79-18.5-3.79,0,0,58.3-15.92,60.59-14.78,2.29,1.14,18.49,4.2,16.71,6.18-1.78,1.98-54.93,12.7-54.97,14.14-.04,1.44-2.18,3.47-.08,2.6,0,0,41.46-9.39,37.61-9.68-3.85-.3,16.41-6.21,11.3-8.21-5.11-1.99-33.35-8.84-39.01-6.61-5.68,2.23-53.54,4.9-55.34,4.89-1.8,0-33.18,26.14-42.8,21.73-8.6-3.8-35.96-70.44-16.96-82.63,2.28-1.78,5.61-.91,8.84,1.26,6.37,4.28,22.5,53.33,22.5,53.33,0,0-6.28,11.33-5.69,7.06,.59-4.25,4.7-11,2.02-9.6-2.68,1.4-6.61,8.74-4.46,1.11,2.13-7.56-10.97-30.72-12.99-39.36-1.99-8.56,.75-21.56,3.84-22.85,3.09-1.29,17.59-4.19,14.71-2.13-2.89,2.06-24.54,2.96-31.44,17.69-7.03,15.01-8.02,38.67-10.81,45.95-2.82,7.35-6.19,27.97-.65,27.7,5.53-.28,23.64-5.36,16.87-5.67-6.76-.31-35.75,8.64-37.3,6-1.54-2.62-13.53-72.65-5.2-81.1,8.24-8.36,45.56-11.24,42.57-5.78-3.02,5.5-26.07-.69-31.98,16.22-6.04,17.29,5.06,66.33,1.2,68.06-3.87,1.74-18.25,5.5-18.25,5.5"/></g></g></svg>