<?xml version="1.0" encoding="utf-8"?>
<!-- Generator: Adobe Illustrator 26.5.0, SVG Export Plug-In . SVG Version: 6.00 Build 0)  -->
<svg version="1.1" id="_レイヤー_2" xmlns="http://www.w3.org/2000/svg" xmlns:xlink="http://www.w3.org/1999/xlink" x="0px"
	 y="0px" viewBox="0 0 273.1 275.5" style="enable-background:new 0 0 273.1 275.5;" xml:space="preserve">
<style type="text/css">
	.st0{fill:#fffff9;}
	.st1{fill:none;stroke:#F9B862;stroke-width:4;stroke-linecap:round;stroke-linejoin:round;}
	.st2{fill:none;stroke:#6D6C6C;stroke-width:2;stroke-linecap:round;stroke-linejoin:round;}
	.st3{fill:none;stroke:#6D6C6C;stroke-linecap:round;stroke-linejoin:round;}
	.st4{fill:#F9DE98;}
	.st5{fill:#B1B1B1;}
	.st6{fill:#95C0E7;}
	.st7{fill:#6D6C6C;}
	.st8{fill:#E36576;}
	.st9{fill:none;stroke:#F9B862;stroke-linecap:round;stroke-linejoin:round;}
	.st10{fill:none;stroke:#F9B862;stroke-miterlimit:10;}
	.st11{fill:none;}
	.st12{fill:none;stroke:#E36576;stroke-width:2;stroke-linecap:round;stroke-linejoin:round;}
	.st13{fill:none;stroke:#6D6C6C;stroke-miterlimit:10;}
</style>
<g id="_レイヤー_2-2">
	<g>
		<path class="st0" d="M215.7,166.4c0.4,0.3,1.8,1.4,2.3,3.3c0.3,1.1,0.1,2,0,2.6c-1,18-2.1,36.1-3.1,54.1
			c-0.8,14.5-1.7,28.9-2.5,43.4c0.2,1,0.2,2.3-0.5,3.3c-1.1,1.7-3.5,2-4.3,2c-6.2,0.7-127.7,0.1-138.4,0c-0.8-0.2-2.2-0.6-3.6-1.5
			c-2-1.4-2.9-3.2-3.3-4.1L62,255.2c0-0.2,0-0.4,0-0.6c0-0.4,0-0.7,0-1.1c-0.4-19-0.8-38.1-1.2-57.1v0c0-0.1,0-0.3,0-0.4
			c0-0.7,0-1.5,0-2.2c0-0.4,0-0.7,0-1.1c0-0.3,0-0.6,0-0.9c-0.1-5.8-0.2-11.7-0.4-17.5c0-0.4,0-0.8,0-1.2c0-0.1,0-0.2,0-0.3
			c0-0.2,0-0.5,0-0.7c0-0.1,0-0.2,0-0.3c0.4-0.9,0.9-2.1,1.8-3.4c0.2-0.3,0.5-0.7,0.8-1c0-0.1,0.1-0.1,0.2-0.2
			c0.5-0.6,1.1-1.2,1.6-1.6c3.2,0,6.5,0,9.7,0.1c10.2,0.1,20.4,0.1,30.6,0.2c8.3,0.1,16.6,0.1,24.9,0.2c4.7,0,9.5,0.1,14.2,0.1
			c8.3,0.1,16.6,0.1,25,0.2c4.7,0,9.4,0.1,14,0.1c10.3,0.1,20.7,0.1,31,0.2C214.6,166.4,215.1,166.4,215.7,166.4L215.7,166.4z"/>
		<path class="st1" d="M19.9,46.4C13.9,41.3,8,36.2,2,31.1"/>
		<path class="st1" d="M31.1,38.2c-3.1-7.4-6.3-14.8-9.4-22.1"/>
		<path class="st1" d="M42.8,33.1c-0.3-7.1-0.5-14.3-0.8-21.5"/>
		<path class="st1" d="M51.5,33.6c2.6-4.6,5.2-9.2,7.7-13.8"/>
		<path class="st2" d="M22.9,240.4H1.5"/>
		<path class="st2" d="M242.9,239.5h1c0.7,0,1.3,0,2,0c8.7,0,17.5-0.1,26.2-0.1"/>
		<path class="st3" d="M82.6,262.4c38.5-0.1,77-0.3,115.5-0.5"/>
		<path class="st4" d="M197.8,75.5c1.1,2.6-2.1,3.8-4.9,3.9c-2.1,0.1-1.7,0.1-9.8,2.2c0,0,0,0,0,0c-1.6,0.2-2.4,0.4-4.7,1
			c-0.3,0.1-0.6,0.2-0.8,0.2c-0.3,0-0.7,0-1-0.1c-1.2-0.2-3.5-0.4-3.9-1.7c-0.5-1.4,1.3-3.3,2.7-4.2c1.4-0.9,2.4-1,4.5-1.2h0
			c0.7-0.1,1.5-0.1,2.5-0.2c0,0,0.1,0,0.1,0c0.2,0,0.5-0.1,0.7-0.1c2.3-0.3,4-0.6,5.4-0.9c2-0.3,3.8-0.5,6.1-0.2
			C195.7,74.2,197.3,74.3,197.8,75.5L197.8,75.5z"/>
		<path class="st4" d="M196,82.8c0.2,2.2-3.9,4.1-5.4,4.8c-2.5,1.2-3,0.7-7.9,1.9h0c-2.3,0.3-4.7,1-5.9,1.3
			c-0.4,0.1-0.8,0.2-1.2,0.3c-0.9,0.1-1.7,0-2.7-0.3c-0.4-0.1-0.9-0.2-1.3-0.5c-0.5-0.3-1-0.6-1.2-1.2c-0.5-1.5,1.4-3.4,1.9-3.8
			c1-1,2.2-1.6,5.3-2.5c1.6,0,3.1-0.6,5.5-1.2c0,0,0,0,0,0c1-0.2,2.4-0.4,4.6-0.9c3.3-0.7,4.9-1.1,6.5-0.2
			C194.5,80.7,195.9,81.5,196,82.8L196,82.8z"/>
		<path class="st4" d="M192.3,64.6c2.2,1.1,4,3.7,3.4,5.8c-0.5,1.5-2.1,2.2-4.4,3.1c-0.8,0.3-1.7,0.6-2.7,0.9
			c-1.6,0.3-3.3,0.6-5.4,0.9c-0.2,0-0.5,0.1-0.7,0.1c0,0-0.1,0-0.1,0c-1,0.1-1.8,0.2-2.5,0.2h0l0-0.3c1.9-3.4,3.7-6.9,5.6-10.3
			C186.2,64.7,190.3,63.6,192.3,64.6L192.3,64.6z"/>
		<path class="st5" d="M185.4,65c-1.9,3.4-3.7,6.9-5.6,10.3l0,0.3c-2,0.2-3.1,0.3-4.5,1.2c-1.4,1-3.2,2.9-2.7,4.2
			c0.4,1.3,2.7,1.6,3.9,1.7c0.4,0,0.7,0.1,1,0.1c-3.1,0.9-4.2,1.5-5.3,2.5c-0.4,0.4-2.4,2.3-1.9,3.8c0.2,0.6,0.7,0.9,1.2,1.2v0
			c-0.9,1.6-1.8,3.3-2.7,4.9c-2.6-2.1-5.3-4.2-7.9-6.2c2.7-4.6,5.4-9.2,8.1-13.7l0.1-0.2h0c3-5,6-10.1,9-15.1
			c0.1-0.1,0.2-0.3,0.2-0.4c1.7-2.8,3.3-5.6,5-8.4c2.8,0.6,5.6,1.2,8.3,1.9C189.7,57,187.6,61,185.4,65L185.4,65z"/>
		<path class="st4" d="M189.1,90.8c0.9,1.4,0.3,3.4-0.3,4.5c-1,1.8-2.7,2.4-8.6,3.9c-0.5,0.1-1.1,0.3-1.6,0.4
			c-8.2,2-9.4,2.2-10.1,1.4c-1.2-1.4,0.2-4.8,1.8-6.7c1.5-1.8,3.2-2.5,5.5-3.1c1.8-0.1,3.8-0.8,7.1-1.7h0
			C185.4,89.1,188,89.2,189.1,90.8z"/>
		<path class="st4" d="M178.3,60c-3,5-6,10.1-9,15.1h0c-1.2,0.4-2.2,0.5-3,0.6l-0.3-0.1c1.6-4.9,3.4-11.8,4.4-20.2
			c0-0.3,0.1-0.6,0.1-0.9c0.1-0.6,0.1-1.2,0.2-1.8c0.7,0.8,1.3,1.6,1.8,2.4c0.2-0.8,0.5-1.6,0.7-2.4c0.1,0.1,0.3,0.1,0.4,0.2
			c0.1,0.1,0.3,0.2,0.4,0.2c0.7,0.4,1.4,0.9,2,1.6C177.5,56.4,178.1,58.3,178.3,60L178.3,60L178.3,60z"/>
		<path class="st4" d="M173,90.8c0.9,0.3,1.8,0.3,2.7,0.3c-2.2,0.7-4,1.4-5.5,3.1c-1.6,1.9-3,5.3-1.8,6.7c0.7,0.8,1.9,0.6,10.1-1.4
			c-1.9,1.6-4.5,3.3-7.7,4.8c-3.8,1.7-7.4,2.6-10.4,3c-0.7,0.1-1.3,0.2-1.9,0.2c-1.1,0.1-2.1,0.1-3,0.1c-0.8-2.9-1.5-5.7-2.3-8.6
			c1.3-1.4,2.4-2.8,3.4-4c1.7-2.1,3-4.2,4.2-6.2l0.3,0.2c2.6,2.1,5.3,4.1,7.9,6.2c0.9-1.6,1.8-3.3,2.6-4.9v0
			C172.1,90.6,172.6,90.7,173,90.8z"/>
		<path class="st6" d="M175.4,34.4c0,0.8,0,1.7,0,2.5v0.2c-0.1,4.8-0.8,10.1-2.2,15.5c-0.2,0.8-0.4,1.6-0.7,2.4
			c-0.5-0.9-1.1-1.7-1.8-2.4l0,0c-2.7-3.1-6.6-6-10.4-12.4c-9.8-16.7-13.2-28.6-14.2-28.6c0,0,0,0-0.1,0c-0.3,0.1,0.2,1.2,1.4,4.2
			l0.1,0.2c0,0,0,0,0,0.1c0.5,1.4,1.2,3.1,2,5.4c0,0,0,0,0,0c0.1,0.4,0.3,0.9,0.5,1.4c-0.1,0.1-0.3,0.2-0.6,0.3h0
			c-0.1,0-0.1,0-0.2,0.1c-0.2,0.1-0.4,0.1-0.6,0.2c-0.6,0.2-1.3,0.5-1.7,0.9c0,0-5.5,5.8-12,10.4c-11.2,7.9-27,12.5-28.1,12.8
			c-0.1,2.1-0.2,4.2-0.3,6.4c0,0.8-0.1,1.6-0.1,2.4s-0.1,1.6-0.1,2.4c-0.2-0.2-0.3-0.4-0.5-0.6c-0.2-0.2-0.4-0.5-0.6-0.8
			c-0.5-0.7-1.1-1.5-1.7-2.5c-0.6-1-1.3-2.1-1.9-3.4c-1-2-1.9-4.4-2.5-7.1c-0.2-1-0.4-2.1-0.5-3l0-0.3c-1.2-10.6,3.3-18.9,4.6-21.2
			C110.3,7.2,126.6-3.3,140.9,1c5.4,1.6,9.1,4.9,11.2,7.1c5.8-0.9,9.6,0.4,11.7,1.5C170.8,13.3,175,22.5,175.4,34.4L175.4,34.4z"/>
		<path class="st4" d="M170.7,52.7L170.7,52.7c-0.1,0.6-0.1,1.2-0.2,1.8c0,0.3-0.1,0.6-0.1,0.9c-1,8.4-2.8,15.3-4.4,20.2
			c-0.1,0.3-0.2,0.5-0.3,0.8c-1.6,4.6-2.9,8.6-5,12.5c-1.1,2.1-2.5,4.1-4.2,6.2c-1,1.2-2.1,2.6-3.4,4c-3.7,4.1-8.5,8.1-15,8.6
			c-9.2,0.7-16.5-6.4-20.6-11.1c-0.7-0.8-1.3-1.5-1.8-2.2c-4.7-5.7-6.9-11.4-8.4-16.3c-0.3-0.8-0.5-1.6-0.7-2.4
			c-2.1-6.9-2.8-13-3.1-17.8l0,0c0-0.3,0-0.7,0-1c0-0.7,0-1.4,0-2c0.6,0.9,1.2,1.8,1.7,2.5c0.2,0.3,0.4,0.5,0.6,0.8
			c0.2,0.2,0.3,0.4,0.5,0.6c0-0.8,0.1-1.6,0.1-2.4s0.1-1.6,0.1-2.4c0.1-2.1,0.2-4.2,0.3-6.4c1.1-0.3,16.9-4.8,28.1-12.8
			c6.5-4.6,12-10.4,12-10.4c0.4-0.4,1.1-0.6,1.7-0.9c0.2-0.1,0.4-0.1,0.6-0.2c0.1,0,0.1,0,0.2-0.1h0c0.3-0.1,0.5-0.2,0.6-0.3
			c-0.2-0.5-0.3-0.9-0.5-1.4c0,0,0,0,0,0c-0.8-2.2-1.4-4-2-5.4c0,0,0,0,0-0.1l-0.1-0.1c-1.2-3-1.7-4.1-1.4-4.2c0,0,0,0,0.1,0
			c1.1,0,4.4,11.9,14.2,28.6C164.1,46.7,168,49.6,170.7,52.7L170.7,52.7z M155.3,60.3c0-1.6-1.4-2.9-3.1-2.9s-3.1,1.3-3.1,2.9
			s1.4,2.9,3.1,2.9S155.3,61.9,155.3,60.3z M139.8,91c4-0.6,7.3-4.3,7.5-9c-2.4,0.7-6,1.5-10.5,1.3c-2.9-0.2-5.4-0.8-7.3-1.4
			C129.8,87.7,135,91.7,139.8,91z M126.7,60.3c0-1.6-1.4-2.9-3.2-2.9s-3.2,1.3-3.2,2.9s1.4,2.9,3.2,2.9S126.7,61.9,126.7,60.3z"/>
		<path class="st4" d="M169.3,75.1l-0.1,0.2c-2.7,4.6-5.4,9.2-8.1,13.7l-0.3-0.2c2.1-3.9,3.5-7.9,5-12.5c0.1-0.3,0.2-0.5,0.3-0.8
			l0.3,0.1C167.1,75.6,168.1,75.5,169.3,75.1L169.3,75.1z"/>
		<path class="st7" d="M152.1,56.4c2.3,0,4.2,1.7,4.2,3.8c0,2.1-1.9,3.8-4.2,3.8s-4.2-1.7-4.2-3.8S149.8,56.4,152.1,56.4z"/>
		<path class="st8" d="M147.3,82c-0.2,4.7-3.5,8.4-7.5,9c-4.8,0.7-10-3.3-10.3-9.1c1.9,0.6,4.4,1.2,7.3,1.4
			C141.2,83.5,144.9,82.7,147.3,82z"/>
		<path class="st7" d="M123.5,57.4c1.7,0,3.2,1.3,3.2,2.9s-1.4,2.9-3.2,2.9s-3.2-1.3-3.2-2.9S121.8,57.4,123.5,57.4z"/>
		<path class="st4" d="M106.5,75.7c0.2,0.8,0.5,1.6,0.7,2.4c-5.5-1.5-9.8-6-10.9-11.6c-1.1-5.2,0.6-10.6,4.3-14.2
			c0.1-0.1,0.1-0.1,0.2-0.2c0.2-0.2,0.4-0.4,0.7-0.6c0.6,1.2,1.2,2.4,1.9,3.4c0,0.7,0,1.3,0,2c0,0.3,0,0.7,0,1l0,0
			C103.7,62.7,104.4,68.8,106.5,75.7z"/>
		<path class="st9" d="M160.7,88.9c2.1-3.9,3.5-7.9,5-12.5c0.1-0.3,0.2-0.5,0.3-0.8"/>
		<path class="st10" d="M153.2,99.1c1.3-1.4,2.4-2.8,3.4-4c1.7-2.1,3-4.2,4.2-6.2"/>
		<path class="st9" d="M117.5,96.6c4.1,4.7,11.4,11.8,20.6,11.1c6.5-0.5,11.3-4.6,15-8.6"/>
		<path class="st9" d="M169.3,75.1c-1.2,0.4-2.2,0.5-3,0.6"/>
		<path class="st9" d="M155.4,107.7c-0.8-2.9-1.5-5.7-2.3-8.6"/>
		<path class="st5" d="M183,166.1L183,166.1c-4.7,0-9.4,0-14-0.1c3.2-3.1,6.4-6.1,9.7-9.2C180.1,160,181.6,163,183,166.1L183,166.1z
			"/>
		<path class="st5" d="M59.5,159c0,0.1,0,0.1,0,0.2c0.1,1.7,0.2,3.4,0.3,5.1l0.2,3.1c0,0,0.1,2,0.2,4.1c0,0.1,0,0.2,0,0.3
			c0,0.2,0,0.5,0,0.7c0,0.1,0,0.2,0,0.3c0,0.4,0,0.8,0,1.2c0.1,5.8,0.2,11.7,0.4,17.5c0,0.3,0,0.6,0,0.9c0,0.4,0,0.7,0,1.1
			c0,0.7,0,1.5,0,2.2c0,0.1,0,0.3,0,0.4v0c0.4,19,0.8,38.1,1.2,57.1h-0.4c-0.7,0.5-4.2,3.2-9.1,4h0c-0.3,0-0.7,0.1-1,0.1
			c-1.5,0.1-3.2,0.1-4.9-0.3c-7.3-1.6-13.1-8-14.3-16.1c-4-26.2-8-52.4-12-78.6c3.1-0.3,6.2-0.6,9.2-0.9c6.9-0.7,13.8-1.3,20.6-2
			c2.2-0.2,4.4-0.4,6.6-0.6l2.8-0.3C59.5,158.9,59.5,158.9,59.5,159z"/>
		<path class="st5" d="M62,168.2c-0.9,1.2-1.5,2.4-1.8,3.4c-0.1-2.1-0.2-4.1-0.2-4.1l-0.2-3.1c-0.1-1.7-0.2-3.4-0.3-5.1
			c0-0.1,0-0.1,0-0.2c0-0.1,0-0.2,0-0.3l-2.8,0.3c0.5-6.9,2.4-11.9,3.8-14.8c2.3-4.9,4.7-7,5.4-7.7c2.1-1.8,4.2-2.9,5.8-3.5
			c0.3-0.1,0.6-0.2,0.9-0.3c6.8-3.5,13.6-6.9,20.4-10.4l1.3,2.6c-0.8,3.2-1.7,6.4-2.5,9.6c4.7,2.7,9.4,5.4,14,8.2
			c-2.2,5-4.4,10-6.6,15.1c2,2.6,3.9,5.3,5.9,7.9l0,0c-10.2-0.1-20.4-0.1-30.6-0.2c-3.2,0-6.5-0.1-9.7-0.1c-0.5,0.4-1.1,1-1.6,1.6
			c0,0.1-0.1,0.1-0.2,0.2C62.5,167.5,62.2,167.8,62,168.2L62,168.2z"/>
		<path class="st5" d="M129.8,165.6v0.2c-8.3-0.1-16.6-0.1-24.9-0.2l0,0c-1.9-2.6-3.9-5.3-5.9-7.9c2.2-5,4.4-10,6.6-15.1
			c-4.7-2.7-9.4-5.4-14-8.2c0.8-3.2,1.7-6.4,2.5-9.6l-1.3-2.6c0.8-0.4,1.6-0.8,2.3-1.2c6-3,11.9-6.1,17.9-9.1
			c4.6,14.6,9.6,30.7,14.3,45.8v0C128.2,160.5,129,163.1,129.8,165.6L129.8,165.6z"/>
		<path class="st5" d="M160.5,118.3c6.1,12.8,12.1,25.7,18.2,38.5c-3.2,3.1-6.4,6.1-9.7,9.2c-8.3-0.1-16.6-0.1-25-0.2
			c0.9-2.7,1.9-5.5,2.9-8.3C151.4,144.6,156.2,130.8,160.5,118.3z"/>
		<path class="st5" d="M204.6,147.8c-3.5-6.9-7-13.8-10.4-20.7c0.8,0.3,1.6,0.6,2.4,0.8c0.4,0.1,0.8,0.3,1.2,0.4
			c2.6,0.9,5.3,1.9,7.9,2.8c0.9,1.7,1.8,3.3,2.7,5c0.3,0.6,0.6,1.1,0.9,1.7c13.9,25.8,27.8,51.6,41.6,77.4c2.6,7.6,0.7,16-4.9,21.7
			c-1,1-2,1.9-3.1,2.6c-2.9,2-6.4,3.3-9.9,3.6c-0.2,0-0.4,0-0.5,0.1c-2.6,0.2-5.3-0.1-7.9-0.9c-3.2-5.3-6.5-10.6-9.7-15.8h-0.1
			c1-18,2.1-36.1,3.1-54.1c0.1-0.5,0.3-1.5,0-2.6c-0.5-1.9-1.9-3-2.3-3.3c-0.6,0-1.1,0-1.7,0c0,0,0,0,0,0c0,0,0,0,0,0
			C210.9,160.2,207.8,154,204.6,147.8L204.6,147.8L204.6,147.8z"/>
		<path class="st5" d="M214,166.4L214,166.4C214,166.4,214,166.4,214,166.4c-10.3,0-20.7-0.1-31-0.2v0c-1.5-3.1-2.9-6.2-4.4-9.3
			c-6.1-12.8-12.1-25.7-18.2-38.5c-1.7-3.6-3.4-7.1-5-10.7c0.9,0,1.9,0,3-0.1c0.6-0.1,1.3-0.1,1.9-0.2c3-0.4,6.6-1.3,10.4-3
			c3.2-1.5,5.8-3.2,7.7-4.8l1.6-0.4c0.2,0.3,0.4,0.7,0.5,1.1c0.2,0.3,0.4,0.7,0.5,1.1c4.4,8.6,8.7,17.2,13,25.8
			c3.5,6.9,7,13.8,10.4,20.7l0,0C207.8,154,210.9,160.2,214,166.4L214,166.4z"/>
		<path class="st8" d="M146.5,157.5l0.4,0.1c-1,2.8-1.9,5.6-2.9,8.3c-4.7,0-9.5-0.1-14.2-0.1v-0.2c-0.8-2.6-1.6-5.2-2.4-7.8v0
			c2.4-7.8,4.8-15.5,7.2-23.3l-3.6-7.9c2-1.9,4.1-3.9,6.1-5.9c1.8,1.8,3.6,3.6,5.4,5.4c-1.1,2.6-2.2,5.3-3.3,7.9
			C141.6,141.8,144,149.6,146.5,157.5L146.5,157.5z"/>
		<path class="st0" d="M155.4,107.7c1.7,3.6,3.4,7.1,5,10.7c-4.3,12.5-9.1,26.3-13.6,39.3l-0.4-0.1c-2.5-7.8-4.9-15.7-7.4-23.5
			c1.1-2.6,2.2-5.3,3.3-7.9c-1.8-1.8-3.6-3.6-5.4-5.4L155.4,107.7L155.4,107.7z"/>
		<path class="st4" d="M153.2,99.1c0.8,2.9,1.5,5.7,2.3,8.6l-18.4,13c-6.4-5.3-12.8-10.6-19.2-15.8c-0.1-2.8-0.2-5.5-0.4-8.3
			c4.1,4.7,11.4,11.8,20.6,11.1C144.6,107.2,149.5,103.1,153.2,99.1z"/>
		<path class="st0" d="M134.5,134.5c-2.4,7.8-4.8,15.5-7.2,23.3c-4.7-15.1-9.7-31.2-14.3-45.8c1.6-2.4,3.2-4.8,4.8-7.2
			c6.4,5.3,12.8,10.6,19.2,15.8c-2,2-4.1,3.9-6.1,5.9L134.5,134.5L134.5,134.5z"/>
		<path class="st4" d="M28.3,81.3l-0.5-5c0.2-1.9,1.7-3.5,3.6-3.8c2-0.4,4.1,0.8,4.9,2.8c1.5,11.7,2.9,23.3,4.3,35
			c0.3-2.9,0.7-5.8,1-8.7c0.4-1,1.8-4.7,5.6-6.4c3.2-1.4,6.3-0.5,8.9,0.3c4.3,1.3,7.4,3.8,9.2,5.6c0.6,2-0.2,4.2-1.8,5.4
			c-0.7,0.5-1.5,0.8-2.3,0.9c2.3,0,4.3,2.1,4.1,4.7l-1.5,14c-0.7,2.4-2,5.6-4.3,8.9c-3.7,5.2-8.1,8.1-10.7,9.4
			c0.4,5,0.8,10,1.3,15.1l0,0.2c-6.9,0.7-13.8,1.3-20.6,2l-0.1-0.6v-12.8c-1.7-0.7-7.3-3.5-10.5-10c-2.2-4.5-2.2-8.7-2-10.7
			c-1.4-11.8-2.7-23.5-4.1-35.2c-0.8-2.4,0.4-4.9,2.3-5.6c1.1-0.4,2.4-0.2,3.6,0.4c-1-4.8,1.5-8.6,4.1-8.9c1.7-0.2,3.6,1.2,4.9,3.1
			L28.3,81.3L28.3,81.3z M60.7,107.3c-1.2,0-2.4-0.4-3.3-1.2c-1.4-1.6-3.6-2.1-5.4-1.3c-2.2,1-2.5,3.4-2.5,3.6v8.2
			c1.6,1.1,3.2,2.2,4.8,3.3c0.9-3,1.9-6,2.8-8.9C57.5,109,59,107.6,60.7,107.3z"/>
		<path class="st9" d="M18.6,87.2c0.3,0.2,0.5,0.4,0.8,0.6c1.2,8,2.4,16,3.6,24"/>
		<path class="st9" d="M31.6,111.8c-1.1-10.2-2.2-20.3-3.3-30.5"/>
		<path class="st9" d="M42.8,126.6c0.1-1.2,0.5-2.9,1.5-4.8c1.6-2.9,4-4.5,5.1-5.1"/>
		<path class="st3" d="M94.2,124.9c-0.8,3.2-1.7,6.4-2.5,9.6c4.7,2.7,9.4,5.4,14,8.2c-2.2,5-4.4,10-6.6,15.1c2,2.6,3.9,5.3,5.9,7.9"
			/>
		<path class="st3" d="M178.6,156.9c1.5,3.1,2.9,6.2,4.4,9.3"/>
		<path class="st3" d="M162.4,122.3c5.4,11.5,10.9,23,16.3,34.5"/>
		<path class="st11" d="M155.4,107.7c1.7,3.6,3.4,7.1,5,10.7"/>
		<path class="st3" d="M72.1,136.9c0.4,3,0.8,6.1,1.2,9.1c0.3,6.5,0.7,12.9,1,19.4"/>
		<path class="st3" d="M60.2,171.5c-0.1-2.1-0.2-4.1-0.2-4.1l-0.2-3.1c-0.1-1.7-0.2-3.4-0.3-5.1c0-0.1,0-0.1,0-0.2
			c0-0.1,0-0.2,0-0.3l-2.8,0.3"/>
		<path class="st3" d="M204.6,147.8c3.1,6.2,6.2,12.4,9.4,18.6c0,0,0,0,0,0c0,0,0,0,0,0"/>
		<path class="st3" d="M196,130.6c2.9,5.7,5.8,11.5,8.7,17.2"/>
		<path class="st3" d="M169,166.1L169,166.1c3.2-3.1,6.4-6.2,9.7-9.2"/>
		<path class="st3" d="M205.3,138c-0.1,1.5-0.2,3-0.3,4.5c0,0.6-0.1,1.2-0.1,1.8c-0.1,1.2-0.1,2.3-0.2,3.5"/>
		<path class="st2" d="M146.5,47.4c1-0.4,2.6-1,4.6-1c3.3,0,5.7,1.4,6.6,2"/>
		<path class="st2" d="M117.4,49c0.8-0.7,2.2-1.6,4.1-2c3.7-0.9,6.8,0.5,7.7,1"/>
		<path class="st12" d="M139.8,91c-4.8,0.7-10-3.3-10.3-9.1c1.9,0.6,4.4,1.2,7.3,1.4c4.4,0.2,8.1-0.6,10.5-1.3
			C147.1,86.7,143.8,90.4,139.8,91z"/>
		<path class="st2" d="M126.7,60.3c0,1.6-1.4,2.9-3.2,2.9s-3.2-1.3-3.2-2.9s1.4-2.9,3.2-2.9S126.7,58.7,126.7,60.3z"/>
		<path class="st13" d="M155.3,60.3c0,1.6-1.4,2.9-3.1,2.9s-3.1-1.3-3.1-2.9s1.4-2.9,3.1-2.9S155.3,58.7,155.3,60.3z"/>
		<path class="st9" d="M178.5,99.6c-8.2,2-9.4,2.2-10.1,1.4c-1.2-1.4,0.2-4.8,1.8-6.7c1.5-1.8,3.2-2.5,5.5-3.1
			c0.4-0.1,0.8-0.2,1.2-0.3c1.2-0.3,3.6-1,5.9-1.3"/>
		<circle class="st7" cx="139.4" cy="212.3" r="7.1"/>
	</g>
</g>
</svg>
