<?xml version="1.0" encoding="UTF-8"?><svg id="_レイヤー_2" xmlns="http://www.w3.org/2000/svg" width="255.66" height="312.94" viewBox="0 0 255.66 312.94"><defs><style>.cls-1{stroke:#f9de98;}.cls-1,.cls-2,.cls-3,.cls-4,.cls-5,.cls-6,.cls-7,.cls-8,.cls-9,.cls-10,.cls-11,.cls-12{fill:none;}.cls-1,.cls-4,.cls-10{stroke-miterlimit:10;}.cls-13{fill:#f9b862;}.cls-2,.cls-3{stroke:#b1b1b1;}.cls-2,.cls-3,.cls-5,.cls-6,.cls-7,.cls-9,.cls-11,.cls-12{stroke-linecap:round;stroke-linejoin:round;}.cls-2,.cls-5,.cls-6,.cls-11{stroke-width:2px;}.cls-14{fill:#e36576;}.cls-4,.cls-6,.cls-7,.cls-12{stroke:#6d6c6c;}.cls-5{stroke:#c49765;}.cls-15{fill:#b1b1b1;}.cls-9,.cls-10{stroke:#f9b862;}.cls-11{stroke:#0364ca ;}.cls-16{fill:#f9de98;}.cls-12{stroke-width:3px;}.cls-17{fill:#6d6c6c;}</style></defs><g id="_レイヤー_8"><g><path class="cls-15" d="M232.04,165.75c7.54,43.93,16.08,98.94,23.62,142.85-9.9,5.86-20.28-1.52-30.18,4.34-.09-4.23-4.08-11.41-4.16-15.63-.7-34.26-1.41-68.52-2.11-102.79-.63-5.05-2.02-17.23-1.35-27.04,.12-1.67,.33-3.74,1.01-6.24,1.46-5.29,4.12-9.1,6.07-11.44l1.14-.41c.87,1.09,1.76,2.37,2.58,3.87,2.75,5.04,3.28,9.83,3.37,12.49Z"/><path class="cls-15" d="M94.77,134.98c6.58-3.18,13.16-6.36,19.74-9.53l.08-.02c7.79,29.4,15.58,58.81,23.37,88.22,4.33,16.33,8.66,32.66,12.98,48.99,4.5-16.83,9-33.65,13.5-50.48,7.64-28.56,15.28-57.13,22.92-85.69-.05-.07-.11-.15-.16-.22l.16-.12c6.02,3.18,12.03,6.35,18.05,9.53,5.9,2.61,12.75,6.45,18.72,11.92,.77,.71,1.63,1.59,2.51,2.66l-1.15,.4c-1.97,2.29-4.66,6.04-6.13,11.23-.69,2.46-.9,4.49-1.02,6.13-.68,9.63,.72,21.59,1.36,26.55,.71,33.65,1.42,67.29,2.13,100.93,.08,4.15,3.57,13.31,3.66,17.46-48.91-1.68-97.81-3.35-146.72-5.02,1.36-6.13,1.7-10.73,3.06-16.86-.09-4.78-.15-9.6-.2-14.44-.25-27.1,0-54.96-.48-81.73,.53-9.67-.1-22.46-4.77-36.42-1.23-3.7-2.62-7.1-4.08-10.21,0,0,.65-1,1.02-1.37,6.58-2.61,14.46-5.72,21.05-8.33,0,0,.3-2.19,.4-3.58Zm60.59,150.13c0-2.82-2.28-5.11-5.1-5.11s-5.11,2.29-5.11,5.11,2.29,5.11,5.11,5.11,5.1-2.29,5.1-5.11Z"/><path class="cls-16" d="M51.91,120.79c1.42,3.42,2.84,6.84,4.26,10.25-.79,1.25-1.59,2.5-2.38,3.75-.71,.76-1.43,1.52-2.14,2.28,1.25,1.36,1.91,1.8,3.16,3.17-.13,2.08-.49,4.65-1.36,7.49-1.61,5.2-4.23,8.95-6.13,11.23,.11,3.29,.23,6.58,.34,9.87l.2,.98c-7.83,1.57-15.67,3.14-23.51,4.7l-.52-2.61c.49-2.31,.89-5.63,.34-9.54-1.05-7.55-5.21-12.54-6.47-14.29-3.91-5.47-6.25-16.17,1.02-39.15,6.47-2.84,12.94-5.68,19.41-8.51,.1-.06,2.45-1.34,4.76,0,1.56,.89,2.48,2.61,2.39,4.42,.54,1.31,1.09,2.61,1.63,3.92,1.67,4.02,3.33,8.03,5,12.04Z"/><path class="cls-15" d="M58.3,189.53l.27-.08c2.84-10.1,5.68-20.2,8.51-30.3,.41-1.99,1.25-4.82,3.07-7.83,.84-1.39,1.73-2.56,2.58-3.53l.14,.13c1.46,3.11,2.85,6.51,4.08,10.21,4.67,13.96,5.3,26.75,4.77,36.42,.48,26.77,.23,54.63,.48,81.73-3.85,7.24-9.96,15.27-19.54,20.06-.74,.37-1.47,.71-2.2,1.02-1.26,.49-6.48,2.36-12.1,0-5.56-2.32-9.35-7.87-9.87-14.3-7.38-35.74-14.76-71.48-22.13-107.23,3.01-.6,6.02-1.2,9.03-1.81,7.84-1.56,15.68-3.13,23.51-4.7,1.07-.21,2.13-.43,3.2-.64,2.07,6.95,4.14,13.9,6.2,20.85Z"/><path class="cls-14" d="M150.47,149.21c3.06,3.4,6.13,6.81,9.19,10.21-1.7,3.41-3.4,6.81-5.11,10.21,2.84,13.62,7.35,27.82,10.18,41.44,0,0-9.29,34.74-13.79,51.57-4.32-16.33-13.44-49.84-13.44-49.84,2.16-14.3,5.72-29.55,7.87-43.85-1.59-3.51-3.18-7.03-4.76-10.55,3.06-3.18,6.12-6.35,9.19-9.53l.17-.17,.51,.51Z"/><path class="cls-16" d="M58.6,116.43c.39,1.58,.02,3.21-1.03,4.08-1.52,1.28-4.45,.95-6.12-1.36l-1.54,.64c-1.67-4.01-3.33-8.02-5-12.04l.41-.17c2.02-2.18,4.91-3.12,7.49-2.39,2.11,.6,3.31,2.12,3.74,2.73,.68,2.83,1.36,5.67,2.05,8.51Z"/><path class="cls-8" d="M114.12,124.58c-.02-.11-.05-.21-.08-.32,2.16-1.36,4.31-2.73,6.47-4.09,1.32,1.3,2.63,2.6,3.95,3.9,8.5,8.41,17,16.81,25.5,25.21l.51,.51c9.34-8.55,18.69-17.12,28.03-25.67,1.44-1.32,2.87-2.63,4.31-3.95,1.31,1.75,2.61,3.48,3.92,5.23,.05,.07,.11,.15,.16,.22-7.64,28.56-15.28,57.13-22.92,85.69-4.5,16.83-9,33.65-13.5,50.48-4.32-16.33-8.65-32.66-12.98-48.99-7.79-29.41-15.58-58.82-23.37-88.22Z"/><path class="cls-8" d="M150.47,149.79c3.06,3.4,6.13,6.81,9.19,10.21-1.7,3.41-3.4,6.81-5.11,10.21,2.84,13.62,5.68,27.24,8.51,40.86"/><path class="cls-8" d="M149.79,149.45c-3.07,3.18-6.13,6.35-9.19,9.53,1.58,3.52,3.17,7.04,4.76,10.55-2.15,14.3-4.31,28.6-6.47,42.9"/><path class="cls-7" d="M205.38,138.21c.99,7.61,1.98,15.21,2.96,22.81-6.92,2.05-13.84,4.09-20.77,6.13,4.88,7.04,9.76,14.07,14.64,21.11-12.82,24.39-25.64,48.79-38.47,73.19"/><path class="cls-8" d="M186.89,125.28c6.02,3.18,12.03,6.35,18.05,9.53,.15,1.13,.29,2.27,.44,3.4"/><path class="cls-7" d="M94.96,143.44c-.52,6.86-1.03,13.71-1.54,20.56,5.78,2.05,11.57,4.09,17.36,6.13-4.77,7.6-9.54,15.21-14.3,22.81,15.09,24.51,30.18,49.02,45.28,73.53"/><path class="cls-3" d="M115.04,125.6c-6.58,3.17-13.16,6.35-19.74,9.53-.1,1.39-.21,2.79-.31,4.18-.06,.83-.13,1.66-.19,2.49"/><path class="cls-8" d="M92.6,138.21c-6.59,2.61-13.17,5.22-19.75,7.83-.37,.37-.76,.78-1.16,1.24-.85,.97-1.74,2.14-2.58,3.53-1.82,3.01-2.66,5.84-3.07,7.83-2.83,10.1-5.67,20.2-8.51,30.3"/><path class="cls-8" d="M71.83,237.96c-4.85-16.31-9.71-32.63-14.57-48.94-2.06-6.95-4.13-13.9-6.2-20.85-1.07,.21-2.13,.43-3.2,.64-7.83,1.57-15.67,3.14-23.51,4.7-3.01,.61-6.02,1.21-9.03,1.81,7.37,35.75,14.75,71.49,22.13,107.23,.52,6.43,4.31,11.98,9.87,14.3,5.62,2.36,10.84,.49,12.1,0,.73-.31,1.46-.65,2.2-1.02,9.58-4.79,15.69-12.82,19.54-20.06,.07-.12,.14-.24,.2-.36"/><path class="cls-2" d="M81.14,273.36c0,.8,.01,1.61,.02,2.41,.05,4.84,.11,9.66,.2,14.44-1.36,6.13-1.7,10.73-3.06,16.86"/><path class="cls-7" d="M75.91,157.62c4.67,13.96,5.3,26.75,4.77,36.42,.47,25.98,.24,52.98,.46,79.32"/><path class="cls-8" d="M23.83,170.9c.49-2.31,.89-5.63,.34-9.54-1.05-7.55-5.21-12.54-6.47-14.29-3.91-5.47-6.25-16.17,1.02-39.15,6.47-2.84,12.94-5.68,19.41-8.51,.1-.06,2.45-1.34,4.76,0,1.56,.89,2.48,2.61,2.39,4.42,.54,1.31,1.09,2.61,1.63,3.92,1.67,4.02,3.33,8.03,5,12.04,1.42,3.42,2.84,6.84,4.26,10.25-.79,1.25-1.59,2.5-2.38,3.75-.71,.76-1.43,1.52-2.14,2.28-2.69,2.87-5.38,5.74-8.08,8.61"/><path class="cls-8" d="M51.65,136.07c1.25,1.36,1.91,1.8,3.16,3.17-.13,2.08-.49,4.65-1.36,7.49-1.61,5.2-4.23,8.95-6.13,11.23,.11,3.29,.23,6.58,.34,9.87"/><path class="cls-8" d="M47.32,107.58c2.02-2.18,4.91-3.12,7.49-2.39,2.11,.6,3.31,2.12,3.74,2.73,.68,2.83,1.36,5.67,2.05,8.51,.39,1.58,.02,3.21-1.03,4.08-1.52,1.28-4.45,.95-6.12-1.36"/><path class="cls-9" d="M45.28,107.58c-5.9,2.04-11.81,4.08-17.71,6.12"/><path class="cls-9" d="M49.02,114.04c-5.11,2.95-10.21,5.9-15.32,8.86"/><path class="cls-9" d="M52.43,121.87c-3.86,2.95-7.72,5.9-11.58,8.86"/><path class="cls-8" d="M204.94,134.81c5.9,2.61,12.75,6.45,18.72,11.92,.77,.71,1.63,1.59,2.51,2.66s1.78,2.33,2.6,3.8c2.78,4.95,3.31,9.65,3.4,12.26,7.61,43.13,15.22,86.26,22.83,129.38l.66,3.72"/><path class="cls-7" d="M221.36,155.04c-.95,1.72-1.82,3.71-2.46,5.98-.69,2.46-.9,4.49-1.02,6.13-.68,9.63,.72,21.59,1.36,26.55,.71,33.69,1.42,67.3,2.13,100.93,.08,4.15,3.57,13.31,3.66,17.46"/><path class="cls-17" d="M155.36,285.11c0,2.82-2.28,5.11-5.1,5.11s-5.11-2.29-5.11-5.11,2.29-5.11,5.11-5.11,5.1,2.29,5.1,5.11Z"/><path class="cls-11" d="M1,77.73c2.31,2.59,4.62,5.17,6.94,7.76"/><path class="cls-11" d="M17.2,65.11c1.18,4.66,2.36,9.33,3.54,13.99"/><path class="cls-11" d="M40.24,62.73c-.57,4.43-1.14,8.85-1.71,13.28"/><path class="cls-13" d="M195.68,47.88c.77,2.36,1.35,4.46,1.77,6.25,1.65,6.92,2.93,12.39,1.02,18.72-.81,2.69-1.95,4.76-2.8,6.09l-.51,.07c-.36-2.93-1.68-5.8-3.63-7.68-.22-.21-4.61-3.18-4.7-2.53,.36-2.74,.72-5.47,1.08-8.2l2.14-.83c-1.06-2.03-2.14-3.79-3.16-5.3-7.11-10.44-13.07-10.72-16.34-19.4-2.34-6.23-1.19-11.15-4.08-12.26-2.22-.85-5.08,1.21-7.15,3.06l-.51,.34c-1.04-1.31-2.6-1.79-3.75-1.27-.76,.34-1.13,1.04-1.27,1.36-.57,1.64-1.14,3.29-1.71,4.94l-.93,.76c-1.67,2.94-4.25,6.67-8.17,10.21-8.11,7.34-17.12,9.49-21.45,10.22l-.85,.25c-2.24,.6-4.48,1.19-6.72,1.79,.11,2.75,.22,5.5,.34,8.26l.08,.93c.17,3.24,.51,6.51,.94,9.81l-.42,.04c-.72,.17-3.29,.83-5.49,2.88l-.13-.13c-1.26-1.31-4.01-4.53-5.11-9.53-.47-2.15-.53-4.11-.4-5.76-.84-2.67-1.69-5.35-2.53-8.03l-.76-.02c-.04,1.33,.12,2.46,.29,3.25l-.88,.11c-.95-1.41-2.94-4.83-2.39-9.13,.16-1.26,.5-2.34,.88-3.23,.06-.21,.13-.45,.22-.72,.63-1.9,2.06-5.19,5.23-8.13,1.11-1.03,2.25-1.84,3.34-2.49l-.31-.75c-2.26-.62-4.52-1.25-6.78-1.87,2.39-.79,6.19-2.29,10.22-5.11,9.41-6.58,10.37-13.56,16.34-17.36,2.63-1.68,6.62-2.97,12.91-2.1,3.69,.51,8.17,1.77,13.64,4.14,2.54-.32,4.61-2.01,5.24-4.25,.65-2.28-.45-4.21-.68-4.6l.89-.68c1.14,.4,3.71,1.47,5.79,4.09,2.8,3.53,2.76,7.43,2.72,8.51,.44,1.08,.88,2.16,1.33,3.23,.91,.06,1.83,.11,2.75,.17,3.48-.9,6.24-.63,7.83-.34,8.66,1.57,13.06,9.21,13.96,10.89,1.16,2.16,1.74,4.12,2.04,5.45,.5,5.28,1,10.56,1.5,15.83l-.88,.05Z"/><path class="cls-16" d="M195.25,79.98c.11,2.09-.27,4.16-1.24,5.88-1.2,2.12-3.28,3.53-4.96,5.21-1.7,1.49-4.26,3.14-5.52,2.85,1.1-8.38,2.2-16.75,3.3-25.12,.09-.65,4.48,2.32,4.7,2.53,1.95,1.88,3.27,4.75,3.63,7.68,.05,.32,.07,.65,.09,.97Z"/><path class="cls-16" d="M190.05,59.77l-2.14,.83c-.36,2.73-.72,5.46-1.08,8.2-1.1,8.37-2.2,16.74-3.3,25.12l-.72,5.49c-.21,1.5-4.42,8.01-10.27,14.34-6.22,6.72-14.29,13.23-21.39,13.23-5.3,0-16.18-8.1-23.81-15-4.27-3.87-7.52-7.36-8.19-8.83-.07-1.38-.18-2.76-.31-4.15-.76-8.41-2.43-17.04-3.52-25.53-.43-3.3-.77-6.57-.94-9.81l-.08-.93c-.12-2.76-.23-5.51-.34-8.26,2.24-.6,4.48-1.19,6.72-1.79l.85-.25c4.33-.73,13.34-2.88,21.45-10.22,3.92-3.54,6.5-7.27,8.17-10.21l.93-.76c.57-1.65,1.14-3.3,1.71-4.94,.14-.32,.51-1.02,1.27-1.36,1.15-.52,2.71-.04,3.75,1.27l.51-.34c2.07-1.85,4.93-3.91,7.15-3.06,2.89,1.11,1.74,6.03,4.08,12.26,3.27,8.68,9.23,8.96,16.34,19.4,1.02,1.51,2.1,3.27,3.16,5.3Zm-20.52,14.74c0-2.07-1.83-3.76-4.08-3.76s-4.09,1.69-4.09,3.76,1.83,3.75,4.09,3.75,4.08-1.67,4.08-3.75Zm-24,20.46c3.29-.11,6.58-.23,9.87-.34-.24-1.62-2.71-17.44-5.44-17.36-2.75,.08-4.28,16.08-4.43,17.7Zm-7.32-19.9c0-2.07-1.83-3.76-4.08-3.76s-4.09,1.69-4.09,3.76,1.83,3.75,4.09,3.75,4.08-1.67,4.08-3.75Z"/><path class="cls-16" d="M177.7,122.24l.8,.88c-9.34,8.55-18.69,17.12-28.03,25.67l-.51-.51c-8.5-8.4-17-16.8-25.5-25.21l.48-.49c.42-2.1,.83-4.19,1.26-6.29h-.07c.19-1.59,.38-3.16,.57-4.74l.64-.57c7.63,6.9,18.51,15,23.81,15,7.1,0,15.17-6.51,21.39-13.23l1.27,.02c.51,1.33,1.03,2.66,1.54,3.99,.01,.01,.01,.03,.02,.04,.78,1.81,1.55,3.62,2.33,5.44Z"/><path class="cls-17" d="M165.45,70.75c2.25,0,4.08,1.69,4.08,3.76s-1.83,3.75-4.08,3.75-4.09-1.67-4.09-3.75,1.83-3.76,4.09-3.76Z"/><path class="cls-16" d="M155.4,94.63c-3.29,.11-6.58,.23-9.87,.34,.15-1.62,1.68-17.62,4.43-17.7,2.73-.08,5.2,15.74,5.44,17.36Z"/><path class="cls-17" d="M134.13,71.31c2.25,0,4.08,1.69,4.08,3.76s-1.83,3.75-4.08,3.75-4.09-1.67-4.09-3.75,1.83-3.76,4.09-3.76Z"/><path class="cls-16" d="M118.84,99s-1.79-.25-2.16-.42l-.47-.26s-.06-.03-.11-.05c-.74-.49-4.48-3.48-6.89-6.05-.84-1.16-1.6-2.47-2.15-3.92-.23-.6-.65-1.59-.87-2.86v-.02c-.22-2-.03-4.43,1.38-6.78,.54-.89,1.17-1.64,1.84-2.25,2.2-2.05,4.77-2.71,5.49-2.88l.42-.04c1.09,8.49,2.76,17.12,3.52,25.53Z"/><path class="cls-16" d="M116.1,98.27c-1-.45-4.35-2.55-6.89-6.05,2.41,2.57,6.15,5.56,6.89,6.05Z"/><path class="cls-16" d="M107.57,78.64c-1.41,2.35-1.6,4.78-1.38,6.78-.31-1.78-.21-4.13,1.38-6.78Z"/><line class="cls-1" x1="114.9" y1="73.51" x2="115.32" y2="73.47"/><path class="cls-1" d="M106.19,85.42c-.31-1.78-.21-4.13,1.38-6.78"/><path class="cls-1" d="M116.1,98.27c-1-.45-4.35-2.55-6.89-6.05-.84-1.16-1.6-2.47-2.15-3.92-.23-.6-.65-1.59-.87-2.86"/><path class="cls-1" d="M118.84,99s-1.79-.25-2.16-.42l-.47-.26"/><path class="cls-4" d="M169.53,74.51c0,2.08-1.83,3.75-4.08,3.75s-4.09-1.67-4.09-3.75,1.83-3.76,4.09-3.76,4.08,1.69,4.08,3.76Z"/><path class="cls-4" d="M138.21,75.07c0,2.08-1.83,3.75-4.08,3.75s-4.09-1.67-4.09-3.75,1.83-3.76,4.09-3.76,4.08,1.69,4.08,3.76Z"/><path class="cls-9" d="M183.75,90.56c.94-6.02,1.88-12.03,2.82-18.04"/><path class="cls-9" d="M127.34,111.98c7.63,6.9,18.51,15,23.81,15,7.1,0,15.17-6.51,21.39-13.23,.36-.39,.71-.78,1.06-1.17"/><path class="cls-9" d="M115.46,77.27c1.09,6.35,2.66,12.79,3.38,19.07"/><path class="cls-5" d="M159.32,25.87c2.07-1.85,4.93-3.91,7.15-3.06,2.89,1.11,1.74,6.03,4.08,12.26,3.27,8.68,9.23,8.96,16.34,19.4,1.02,1.51,2.1,3.27,3.16,5.3,1.04,2.04,2.06,4.35,2.97,6.96"/><path class="cls-5" d="M146.04,17.7c-1.83-.09-13.08-.47-21.44,8.17-5.25,5.43-6.7,11.66-7.15,14.3"/><path class="cls-5" d="M116.26,28.32c-1.57,.35-4.45,1.13-7.69,2.99"/><path class="cls-5" d="M100.48,52.92c-.04,1.33,.12,2.46,.29,3.25"/><path class="cls-5" d="M110.3,40.51c-.86,.3-7.13,2.56-9.19,8.85-.42,1.28-.6,2.48-.63,3.56"/><path class="cls-1" d="M116.1,98.27c.05,.02,.09,.04,.11,.05"/><path class="cls-1" d="M106.19,85.42v.02"/><path class="cls-1" d="M114.9,73.51c-.72,.17-3.29,.83-5.49,2.88-.67,.61-1.3,1.36-1.84,2.25"/><path class="cls-12" d="M124.72,58.24c4.46,.89,8.91,1.78,13.37,2.67"/><path class="cls-12" d="M160.82,60.78c5.24-1.14,10.48-2.29,15.72-3.43"/><path class="cls-6" d="M145.53,94.97c3.29-.11,6.58-.23,9.87-.34-.24-1.62-2.71-17.44-5.44-17.36-2.75,.08-4.28,16.08-4.43,17.7Z"/><path class="cls-6" d="M137.68,101.45c1.26,1.05,6.1,4.84,13.28,4.76,8.15-.09,13.3-5.11,14.3-6.12"/><path class="cls-10" d="M157.75,.68c.23,.39,1.33,2.32,.68,4.6-.63,2.24-2.7,3.93-5.24,4.25"/></g></g></svg>