<?xml version="1.0" encoding="utf-8"?>
<!-- Generator: Adobe Illustrator 26.5.0, SVG Export Plug-In . SVG Version: 6.00 Build 0)  -->
<svg version="1.1" id="レイヤー_1" xmlns="http://www.w3.org/2000/svg" xmlns:xlink="http://www.w3.org/1999/xlink" x="0px"
	 y="0px" viewBox="0 0 150 150" style="enable-background:new 0 0 150 150;" xml:space="preserve">
<style type="text/css">
	.st0{fill:#FDDC2D;}
</style>
<path class="st0" d="M29.9,63.5c-0.8,0-1.6-0.1-2.4-0.5c-3.3-1.3-5-5.1-3.6-8.4l14.3-36c1.3-3.3,5.1-5,8.4-3.6
	c3.3,1.3,5,5.1,3.6,8.4L36,59.4C35,61.9,32.5,63.5,29.9,63.5z"/>
<path class="st0" d="M60.2,87.4c-0.7-0.4-1.3-1-1.8-1.7c-2.1-2.9-1.5-7,1.3-9.1l31.1-23.1c2.9-2.1,7-1.5,9.1,1.3
	c2.1,2.9,1.5,7-1.3,9.1L67.5,87.1C65.3,88.7,62.4,88.7,60.2,87.4z"/>
<path class="st0" d="M73.2,123.6c-0.4-0.7-0.6-1.5-0.7-2.3c-0.3-3.6,2.4-6.7,5.9-7l38.6-3.2c3.6-0.3,6.7,2.4,7,5.9
	c0.3,3.6-2.4,6.7-5.9,7l-38.6,3.2C76.9,127.4,74.4,125.9,73.2,123.6z"/>
</svg>
