<?xml version="1.0" encoding="UTF-8"?><svg id="_レイヤー_2" xmlns="http://www.w3.org/2000/svg" width="400" height="220" viewBox="0 0 400 220"><defs><style>.cls-1{fill:#ef6d53;}.cls-2{fill:#6dc0af;}.cls-3{fill:#fff;}.cls-4{fill:#479491;}.cls-5{fill:#cbefe5;}.cls-6{fill:#4f9a8d;}.cls-7{fill:#c8cecc;}.cls-8{fill:#34736e;}.cls-9{fill:#275e5c;}.cls-10{fill:#f2bf5e;}.cls-11{fill:#225449;}.cls-12{fill:#af7c38;}.cls-13{fill:#e8b156;}.cls-14{fill:#dba34b;}.cls-15{fill:#233a35;}.cls-16{fill:#509f8a;}.cls-17{fill:#307062;}.cls-18{fill:#e0563f;}.cls-19{fill:#3b897e;}.cls-20{fill:#e9eaec;}.cls-21{fill:#55a797;}.cls-22{fill:#1c2d29;}</style></defs><g id="Layer_1"><g><g id="background"><path class="cls-2" d="M400,220H0V0H400V220Z"/></g><g id="plane"><path class="cls-5" d="M400,220H0v-41.81H400v41.81Z"/></g><g id="lamp"><path class="cls-21" d="M77.49,188.31c0,.78-11.37,1.4-25.39,1.4-14.02,0-25.39-.63-25.39-1.4,0-.78,11.37-1.4,25.39-1.4,14.02,0,25.39,.63,25.39,1.4Z"/><g><path class="cls-10" d="M39.94,143.32c8.8-11.43,17.6-22.86,26.39-34.29,.96,.74,1.91,1.47,2.87,2.21-9.02,11.72-18.04,23.44-27.06,35.16,4.07,13.34,8.13,26.69,12.2,40.03-1.16,.35-2.31,.7-3.47,1.06-3.81-12.52-7.63-25.04-11.44-37.56-.43-1.42-.87-2.84-1.3-4.26,.6-.78,1.21-1.57,1.81-2.35Z"/><g><circle class="cls-3" cx="84.84" cy="121.41" r="10.57"/><path class="cls-1" d="M88.16,124.73s0,0,0,0c2.92-2.92,2.92-7.66,0-10.59-3.67-3.67-7.33-7.33-11-11-2.92-2.92-7.66-2.92-10.59,0t0,0c-2.92,2.92-2.92,7.66,0,10.59,3.67,3.67,7.33,7.33,11,11,2.92,2.92,7.66,2.92,10.59,0Z"/><path class="cls-1" d="M74.34,110.92c8-8,20.96-8,28.96,0-9.65,9.65-19.31,19.31-28.96,28.96-8-8-8-20.96,0-28.96Z"/></g><path class="cls-1" d="M29.39,188.32c15.15,0,30.29,0,45.44,0v-3.62c-15.15,0-30.29,0-45.44,0,0,1.21,0,2.42,0,3.62Z"/></g></g><g id="books_and_cup"><path class="cls-21" d="M387.73,191.05c0,.98-16.28,1.78-36.36,1.78-20.08,0-36.36-.8-36.36-1.78,0-.98,16.28-1.78,36.36-1.78,20.08,0,36.36,.8,36.36,1.78Z"/><g><g><path class="cls-3" d="M347.79,129.79c-.87,1.2-1.04,2.78-.56,4.16,.32,.91,.78,1.74,.98,2.69,.25,1.18-.51,2.36-1.06,3.35-.13,.23-.06,.56,.18,.68,.24,.12,.55,.06,.68-.18,.38-.68,.75-1.37,.99-2.12,.24-.75,.29-1.55,.11-2.32-.08-.34-.2-.66-.33-.98-.13-.3-.26-.6-.39-.9-.21-.55-.46-1.19-.47-1.8,0-.55,.17-1.12,.43-1.61,.09-.17,.19-.33,.3-.48,.15-.21,.04-.57-.18-.68-.26-.14-.52-.05-.68,.18Z"/><path class="cls-3" d="M351,129.79c-.87,1.2-1.04,2.78-.56,4.16,.32,.91,.78,1.74,.98,2.69,.25,1.18-.51,2.36-1.06,3.35-.13,.23-.06,.56,.18,.68,.24,.12,.55,.06,.68-.18,.38-.68,.75-1.37,.99-2.12,.24-.75,.29-1.55,.11-2.32-.08-.34-.2-.66-.33-.98-.13-.3-.26-.6-.39-.9-.21-.55-.46-1.19-.47-1.8,0-.55,.17-1.12,.43-1.61,.09-.17,.19-.33,.3-.48,.15-.21,.04-.57-.18-.68-.26-.14-.52-.05-.68,.18Z"/><path class="cls-3" d="M354.35,129.79c-.87,1.2-1.04,2.78-.56,4.16,.32,.91,.78,1.74,.98,2.69,.25,1.18-.51,2.36-1.06,3.35-.13,.23-.06,.56,.18,.68,.24,.12,.55,.06,.68-.18,.38-.68,.75-1.37,.99-2.12,.24-.75,.29-1.55,.11-2.32-.08-.34-.2-.66-.33-.98-.13-.3-.26-.6-.39-.9-.21-.55-.46-1.19-.47-1.8,0-.55,.17-1.12,.43-1.61,.09-.17,.19-.33,.3-.48,.15-.21,.04-.57-.18-.68-.26-.14-.52-.05-.68,.18Z"/></g><g><path class="cls-13" d="M360.59,151.64c0-.85,0-1.71,0-2.56,2.46,0,4.91,0,7.37,0,1.41,0,2.56,1.15,2.56,2.56,0,3.79,0,7.58,0,11.37,0,.71-.29,1.35-.75,1.81-.46,.46-1.1,.75-1.81,.75-2.46,0-4.91,0-7.37,0,0-.85,0-1.71,0-2.56h7.37c0-3.79,0-7.58,0-11.37-2.46,0-4.91,0-7.37,0Z"/><path class="cls-14" d="M351.37,142.33c-6.24,0-11.31,.71-11.31,1.59,0,8.94,0,17.87,0,26.81,0,.88,5.06,1.59,11.31,1.59,6.24,0,11.31-.71,11.31-1.59v-26.81c0-.88-5.06-1.59-11.31-1.59Z"/><path class="cls-12" d="M360.88,144.78c-2.01,.44-5.52,.73-9.51,.73-3.99,0-7.5-.29-9.51-.73,2.01-.44,5.52-.73,9.51-.73,3.99,0,7.5,.29,9.51,.73Z"/><path class="cls-10" d="M351.37,145.51c-6.24,0-11.31-.71-11.31-1.59,0,8.94,0,17.87,0,26.81,0,.88,5.06,1.59,11.31,1.59,6.24,0,11.31-.71,11.31-1.59v-26.81c0,.88-5.06,1.59-11.31,1.59Z"/><path class="cls-13" d="M362.68,170.73v-26.81c0,.15-.14,.29-.41,.42-1.8,3.99-9.58,19.77-22.21,25.89,0,.17,0,.33,0,.5,0,.88,5.06,1.59,11.31,1.59,6.24,0,11.31-.71,11.31-1.59Z"/></g></g><g><path class="cls-10" d="M384.06,183.88c0,1.4,0,2.79,0,4.19,0,1.65-1.34,2.98-2.98,2.98-20.72,0-41.44,0-62.16,0,0-.43,0-.86,0-1.3,.25,0,.51,0,.76,0v-7.56c-.25,0-.51,0-.76,0,0-.43,0-.86,0-1.3,20.72,0,41.44,0,62.16,0,1.65,0,2.99,1.34,2.98,2.98Z"/><path class="cls-13" d="M348.69,183.88c0,1.4,0,2.79,0,4.19,0,1.65-1.34,2.98-2.98,2.98-8.93,0-17.86,0-26.79,0,0-.43,0-.86,0-1.3,.25,0,.51,0,.76,0v-7.56c-.25,0-.51,0-.76,0,0-.43,0-.86,0-1.3,8.93,0,17.86,0,26.79,0,1.65,0,2.98,1.34,2.98,2.98Z"/><path class="cls-3" d="M345.15,189.75c-8.49,0-16.98,0-25.47,0,0-2.52,0-5.04,0-7.56,8.49,0,16.98,0,25.47,0,1.24,0,2.24,1,2.24,2.24v3.09c0,1.24-1,2.24-2.24,2.24Z"/><path class="cls-20" d="M347.39,184.43v.39h-27.71v-.51c9.24,0,18.47,0,27.71,0,0,.04,0,.08,0,.12Z"/><path class="cls-20" d="M347.39,186.85v.51h-27.71v-.51h27.71Z"/><path class="cls-20" d="M347.32,188.06c-.04,.18-.11,.35-.2,.51h-27.44v-.51h27.64Z"/></g><g><path class="cls-1" d="M382.78,173.72c0,1.4,0,2.79,0,4.19,0,1.65-1.34,2.98-2.98,2.98h-62.16c0-.43,0-.86,0-1.3,.25,0,.51,0,.76,0,0-2.52,0-5.04,0-7.56-.25,0-.51,0-.76,0,0-.43,0-.86,0-1.3,20.72,0,41.44,0,62.16,0,1.65,0,2.98,1.34,2.98,2.98Z"/><path class="cls-18" d="M347.41,173.72c0,1.4,0,2.79,0,4.19,0,1.65-1.34,2.98-2.98,2.98h-26.79c0-.43,0-.86,0-1.3,.25,0,.51,0,.76,0,0-2.52,0-5.04,0-7.56-.25,0-.51,0-.76,0,0-.43,0-.86,0-1.3,8.93,0,17.86,0,26.79,0,1.65,0,2.98,1.34,2.98,2.98Z"/><path class="cls-3" d="M343.87,179.6h-25.47c0-2.52,0-5.04,0-7.56h25.47c1.24,0,2.24,1,2.24,2.24,0,1.03,0,2.06,0,3.09,0,1.24-1,2.24-2.24,2.24Z"/><path class="cls-20" d="M346.11,174.27v.39c-9.24,0-18.47,0-27.71,0v-.51h27.71s0,.08,0,.12Z"/><path class="cls-20" d="M346.11,176.69v.51h-27.71v-.51h27.71Z"/><path class="cls-20" d="M346.04,177.91c-.04,.18-.11,.35-.2,.51h-27.44v-.51c9.21,0,18.43,0,27.64,0Z"/></g></g><g id="plant_right"><path class="cls-21" d="M315.33,184.99c0,.89-7.46,1.62-16.67,1.62-9.21,0-16.67-.72-16.67-1.62,0-.89,7.46-1.62,16.67-1.62,9.21,0,16.67,.72,16.67,1.62Z"/><g><g><path class="cls-6" d="M298.82,122.67c-2.71,6.18-3.63,13.01-3.8,19.75-.17,6.75,.36,13.49,.4,20.24,1.54,1.55,3.08,3.11,4.62,4.66,.63-7.55,2.18-15,2.64-22.56,.46-7.56-.25-15.43-3.86-22.09Z"/><path class="cls-11" d="M308.97,125.36c-3.49,4.98-5.49,10.87-6.6,16.85-1.11,5.98-1.36,12.07-1.61,18.15,1.01,1.35,2.02,2.7,3.02,4.05,1.96-6.25,3.54-12.63,4.73-19.08,1.21-6.6,2.01-13.44,.46-19.97Z"/><path class="cls-16" d="M296.74,148.66c-1.04-7.49-4.25-14.49-5.95-21.85-2.71,10.17-2.21,21.16,1.4,31.04,1.42,2.81,2.85,5.63,4.27,8.44,.54-5.87,1.09-11.79,.28-17.63Z"/><path class="cls-4" d="M292.34,150.33c-1.2-3.05-2.82-5.97-5.09-8.34-2.12-2.22-4.75-3.89-6.96-6.01,.68,4,2.06,7.88,4.07,11.4,1.09,1.91,2.36,3.71,3.39,5.65,1.03,1.94,1.83,4.06,1.88,6.26,1.83,.15,3.67,.3,5.5,.45-.8-3.18-1.6-6.36-2.8-9.41Z"/><path class="cls-9" d="M309.76,140.45c-3.95,5.74-7.06,12.05-9.23,18.67,1.89,1.76,3.79,3.53,5.68,5.29,2.57-10.57,6.11-20.9,10.58-30.82-2.98,1.44-5.15,4.13-7.03,6.86Z"/><path class="cls-8" d="M308.43,150.55c-2.05,2.43-3.38,5.46-3.76,8.62,1.59,1.34,3.17,2.67,4.76,4.01,.29-6.45,2.75-12.79,6.87-17.76-3.05,.9-5.82,2.71-7.87,5.14Z"/><path class="cls-8" d="M288.47,150.55c2.05,2.43,3.37,5.46,3.76,8.62-1.59,1.34-3.17,2.67-4.76,4.01-.29-6.45-2.75-12.79-6.87-17.76,3.05,.9,5.82,2.71,7.87,5.14Z"/><path class="cls-17" d="M298.3,148.03c1.8-4.22,4.16-8.18,6.72-11.98,.1,4.18,.21,8.38-.28,12.53-.49,4.15-1.59,8.29-3.75,11.87-2,.28-4,.57-6,.85,.28-4.58,1.52-9.06,3.32-13.28Z"/><path class="cls-19" d="M291.42,143.07c.03-.15,.09-.33,.24-.35,.13-.02,.23,.1,.31,.2,3.58,4.65,6.6,9.73,8.99,15.1-3.11,.53-6.21,1.06-9.32,1.58-1.18-5.42-1.26-11.08-.23-16.53Z"/></g><path class="cls-10" d="M316.57,155.86c-1.68,9.42-3.37,18.84-5.05,28.26,0,.96-5.81,1.74-12.98,1.74-7.17,0-12.98-.78-12.98-1.74-1.68-9.42-3.37-18.84-5.05-28.26,12.02,0,24.04,0,36.07,0Z"/></g></g><g id="plant_left"><path class="cls-21" d="M93.12,185.49c0,.62,5.87,1.12,13.1,1.12,7.24,0,13.1-.5,13.1-1.12,0-.62-5.87-1.12-13.1-1.12-7.24,0-13.1,.5-13.1,1.12Z"/><g><g><path class="cls-11" d="M96.8,128.4c5.51,9.7,8.72,20.69,9.32,31.83-.2,2.26-.41,4.52-.61,6.78-2.11-4.69-4.23-9.38-5.85-14.26-1.62-4.88-2.74-9.96-2.8-15.1-.04-3.09,.31-6.19-.05-9.26Z"/><path class="cls-17" d="M100.03,150.9c2.65,5.17,4.84,10.65,5.7,16.39-1.57-1.81-3.14-3.61-4.71-5.42-5.98-7.32-9.42-16.69-9.59-26.14,2.84,5.07,5.95,9.99,8.6,15.16Z"/><path class="cls-9" d="M104.56,124.92c1.74,5.19,5.55,9.49,7.32,14.66,1.34,3.92,1.46,8.18,.89,12.28-.56,4.1-1.78,8.09-3.05,12.03-1.92,1.04-3.85,2.08-5.77,3.12,.14-5.68,.27-11.37-.27-17.02-.4-4.23-1.18-8.43-1.36-12.67-.18-4.25,.29-8.63,2.24-12.4Z"/><path class="cls-8" d="M112.6,143.92c1.18-3.18,2.91-6.13,4.81-8.93-.06,5.1-.27,10.22-1.17,15.24-.9,5.02-2.52,9.96-5.22,14.28-.2,.34-.4,.67-.61,1.01-.19-7.28-.34-14.77,2.19-21.6Z"/></g><path class="cls-10" d="M98.01,183.61c5.48,0,10.95,0,16.43,0,2.5-8.59,4.99-17.19,7.49-25.78-10.47,0-20.93,0-31.4,0,2.49,8.59,4.99,17.19,7.49,25.78Z"/><path class="cls-1" d="M95.04,185.51c7.45,0,14.91,0,22.36,0,0-.86,0-1.72,0-2.59-7.45,0-14.91,0-22.36,0,0,.86,0,1.72,0,2.59Z"/></g></g><g id="text"><path class="cls-3" d="M119.55,60.23h-1.76l-3-12.88h1.62l2.42,10.6,2.78-9.18v-1.42h1.34l3,10.6,2.46-10.6h1.6l-2.98,12.88h-1.74l-2.8-9.8-2.94,9.8Z"/><path class="cls-3" d="M143.14,58.83c-.97,1.07-2.46,1.6-4.49,1.6s-3.52-.53-4.49-1.6c-.97-1.07-1.45-2.75-1.45-5.04s.48-3.97,1.45-5.04c.97-1.07,2.46-1.6,4.49-1.6s3.52,.53,4.49,1.6c.97,1.07,1.45,2.75,1.45,5.04s-.48,3.97-1.45,5.04Zm-.65-8.11c-.31-.77-.77-1.32-1.4-1.66-.63-.34-1.44-.51-2.44-.51s-1.81,.17-2.44,.51c-.63,.34-1.09,.89-1.4,1.66-.31,.77-.46,1.79-.46,3.07s.15,2.3,.46,3.07c.31,.77,.77,1.32,1.4,1.66,.63,.34,1.44,.51,2.44,.51s1.81-.17,2.44-.51c.63-.34,1.09-.89,1.4-1.66,.31-.77,.46-1.79,.46-3.07s-.15-2.3-.46-3.07Z"/><path class="cls-3" d="M157.93,53.72c-.47,.62-1.15,1.04-2.04,1.25,.25,.15,.45,.32,.58,.51,.13,.19,.29,.48,.46,.87l1.68,3.88h-1.68l-1.64-3.74c-.19-.43-.41-.72-.67-.88-.26-.16-.68-.24-1.27-.24h-2.72v4.86h-1.64v-12.88h5.66c1.35,0,2.35,.35,3,1.05,.65,.7,.98,1.68,.98,2.95,0,.96-.23,1.75-.7,2.37Zm-.94-2.37c0-1.8-.86-2.7-2.58-2.7h-3.78v5.44h3.56c1.87,0,2.8-.91,2.8-2.74Z"/><path class="cls-3" d="M172.77,60.23h-1.76l-4.24-6.66-2.1,2.22v4.44h-1.64v-12.88h1.64v6.38l6.02-6.38h1.92l-4.8,5.16,4.96,7.72Z"/><path class="cls-3" d="M177.17,47.35h1.64v12.88h-1.64v-12.88Z"/><path class="cls-3" d="M185.25,60.23h-1.64v-12.88h1.48l7.34,10.36v-10.36h1.64v12.88h-1.5l-7.32-10.34v10.34Z"/><path class="cls-3" d="M207.83,58.51v-4.1h-3.44v-1.12h4.86v6.12c-1.07,.68-2.6,1.02-4.6,1.02s-3.56-.57-4.61-1.7c-1.05-1.13-1.57-2.69-1.57-4.66,0-2.19,.5-3.89,1.51-5.1,1.01-1.21,2.56-1.82,4.65-1.82,1.37,0,2.62,.2,3.74,.6v1.44c-1.13-.43-2.33-.64-3.6-.64-1.67,0-2.86,.47-3.58,1.4-.72,.93-1.08,2.31-1.08,4.12,0,1.63,.37,2.86,1.12,3.7,.75,.84,1.92,1.26,3.52,1.26,1.16,0,2.19-.17,3.08-.52Z"/><path class="cls-3" d="M230.72,59.51c-.83,.61-2.06,.92-3.69,.92s-2.89-.2-3.88-.6v-1.46c1.17,.44,2.42,.66,3.74,.66,1.19,0,2.06-.16,2.61-.48,.55-.32,.83-.88,.83-1.68,0-.49-.12-.89-.35-1.19-.23-.3-.6-.55-1.1-.76-.5-.21-1.23-.42-2.19-.65-1.41-.35-2.41-.79-2.98-1.34-.57-.55-.86-1.29-.86-2.24,0-1.12,.4-1.99,1.21-2.61,.81-.62,2-.93,3.57-.93,.69,0,1.36,.05,2.01,.15,.65,.1,1.16,.22,1.55,.35v1.44c-1.01-.36-2.11-.54-3.3-.54s-1.98,.17-2.55,.5c-.57,.33-.85,.88-.85,1.64,0,.44,.1,.79,.3,1.06,.2,.27,.54,.5,1.01,.69,.47,.19,1.18,.4,2.11,.63,1.51,.36,2.56,.84,3.16,1.45,.6,.61,.9,1.39,.9,2.35,0,1.15-.42,2.03-1.25,2.64Z"/><path class="cls-3" d="M244.86,54.48c-.77,.73-1.81,1.09-3.13,1.09h-3.72v4.66h-1.64v-12.88h5.44c1.39,0,2.43,.38,3.14,1.13,.71,.75,1.06,1.76,1.06,3.03s-.38,2.24-1.15,2.97Zm-1.23-.93c.49-.49,.74-1.17,.74-2.04,0-.92-.23-1.63-.7-2.12-.47-.49-1.17-.74-2.1-.74h-3.56v5.64h3.46c.95,0,1.67-.25,2.16-.74Z"/><path class="cls-3" d="M249.31,60.23h-1.7l4.9-12.88h1.92l4.88,12.88h-1.68l-1.36-3.54h-5.6l-1.36,3.54Zm1.64-4.84h5.02l-2.52-6.62-2.5,6.62Z"/><path class="cls-3" d="M272.11,58.45v1.46c-1.12,.35-2.36,.52-3.72,.52-2.03,0-3.56-.57-4.61-1.7-1.05-1.13-1.57-2.69-1.57-4.66,0-2.19,.5-3.89,1.51-5.1,1.01-1.21,2.56-1.82,4.65-1.82,1.37,0,2.62,.2,3.74,.6v1.44c-1.13-.43-2.33-.64-3.6-.64-1.67,0-2.86,.47-3.58,1.4-.72,.93-1.08,2.31-1.08,4.12,0,3.31,1.57,4.96,4.7,4.96,1.35,0,2.53-.19,3.56-.58Z"/><path class="cls-3" d="M276.51,47.35h8.7v1.3h-7.06v4.5h6.34v1.28h-6.34v4.52h7.06v1.28h-8.7v-12.88Z"/></g><g id="blank"><path class="cls-21" d="M288.59,210.38H111.39c-.48,0-.73-.56-.42-.92,5.1-5.86,10.2-11.72,15.3-17.57h147.44c5.1,5.86,10.2,11.72,15.3,17.57,.31,.36,.06,.92-.42,.92Z"/><g><g><path class="cls-15" d="M268.28,179.36H131.72V96.67c0-1.87,1.49-3.38,3.32-3.38,43.3,0,86.61,0,129.91,0,1.83,0,3.32,1.51,3.32,3.38,0,27.56,0,55.13,0,82.69Z"/><path class="cls-20" d="M264.25,171.3c-42.83,0-85.67,0-128.5,0,0-23.58,0-47.16,0-70.75h128.5c0,23.58,0,47.16,0,70.75Z"/></g><g><path class="cls-22" d="M287.64,204.2c-7.58-8.62-13.94-15.86-19.36-22.03-45.52,0-91.04,0-136.56,0-5.42,6.17-11.78,13.41-19.36,22.03-.66,0-1.32,0-1.99,0,.49,.2,.98,.39,1.47,.59,0,0,0,0,0,0,.64,.26,1.29,.52,1.93,.78,.72,.29,1.44,.58,2.15,.87,2.64,1.06,5.46,1.61,8.31,1.61h151.54c2.85,0,5.67-.55,8.31-1.61,1.36-.55,2.72-1.1,4.08-1.64,0,0,0,0,0,0,.49-.2,.98-.39,1.47-.59-.67,0-1.33,0-2,0Z"/><g><path class="cls-20" d="M286.6,204.71c-57.73,0-115.46,0-173.2,0-2.45,0-3.9-.6-3.25-1.34,8.56-9.74,15.63-17.78,21.57-24.54,45.52,0,91.04,0,136.56,0,5.94,6.76,13.01,14.8,21.57,24.54,.65,.73-.81,1.34-3.25,1.34Z"/><path class="cls-7" d="M274.56,195.68c-49.71,0-99.42,0-149.13,0,4.23-5.37,8.01-10.16,11.41-14.46,42.11,0,84.21,0,126.32,0,3.39,4.3,7.17,9.09,11.41,14.46Z"/><g><path class="cls-15" d="M229.11,194.42c-21.02,0-42.04,0-63.06,0,.22-.59,.43-1.18,.64-1.75,.07-.19,.71-.35,1.42-.35,20.55,0,41.09,0,61.64,0,.19,.57,.38,1.15,.57,1.74,.07,.2-.48,.36-1.21,.36Z"/><path class="cls-15" d="M138.7,194.42c-2.72,0-5.44,0-8.16,0,.44-.59,.88-1.18,1.31-1.75,.14-.19,.84-.35,1.56-.35,2.66,0,5.32,0,7.98,0-.37,.57-.74,1.15-1.12,1.74-.13,.2-.83,.36-1.56,.36Z"/><path class="cls-15" d="M144.88,185.03c-2.45,0-4.89,0-7.34,0,.36-.48,.71-.95,1.06-1.42,.12-.16,.73-.28,1.38-.28,2.4,0,4.79,0,7.19,0-.3,.46-.6,.93-.91,1.41-.11,.16-.72,.29-1.38,.29Z"/><path class="cls-15" d="M155.94,191.88h-23.51c.42-.56,.83-1.11,1.24-1.66,.14-.18,.81-.33,1.51-.33,7.66,0,15.33,0,22.99,0-.26,.54-.51,1.09-.78,1.65-.09,.19-.74,.34-1.45,.34Z"/><path class="cls-15" d="M153.54,189.48c-6.44,0-12.88,0-19.31,0,.39-.53,.79-1.05,1.17-1.57,.13-.17,.78-.31,1.46-.31,6.3,0,12.6,0,18.9,0-.26,.51-.53,1.03-.8,1.56-.09,.18-.73,.33-1.42,.33Z"/><path class="cls-15" d="M266.28,191.88h-13.24c-.33-.56-.65-1.11-.97-1.66-.11-.18,.37-.33,1.07-.33,4.32,0,8.63,0,12.95,0,.4,.54,.81,1.09,1.23,1.65,.14,.19-.32,.34-1.03,.34Z"/><path class="cls-15" d="M150.54,194.42c-2.72,0-5.44,0-8.16,0,.37-.59,.73-1.18,1.08-1.75,.12-.19,.8-.35,1.51-.35,2.66,0,5.32,0,7.98,0-.3,.57-.59,1.15-.9,1.74-.1,.2-.78,.36-1.51,.36Z"/><path class="cls-15" d="M240.95,194.42c-2.72,0-5.44,0-8.16,0-.21-.59-.41-1.18-.62-1.75-.07-.19,.46-.35,1.17-.35,2.66,0,5.32,0,7.97,0,.26,.57,.52,1.15,.79,1.74,.09,.2-.43,.36-1.16,.36Z"/><path class="cls-15" d="M250.64,194.42c-2,0-4.01,0-6.01,0-.1-.21-.2-.41-.29-.62-.1-.2,.41-.36,1.14-.36,1.98,0,3.97,0,5.95,0,.11,.2,.23,.41,.34,.61,.11,.2-.39,.36-1.12,.36Z"/><path class="cls-15" d="M146.23,182.97c-2.39,0-4.77,0-7.16,0,.13-.17,.26-.35,.39-.52,.11-.15,.72-.28,1.36-.28,2.36,0,4.73,0,7.09,0-.11,.17-.22,.34-.33,.52-.1,.15-.7,.28-1.34,.28Z"/><path class="cls-15" d="M259.77,182.97c-2.39,0-4.77,0-7.16,0-.11-.17-.22-.35-.33-.52-.1-.15,.34-.28,.97-.28,2.36,0,4.73,0,7.09,0,.13,.17,.26,.34,.39,.52,.12,.15-.31,.28-.95,.28Z"/><path class="cls-15" d="M268.13,194.42c-2,0-4.01,0-6.01,0-.14-.21-.27-.41-.41-.62-.13-.2,.35-.36,1.07-.36,1.98,0,3.97,0,5.95,0,.15,.2,.3,.41,.46,.61,.15,.2-.32,.36-1.05,.36Z"/><path class="cls-15" d="M259.39,194.42c-2,0-4.01,0-6.01,0-.12-.21-.24-.41-.35-.62-.11-.2,.38-.36,1.11-.36,1.98,0,3.96,0,5.95,0,.13,.2,.26,.41,.4,.61,.13,.2-.36,.36-1.09,.36Z"/><path class="cls-15" d="M258.65,193.27c-1.98,0-3.96,0-5.94,0-.11-.2-.23-.4-.34-.6-.11-.19,.38-.35,1.09-.35,1.96,0,3.92,0,5.88,0,.13,.2,.26,.4,.39,.6,.13,.2-.35,.36-1.08,.35Z"/><path class="cls-15" d="M162.38,194.42c-2.72,0-5.44,0-8.16,0,.29-.59,.58-1.18,.86-1.75,.09-.19,.75-.35,1.47-.35,2.66,0,5.32,0,7.98,0-.22,.57-.45,1.15-.68,1.74-.08,.2-.74,.36-1.47,.36Z"/><path class="cls-15" d="M168.16,191.88h-7.94c.25-.56,.49-1.11,.73-1.66,.08-.18,.71-.33,1.41-.33,2.59,0,5.17,0,7.76,0-.18,.54-.37,1.09-.55,1.65-.06,.19-.69,.34-1.4,.34Z"/><path class="cls-15" d="M179.67,191.88h-7.94c.17-.56,.35-1.11,.52-1.66,.06-.18,.67-.33,1.36-.33,2.59,0,5.17,0,7.76,0-.11,.54-.23,1.09-.35,1.65-.04,.19-.65,.34-1.36,.34Z"/><path class="cls-15" d="M148.31,187.19c-4.13,0-8.26,0-12.39,0,.38-.5,.75-1,1.11-1.49,.12-.17,.76-.3,1.42-.3,4.04,0,8.09,0,12.13,0-.29,.49-.58,.98-.87,1.48-.1,.17-.73,.31-1.4,.31Z"/><path class="cls-15" d="M264.51,189.47c-5.49,0-10.97,0-16.46,0-.29-.53-.57-1.05-.86-1.57-.1-.17,.38-.31,1.06-.31,5.37,0,10.74,0,16.11,0,.38,.51,.77,1.03,1.16,1.56,.13,.18-.32,.33-1.01,.33Z"/><path class="cls-15" d="M191.19,191.88h-7.94c.1-.56,.21-1.11,.31-1.66,.03-.18,.63-.33,1.32-.33,2.59,0,5.18,0,7.76,0-.05,.54-.09,1.09-.14,1.65-.02,.19-.6,.34-1.32,.34Z"/><path class="cls-15" d="M202.7,191.88h-7.94c.03-.56,.06-1.11,.1-1.66,.01-.18,.58-.33,1.28-.33,2.59,0,5.17,0,7.76,0,.02,.54,.05,1.09,.07,1.65,0,.19-.56,.34-1.27,.34Z"/><path class="cls-15" d="M214.21,191.88h-7.94c-.04-.56-.08-1.11-.11-1.66-.01-.18,.54-.33,1.24-.33,2.59,0,5.17,0,7.76,0,.09,.54,.19,1.09,.28,1.65,.03,.19-.52,.34-1.23,.34Z"/><path class="cls-15" d="M225.73,191.88h-7.94c-.11-.56-.22-1.11-.33-1.66-.04-.18,.5-.33,1.2-.33,2.59,0,5.17,0,7.76,0,.16,.54,.33,1.09,.49,1.65,.06,.19-.47,.34-1.19,.34Z"/><path class="cls-15" d="M237.24,191.88h-7.94c-.18-.56-.36-1.11-.54-1.66-.06-.18,.46-.33,1.15-.33,2.59,0,5.17,0,7.76,0,.23,.54,.46,1.09,.7,1.65,.08,.19-.43,.34-1.14,.34Z"/><path class="cls-15" d="M248.76,191.88h-7.94c-.25-.56-.5-1.11-.75-1.66-.08-.18,.42-.33,1.11-.33,2.59,0,5.18,0,7.76,0,.3,.54,.6,1.09,.91,1.65,.11,.19-.39,.34-1.1,.34Z"/><path class="cls-15" d="M165.43,189.48c-2.58,0-5.15,0-7.73,0,.25-.53,.51-1.05,.75-1.57,.08-.17,.7-.31,1.38-.31,2.52,0,5.04,0,7.56,0-.19,.51-.39,1.03-.59,1.56-.07,.18-.69,.33-1.38,.33Z"/><path class="cls-15" d="M176.64,189.48c-2.58,0-5.15,0-7.73,0,.19-.53,.37-1.05,.55-1.57,.06-.17,.66-.31,1.34-.31,2.52,0,5.04,0,7.56,0-.13,.51-.26,1.03-.39,1.56-.04,.18-.64,.33-1.34,.33Z"/><path class="cls-15" d="M187.85,189.48c-2.58,0-5.15,0-7.73,0,.12-.53,.24-1.05,.35-1.57,.04-.17,.62-.31,1.3-.31,2.52,0,5.04,0,7.56,0-.06,.51-.13,1.03-.19,1.56-.02,.18-.6,.33-1.29,.33Z"/><path class="cls-15" d="M199.06,189.48c-2.58,0-5.15,0-7.73,0,.05-.53,.1-1.05,.15-1.57,.02-.17,.58-.31,1.26-.31,2.52,0,5.04,0,7.56,0,0,.51,0,1.03,0,1.56,0,.18-.56,.33-1.25,.33Z"/><path class="cls-15" d="M210.27,189.48c-2.58,0-5.15,0-7.73,0-.02-.53-.03-1.05-.05-1.57,0-.17,.54-.31,1.22-.31,2.52,0,5.04,0,7.56,0,.07,.51,.13,1.03,.2,1.56,.02,.18-.52,.33-1.21,.33Z"/><path class="cls-15" d="M221.48,189.48c-2.58,0-5.15,0-7.73,0-.08-.53-.16-1.05-.24-1.57-.03-.17,.5-.31,1.18-.31,2.52,0,5.04,0,7.56,0,.13,.51,.27,1.03,.4,1.56,.05,.18-.48,.33-1.17,.33Z"/><path class="cls-15" d="M232.69,189.48c-2.58,0-5.15,0-7.73,0-.15-.53-.3-1.05-.44-1.57-.05-.17,.46-.31,1.14-.31,2.52,0,5.04,0,7.56,0,.2,.51,.4,1.03,.6,1.56,.07,.18-.44,.33-1.13,.33Z"/><path class="cls-15" d="M243.89,189.48c-2.58,0-5.15,0-7.73,0-.22-.53-.43-1.05-.64-1.57-.07-.17,.42-.31,1.1-.31,2.52,0,5.04,0,7.56,0,.26,.51,.53,1.03,.8,1.56,.09,.18-.4,.33-1.09,.33Z"/><path class="cls-15" d="M159.9,187.19c-2.51,0-5.02,0-7.53,0,.28-.5,.55-1,.83-1.49,.09-.17,.7-.3,1.36-.3,2.46,0,4.91,0,7.37,0-.22,.49-.44,.98-.67,1.48-.08,.17-.69,.31-1.36,.31Z"/><path class="cls-15" d="M170.82,187.19c-2.51,0-5.02,0-7.53,0,.21-.5,.43-1,.64-1.49,.07-.17,.66-.3,1.32-.3,2.46,0,4.91,0,7.37,0-.16,.49-.32,.98-.48,1.48-.06,.17-.65,.31-1.32,.31Z"/><path class="cls-15" d="M181.74,187.19c-2.51,0-5.02,0-7.53,0,.15-.5,.3-1,.45-1.49,.05-.17,.62-.3,1.29-.3,2.46,0,4.91,0,7.37,0-.1,.49-.19,.98-.29,1.48-.03,.17-.61,.31-1.28,.31Z"/><path class="cls-15" d="M192.66,187.19c-2.51,0-5.02,0-7.53,0,.09-.5,.17-1,.26-1.49,.03-.17,.59-.3,1.25-.3,2.46,0,4.91,0,7.37,0-.03,.49-.07,.98-.11,1.48-.01,.17-.57,.31-1.24,.31Z"/><path class="cls-15" d="M203.57,187.19c-2.51,0-5.02,0-7.53,0,.02-.5,.05-1,.07-1.49,0-.17,.55-.3,1.21-.3,2.46,0,4.91,0,7.37,0,.03,.49,.06,.98,.08,1.48,.01,.17-.53,.31-1.2,.31Z"/><path class="cls-15" d="M214.49,187.19c-2.51,0-5.02,0-7.53,0-.04-.5-.08-1-.12-1.49-.01-.17,.51-.3,1.17-.3,2.46,0,4.91,0,7.37,0,.09,.49,.18,.98,.27,1.48,.03,.17-.49,.31-1.17,.31Z"/><path class="cls-15" d="M225.41,187.19c-2.51,0-5.02,0-7.53,0-.1-.5-.21-1-.31-1.49-.03-.17,.47-.3,1.13-.3,2.46,0,4.91,0,7.37,0,.15,.49,.3,.98,.46,1.48,.05,.17-.45,.31-1.13,.31Z"/><path class="cls-15" d="M236.33,187.19c-2.51,0-5.02,0-7.53,0-.17-.5-.34-1-.5-1.49-.06-.17,.44-.3,1.1-.3,2.46,0,4.91,0,7.37,0,.21,.49,.43,.98,.65,1.48,.07,.17-.41,.31-1.09,.31Z"/><path class="cls-15" d="M247.32,187.19c-2.51,0-5.02,0-7.53,0-.23-.5-.46-1-.69-1.49-.08-.17,.4-.3,1.06-.3,2.46,0,4.91,0,7.37,0,.28,.49,.55,.98,.84,1.48,.1,.17-.37,.31-1.05,.31Z"/><path class="cls-15" d="M156.17,185.03c-2.45,0-4.89,0-7.34,0,.29-.48,.58-.95,.87-1.42,.1-.16,.7-.28,1.34-.28,2.4,0,4.79,0,7.19,0-.24,.46-.47,.93-.72,1.41-.08,.16-.68,.29-1.34,.29Z"/><path class="cls-15" d="M166.81,185.03c-2.45,0-4.89,0-7.34,0,.23-.48,.46-.95,.69-1.42,.08-.16,.66-.28,1.3-.28,2.4,0,4.79,0,7.19,0-.18,.46-.36,.93-.54,1.41-.06,.16-.64,.29-1.3,.29Z"/><path class="cls-15" d="M177.46,185.03c-2.45,0-4.89,0-7.34,0,.17-.48,.34-.95,.51-1.42,.06-.16,.62-.28,1.27-.28,2.4,0,4.79,0,7.19,0-.12,.46-.24,.93-.36,1.41-.04,.16-.61,.29-1.27,.29Z"/><path class="cls-15" d="M188.1,185.03c-2.45,0-4.89,0-7.34,0,.11-.48,.22-.95,.33-1.42,.04-.16,.59-.28,1.23-.28,2.4,0,4.79,0,7.19,0-.06,.46-.12,.93-.18,1.41-.02,.16-.57,.29-1.23,.29Z"/><path class="cls-15" d="M198.75,185.03c-2.45,0-4.89,0-7.34,0,.05-.48,.1-.95,.15-1.42,.02-.16,.55-.28,1.2-.28,2.4,0,4.79,0,7.19,0,0,.46,0,.93,0,1.41,0,.16-.53,.29-1.19,.29Z"/><path class="cls-15" d="M209.39,185.03c-2.45,0-4.89,0-7.34,0-.01-.48-.02-.95-.03-1.42,0-.16,.52-.28,1.16-.28,2.4,0,4.79,0,7.19,0,.06,.46,.12,.93,.18,1.41,.02,.16-.5,.29-1.15,.29Z"/><path class="cls-15" d="M220.03,185.03c-2.45,0-4.89,0-7.34,0-.07-.48-.14-.95-.21-1.42-.02-.16,.48-.28,1.12-.28,2.4,0,4.79,0,7.19,0,.12,.46,.24,.93,.36,1.41,.04,.16-.46,.29-1.12,.29Z"/><path class="cls-15" d="M230.68,185.03c-2.45,0-4.89,0-7.34,0-.13-.48-.27-.95-.4-1.42-.04-.16,.44-.28,1.09-.28,2.4,0,4.79,0,7.19,0,.18,.46,.36,.93,.54,1.41,.06,.16-.42,.29-1.08,.29Z"/><path class="cls-15" d="M241.38,185.03c-2.45,0-4.89,0-7.34,0-.19-.48-.39-.95-.58-1.42-.06-.16,.41-.28,1.05-.28,2.4,0,4.79,0,7.19,0,.24,.46,.47,.93,.72,1.41,.08,.16-.38,.29-1.04,.29Z"/><path class="cls-15" d="M262.85,187.19c-3.83,0-7.65,0-11.48,0-.3-.5-.6-1-.89-1.49-.1-.17,.36-.3,1.02-.3,3.75,0,7.5,0,11.24,0,.36,.49,.73,.98,1.1,1.48,.13,.17-.32,.31-.99,.31Z"/><path class="cls-15" d="M261.27,185.03c-5.31,0-10.62,0-15.93,0-.26-.48-.51-.95-.77-1.42-.09-.16,.37-.28,1.01-.28,5.2,0,10.41,0,15.61,0,.35,.46,.7,.93,1.05,1.41,.12,.16-.31,.29-.97,.29Z"/><path class="cls-15" d="M168.38,182.97c-2.39,0-4.77,0-7.16,0,.08-.17,.16-.35,.25-.52,.07-.15,.65-.28,1.28-.28,2.36,0,4.73,0,7.09,0-.06,.17-.13,.34-.19,.52-.06,.15-.62,.28-1.27,.28Z"/><path class="cls-15" d="M178.76,182.97c-2.39,0-4.77,0-7.16,0,.06-.17,.12-.35,.18-.52,.05-.15,.61-.28,1.25-.28,2.36,0,4.72,0,7.09,0-.04,.17-.09,.34-.13,.52-.04,.15-.59,.28-1.23,.28Z"/><path class="cls-15" d="M189.15,182.97c-2.39,0-4.77,0-7.16,0,.04-.17,.08-.35,.11-.52,.03-.15,.58-.28,1.21-.28,2.36,0,4.73,0,7.09,0-.02,.17-.04,.34-.06,.52-.02,.15-.55,.28-1.2,.28Z"/><path class="cls-15" d="M203.69,182.95c-2.38,0-4.77,0-7.16,0,0-.17,.01-.35,.02-.52,0-.15,.53-.28,1.16-.28,2.36,0,4.72,0,7.09,0,.01,.17,.02,.34,.03,.52,0,.15-.5,.28-1.15,.28Z"/><path class="cls-15" d="M214.07,182.95c-2.38,0-4.77,0-7.16,0-.01-.17-.03-.35-.04-.52-.01-.15,.49-.28,1.13-.28,2.36,0,4.72,0,7.09,0,.03,.17,.06,.34,.1,.52,.03,.15-.47,.28-1.11,.28Z"/><path class="cls-15" d="M224.45,182.95c-2.38,0-4.77,0-7.16,0-.04-.17-.07-.35-.11-.52-.03-.15,.46-.28,1.09-.28,2.36,0,4.72,0,7.09,0,.05,.17,.11,.34,.16,.52,.05,.15-.43,.28-1.07,.28Z"/><path class="cls-15" d="M238.99,182.95c-2.38,0-4.77,0-7.16,0-.07-.17-.13-.35-.2-.52-.06-.15,.41-.28,1.04-.28,2.36,0,4.72,0,7.09,0,.08,.17,.17,.34,.25,.52,.08,.15-.38,.28-1.02,.28Z"/><path class="cls-15" d="M249.37,182.95c-2.38,0-4.77,0-7.16,0-.09-.17-.18-.35-.27-.52-.08-.15,.37-.28,1.01-.28,2.36,0,4.72,0,7.09,0,.11,.17,.21,.34,.32,.52,.09,.15-.35,.28-.99,.28Z"/></g><path class="cls-7" d="M219.7,203.56c-13.13,0-26.27,0-39.4,0-1.21,0-2.13-.3-2.05-.66,.37-1.74,.73-3.42,1.08-5.05,.07-.33,1.05-.59,2.18-.59,12.33,0,24.65,0,36.98,0,1.14,0,2.11,.26,2.18,.59,.35,1.63,.71,3.31,1.08,5.05,.08,.36-.84,.66-2.05,.66Z"/></g></g></g></g></g></g></svg>