<?xml version="1.0" encoding="UTF-8"?><svg id="_レイヤー_2" xmlns="http://www.w3.org/2000/svg" width="192.78" height="192.78" viewBox="0 0 192.78 192.78"><defs><style>.cls-1,.cls-2{fill:#fff;}.cls-3{fill:#d9d9dd;}.cls-4{stroke:#e6e6e6;stroke-linecap:round;stroke-width:5px;}.cls-4,.cls-2,.cls-5{stroke-miterlimit:10;}.cls-4,.cls-5{fill:none;}.cls-2{stroke:#f92356;stroke-width:8px;}.cls-6{fill:#f7e8bf;}.cls-5{stroke:#fffff9;}.cls-7{fill:#f29555;}.cls-8{fill:#919191;}</style></defs><g id="_レイヤー_1-2"><g><circle class="cls-7" cx="96.39" cy="96.39" r="96.39"/><g><path class="cls-6" d="M136.89,75.79c0-29.33-22.26-53.11-49.72-53.11-22.64,0-41.75,16.17-47.75,38.28-.25,.9-.46,1.82-.66,2.74l-13.46,12.08,12.86,8.81c3.25,20.76,17.75,37.45,36.59,42.63v22.01h27.12v-22.7c20.29-6.69,35.03-26.88,35.03-50.75Z"/><path class="cls-1" d="M39,85.06l43.47-8.78c1.47-.3,2.96,.36,3.73,1.65l10.79,17.99c.86,1.44,.6,3.28-.64,4.42l-27.76,25.55c-1.22,1.13-3.06,1.25-4.42,.29-4.51-3.19-14.25-10.49-17.68-16.49-3.07-5.38-7.48-14.4-9.98-19.64-.99-2.08,.23-4.53,2.49-4.99Z"/><path class="cls-4" d="M79.53,79l18.81-9.74c1.76-.91,4.35,.58,5.76,3.31l6.72,12.98c1.41,2.73,1.13,5.7-.63,6.61l-18.81,9.74"/></g><g><g><path class="cls-3" d="M178.24,93.71l6.51,11.42c1,1.75,.4,4.01-1.34,5s-3.99,.36-4.99-1.39l-1.3-2.28-14.06,8.02-5.21-9.14,20.39-11.63Z"/><path class="cls-1" d="M171.73,82.29l6.51,11.42-20.39,11.63-5.21-9.14,14.06-8.02-1.3-2.28c-1-1.75-.4-4.01,1.34-5s3.99-.36,4.99,1.39Z"/><path class="cls-3" d="M163.06,114.48l3.43,6.02c1.06,1.85,.42,4.23-1.41,5.27l-.45,.26c-1.83,1.05-4.2,.39-5.26-1.47l-.43-.75c.67-1.95,.54-4.17-.56-6.11l-5.45-9.56,3.62-2.06,5.21,9.14,1.3-.74Z"/><rect class="cls-3" x="159.06" y="105.02" width="1.5" height="10.52" transform="translate(-33.65 93.66) rotate(-29.7)"/><rect class="cls-1" x="153.84" y="95.88" width="1.5" height="10.52" transform="translate(-29.8 89.87) rotate(-29.7)"/><path class="cls-1" d="M149.2,90.18l3.43,6.02-1.3,.74,5.21,9.14-3.62,2.06-5.45-9.56c-1.1-1.94-2.95-3.18-4.97-3.59l-.43-.75c-1.06-1.85-.42-4.23,1.41-5.27l.45-.26c1.83-1.05,4.2-.39,5.26,1.47Z"/><path class="cls-3" d="M152.93,108.15l5.45,9.56c1.1,1.94,1.24,4.16,.56,6.11l-8.22-14.41,2.21-1.26Z"/><path class="cls-1" d="M147.48,98.59l5.45,9.56-2.21,1.26-8.22-14.41c2.02,.41,3.87,1.66,4.97,3.59Z"/><path class="cls-3" d="M150.73,109.4l8.22,14.41c-.55,1.62-1.67,3.04-3.26,3.95l-8.1,4.62c.5-.28,.67-.93,.38-1.43l-5.73-10.05c-.29-.5-.93-.68-1.42-.4s-.67,.93-.38,1.43l5.73,10.05c.29,.5,.93,.68,1.42,.4l-9.94,5.67c.5-.28,.67-.93,.38-1.43l-5.73-10.05c-.29-.5-.93-.68-1.42-.4s-.67,.93-.38,1.43l5.73,10.05c.29,.5,.93,.68,1.42,.4l-9.94,5.67c.5-.28,.67-.93,.38-1.43l-5.73-10.05c-.29-.5-.93-.68-1.42-.4s-.67,.93-.38,1.43l5.73,10.05c.29,.5,.93,.68,1.42,.4l-9.94,5.67c.5-.28,.67-.93,.38-1.43l-5.73-10.05c-.29-.5-.93-.68-1.42-.4s-.67,.93-.38,1.43l5.73,10.05c.29,.5,.93,.68,1.42,.4l-9.94,5.67c.5-.28,.67-.93,.38-1.43l-5.73-10.05c-.29-.5-.93-.68-1.42-.4s-.67,.93-.38,1.43l5.73,10.05c.29,.5,.93,.68,1.42,.4l-8.1,4.62c-3.5,2-8.02,.73-10.03-2.8l-.24-.42,.44-.25c.25-.14,.34-.47,.2-.73l-4.95-8.67,65.59-37.41Z"/><path class="cls-1" d="M142.51,94.99l8.22,14.41-65.59,37.41-4.95-8.67c-.15-.26-.47-.35-.73-.2l-.44,.25-.24-.42c-2.02-3.54-.8-8.07,2.69-10.06l55.97-31.92c1.59-.91,3.38-1.14,5.06-.79Z"/><path class="cls-8" d="M142.24,120.9l5.73,10.05c.29,.5,.11,1.15-.38,1.43s-1.14,.1-1.42-.4l-5.73-10.05c-.29-.5-.11-1.15,.38-1.43s1.14-.1,1.42,.4Z"/><path class="cls-8" d="M132.3,126.57l5.73,10.05c.29,.5,.11,1.15-.38,1.43s-1.14,.1-1.42-.4l-5.73-10.05c-.29-.5-.11-1.15,.38-1.43s1.14-.1,1.42,.4Z"/><path class="cls-8" d="M122.36,132.24l5.73,10.05c.29,.5,.11,1.15-.38,1.43s-1.14,.1-1.42-.4l-5.73-10.05c-.29-.5-.11-1.15,.38-1.43s1.14-.1,1.42,.4Z"/><path class="cls-8" d="M112.41,137.92l5.73,10.05c.29,.5,.11,1.15-.38,1.43s-1.14,.1-1.42-.4l-5.73-10.05c-.29-.5-.11-1.15,.38-1.43s1.14-.1,1.42,.4Z"/><path class="cls-8" d="M102.47,143.59l5.73,10.05c.29,.5,.11,1.15-.38,1.43s-1.14,.1-1.42-.4l-5.73-10.05c-.29-.5-.11-1.15,.38-1.43s1.14-.1,1.42,.4Z"/><path class="cls-1" d="M85.14,146.81l4.95,8.67c.15,.26,.06,.58-.2,.73l-.44,.25-5.21-9.14,.9-.52Z"/><path class="cls-1" d="M80.2,138.14l4.95,8.67-.9,.52-5.21-9.14,.44-.25c.25-.14,.58-.05,.73,.2Z"/><path class="cls-3" d="M84.24,147.32l5.21,9.14-4.06,2.31c-.25,.14-.58,.05-.73-.2l-4.95-8.67,4.52-2.58Z"/><path class="cls-1" d="M79.03,138.19l5.21,9.14-4.52,2.58-4.95-8.67c-.15-.26-.06-.58,.2-.73l4.06-2.31Z"/><path class="cls-1" d="M78.29,149.5c.5-.28,1.14-.1,1.42,.4s.11,1.15-.38,1.43l-27.12,15.47c-.5,.28-1.14,.1-1.42-.4s-.11-1.15,.38-1.43l27.12-15.47Z"/></g><g><path class="cls-5" d="M89.45,156.46l.24,.42c2.02,3.54,6.53,4.8,10.03,2.8l8.1-4.62,9.94-5.67,9.94-5.67,9.94-5.67,9.94-5.67,8.1-4.62c1.59-.91,2.71-2.33,3.26-3.95"/><path class="cls-5" d="M142.51,94.99c-1.67-.35-3.47-.12-5.06,.79l-55.97,31.92c-3.5,2-4.71,6.53-2.69,10.06l.24,.42"/><path class="cls-5" d="M163.06,114.48l14.06-8.02,1.3,2.28c1,1.75,3.25,2.38,4.99,1.39s2.34-3.25,1.34-5l-6.51-11.42-6.51-11.42c-1-1.75-3.25-2.38-4.99-1.39s-2.34,3.25-1.34,5l1.3,2.28-14.06,8.02"/><path class="cls-5" d="M79.72,149.9l4.95,8.67c.15,.26,.47,.35,.73,.2l4.06-2.31,.44-.25c.25-.14,.34-.47,.2-.73l-4.95-8.67-4.95-8.67c-.15-.26-.47-.35-.73-.2l-.44,.25-4.06,2.31c-.25,.14-.34,.47-.2,.73l4.95,8.67Z"/><path class="cls-5" d="M51.18,164.97l27.12-15.47c.5-.28,1.14-.1,1.42,.4s.11,1.15-.38,1.43l-27.12,15.47c-.5,.28-1.14,.1-1.42-.4s-.11-1.15,.38-1.43Z"/><path class="cls-5" d="M163.06,114.48l3.43,6.02c1.06,1.85,.42,4.23-1.41,5.27l-.45,.26c-1.83,1.05-4.2,.39-5.26-1.47l-.43-.75-8.22-14.41-8.22-14.41-.43-.75c-1.06-1.85-.42-4.23,1.41-5.27l.45-.26c1.83-1.05,4.2-.39,5.26,1.47l3.43,6.02,5.21,9.14,5.21,9.14Z"/><polyline class="cls-5" points="79.72 149.9 84.24 147.32 85.14 146.81 150.73 109.4 152.93 108.15 156.55 106.08 157.85 105.34 178.24 93.71"/></g></g><circle class="cls-2" cx="138.51" cy="50.22" r="28.35"/><circle class="cls-2" cx="138.51" cy="50.22" r="14.17"/></g></g></svg>