<?xml version="1.0" encoding="utf-8"?>
<!-- Generator: Adobe Illustrator 26.3.1, SVG Export Plug-In . SVG Version: 6.00 Build 0)  -->
<svg version="1.1" id="レイヤー_1" xmlns="http://www.w3.org/2000/svg" xmlns:xlink="http://www.w3.org/1999/xlink" x="0px"
	 y="0px" viewBox="0 0 150 150" style="enable-background:new 0 0 150 150;" xml:space="preserve">
<style type="text/css">
	.st0{fill:#0364ca ;}
	.st1{fill:none;stroke:#0364ca ;stroke-width:3.0473;stroke-miterlimit:10;}
</style>
<g>
	<path class="st0" d="M26.7,59.8c0.4,0.3,0.8,0.6,1.2,0.9c2.4,1.5,4.5,3.6,5.9,6.1c1,1.9,1.6,3.9,1.8,6c0.3,15.7,0.5,31.4,0.8,47.2
		v1c-0.8,4.4,0.4,9,3.2,12.5c2.4,3.1,6,5,9.9,5.2H50c7.2-0.5,13-6.2,13.7-13.3V74c-0.2-2.8,0.4-5.5,1.7-8c1.2-2.2,3-3.9,5.2-5.2
		c0.4-0.3,0.9-0.6,1.3-0.9c5.9-6.3,8.3-15.1,6.6-23.4c-0.9-4.2-2.7-10.5-5.6-14.7c-3.6-5.3-8.4-8-11.1-7.4c-0.1,0-0.1,0-0.2,0
		c-0.3,4.8,0.2,23.3-0.1,28c-3.2,0.3-19.8,0.3-24,0c0.1-3.4,0.1-21.3-0.1-26.8c0-0.5-0.4-0.6-0.9-0.5c-3.3,0.4-7.5,4.6-9.6,6.7
		c-5.2,4.8-6.7,11.6-7.1,18.7C19.2,47.6,21.8,54.6,26.7,59.8z"/>
	<path class="st0" d="M74.2,132.1h19.6v-32h0.3c0.2,0.9,0.8,2.3,1.7,4.5l14.4,27.5v0.1h23.7l-20.3-34l18.5-31.1h-23.2l-13,26.4
		c-0.7,1.3-1.3,2.9-1.9,4.5h-0.2V67H74.2V132.1z"/>
	<path class="st1" d="M141.7,146.2H8.3c-3.5,0-6.5-2.9-6.5-6.5V10.2c0-3.5,2.9-6.5,6.5-6.5h133.3c3.5,0,6.5,2.9,6.5,6.5v129.5
		C148.1,143.3,145.2,146.2,141.7,146.2z"/>
</g>
</svg>
