<?xml version="1.0" encoding="utf-8"?>
<!-- Generator: Adobe Illustrator 26.3.1, SVG Export Plug-In . SVG Version: 6.00 Build 0)  -->
<svg version="1.1" id="レイヤー_1" xmlns="http://www.w3.org/2000/svg" xmlns:xlink="http://www.w3.org/1999/xlink" x="0px"
	 y="0px" viewBox="0 0 200 39.9" style="enable-background:new 0 0 200 39.9;" xml:space="preserve">
<style type="text/css">
	.st0{fill:#FFFFFF;}
	.st1{enable-background:new    ;}
	.st2{fill:#0364ca ;}
	.st3{clip-path:url(#SVGID_00000039844297883822717940000017834110446139757464_);fill:#0364ca ;}
</style>
<rect x="6.4" y="4.6" class="st0" width="28.2" height="28.2"/>
<g class="st1">
	<path class="st2" d="M53.3,29.6L49,21.5c-0.3-0.6-0.5-1.1-0.5-1.3h-0.1v9.4h-5.8V10.4h5.8v9.1h0.1c0.2-0.5,0.4-0.9,0.6-1.3l3.8-7.8
		h6.8l-5.4,9.1l6,10H53.3z"/>
	<path class="st2" d="M62.1,29.6V10.4h5.8v19.2H62.1z"/>
	<path class="st2" d="M85.4,23.8c0,1.3-0.3,2.4-1,3.3c-0.7,0.9-1.6,1.6-2.9,2.1c-1.2,0.5-2.7,0.7-4.4,0.7c-2,0-3.8-0.3-5.5-1v-5.2
		c0.8,0.6,1.7,1.1,2.7,1.4c1,0.4,1.9,0.5,2.7,0.5c0.6,0,1.1-0.1,1.5-0.3c0.3-0.2,0.5-0.6,0.5-1c0-0.3-0.1-0.6-0.3-0.8
		c-0.2-0.2-0.4-0.5-0.8-0.7c-0.4-0.2-1-0.5-2-0.8c-3.1-1.2-4.6-3.1-4.6-5.7c0-1.9,0.7-3.3,2.1-4.4c1.4-1.1,3.3-1.7,5.7-1.7
		c0.7,0,1.3,0,1.8,0.1s1.1,0.1,1.5,0.2c0.5,0.1,1.1,0.2,1.9,0.5v4.9c-1.6-0.9-3.2-1.3-4.8-1.3c-0.6,0-1.2,0.1-1.5,0.4
		c-0.4,0.2-0.6,0.6-0.6,1c0,0.4,0.2,0.7,0.5,1c0.3,0.3,1,0.6,2,1c2,0.8,3.4,1.7,4.2,2.6C85,21.3,85.4,22.5,85.4,23.8z"/>
	<path class="st2" d="M100.7,29.6v-7.1h-6.6v7.1h-5.8V10.4h5.8v7.1h6.6v-7.1h5.8v19.2H100.7z"/>
	<path class="st2" d="M110.7,29.6V10.4h5.8v19.2H110.7z"/>
	<path class="st2" d="M137.6,28.3c-0.7,0.4-1.8,0.8-3.2,1.1c-1.4,0.3-2.8,0.5-4.1,0.5c-3.4,0-5.9-0.8-7.8-2.5
		c-1.8-1.7-2.7-4-2.7-7.1c0-2,0.5-3.8,1.4-5.4c0.9-1.6,2.2-2.8,3.9-3.6c1.7-0.8,3.6-1.2,5.9-1.2c1.7,0,3.4,0.2,5.3,0.7v5
		c-0.9-0.4-1.7-0.7-2.5-0.8c-0.8-0.2-1.7-0.2-2.7-0.2c-1.6,0-2.8,0.5-3.8,1.4c-0.9,1-1.4,2.3-1.4,3.9c0,1.6,0.4,2.8,1.2,3.7
		c0.8,0.9,1.9,1.3,3.3,1.3c0.7,0,1.1,0,1.5-0.1v-2.7h-3.7V18h9.4V28.3z"/>
	<path class="st2" d="M153.2,29.6l-0.8-3.5h-5.7l-0.9,3.5h-6.2l6.6-19.2h7.2l6.2,19.2H153.2z M149.6,14.6h-0.1
		c0,0.2-0.1,0.6-0.2,1.1c-0.1,0.5-0.6,2.6-1.6,6.3h3.7l-1.3-5.2C149.8,16,149.7,15.3,149.6,14.6z"/>
	<path class="st2" d="M179.8,29.6V19.1c0-1,0-2.1,0.1-3.3l0-0.9h-0.2c-0.3,1.5-0.5,2.5-0.7,3.1l-2.8,11.5h-5.4l-3-11.4
		c-0.1-0.3-0.3-1.4-0.6-3.3h-0.2c0.1,3,0.2,4.9,0.2,5.6v9h-5.1V10.4h8.6l2.6,10.4c0.1,0.2,0.1,0.6,0.2,1.3c0.1,0.7,0.2,1.2,0.2,1.5
		h0.1c0.1-0.8,0.3-1.8,0.5-2.9l2.5-10.4h8.5v19.2H179.8z"/>
	<path class="st2" d="M189.8,29.6V10.4h5.8v19.2H189.8z"/>
</g>
<g>
	<g>
		<defs>
			<rect id="SVGID_1_" x="5.5" y="3.8" width="29.9" height="29.9"/>
		</defs>
		<clipPath id="SVGID_00000055672536932372539710000012959905437415529388_">
			<use xlink:href="#SVGID_1_"  style="overflow:visible;"/>
		</clipPath>
		<path id="Logo-2" style="clip-path:url(#SVGID_00000055672536932372539710000012959905437415529388_);fill:#0364ca ;" d="M40,38.3
			H1c0,0,0,0,0,0v-39c0,0,0,0,0,0h39c0,0,0,0,0,0L40,38.3C40,38.3,40,38.3,40,38.3z M10.9,7.9c-1,1-1.3,2.3-1.4,3.7
			c-0.1,1.4,0.4,2.8,1.4,3.8c0.1,0.1,0.2,0.1,0.2,0.2c0.5,0.3,0.9,0.7,1.2,1.2c0.2,0.4,0.3,0.8,0.4,1.2c0,3.1,0.1,6.2,0.1,9.4v0.2
			c-0.2,0.9,0.1,1.8,0.6,2.5c0.5,0.6,1.2,1,2,1h0.1c1.4-0.1,2.6-1.2,2.7-2.7c0,0,0,0,0,0V18.3c0-0.6,0.1-1.1,0.3-1.6
			c0.2-0.4,0.6-0.8,1-1c0.1-0.1,0.2-0.1,0.3-0.2c1.2-1.2,1.6-3,1.3-4.7C21,10,20.6,8.8,20.1,7.9c-0.7-1-1.7-1.6-2.2-1.5
			c-0.4,0.1,0,0,0,0c-0.1,0.9,0,4.7,0,5.6c0,0,0,0,0,0c-0.6,0.1-3.9,0.1-4.8,0c0,0,0,0,0,0c0-0.7,0-4.2,0-5.3c0-0.1-0.1-0.1-0.2-0.1
			C12.2,6.7,11.3,7.5,10.9,7.9z M24.2,24.7L24.2,24.7l4.3,5.2c0,0,0,0,0,0h2.9c0,0,0,0,0,0l-5.5-6.6c0,0,0,0,0,0l5.3-4.7
			c0,0,0,0,0,0h-2.9c0,0,0,0,0,0c-0.9,0.9-2.1,2-3.1,2.9c-1.1,1-2,1.9-2.4,2.3c0,0,0,0,0,0v-5.2c0,0,0,0,0,0h-2.4c0,0,0,0,0,0v11.4
			c0,0,0,0,0,0h2.4c0,0,0,0,0,0v-4c0,0,0,0,0,0L24.2,24.7L24.2,24.7z M15.6,29.4L15.6,29.4c-0.3,0-0.6-0.1-0.9-0.4
			c-0.2-0.2-0.2-0.5-0.2-0.8l0,0c0.1-0.5,0.5-1,1.1-1c0.3,0,0.6,0.1,0.9,0.4c0.2,0.2,0.2,0.5,0.2,0.8l0,0
			C16.6,29,16.1,29.4,15.6,29.4z"/>
	</g>
	<rect x="19.2" y="17.9" class="st2" width="13.3" height="13.3"/>
	<g>
		<path class="st0" d="M27.5,29.8l-2.9-5.5c-0.2-0.4-0.3-0.7-0.3-0.9h0v6.4h-3.9V16.9h3.9v6.1h0c0.1-0.3,0.2-0.6,0.4-0.9l2.6-5.2
			h4.6l-3.7,6.2l4,6.8H27.5z"/>
	</g>
</g>
<g id="レイヤー_2">
</g>
</svg>
