<?xml version="1.0" encoding="UTF-8"?><svg id="_レイヤー_2" xmlns="http://www.w3.org/2000/svg" width="192.78" height="192.78" viewBox="0 0 192.78 192.78"><defs><style>.cls-1{fill:#fff;}.cls-2{fill:#ded9e2;}.cls-3{fill:none;stroke:#fff;stroke-linecap:round;stroke-linejoin:round;stroke-width:6px;}.cls-4,.cls-5{fill:#7acfd3;}.cls-6,.cls-7{fill:#f75934;}.cls-7{font-family:Europa-Bold, Europa-Bold;font-size:13.67px;}.cls-8{fill:#3a3a3a;}.cls-5{stroke:#3a3a3a;stroke-miterlimit:10;stroke-width:3px;}</style></defs><g id="_レイヤー_1-2"><g><circle class="cls-2" cx="96.39" cy="96.39" r="96.39"/><rect class="cls-1" x="44.55" y="39.69" width="98.01" height="123.12" rx="10.43" ry="10.43"/><g><line class="cls-3" x1="137.3" y1="31.18" x2="142.97" y2="20.65"/><line class="cls-3" x1="147.14" y1="39.35" x2="156.07" y2="31.39"/><line class="cls-3" x1="153.6" y1="50.39" x2="164.71" y2="45.96"/></g><rect class="cls-5" x="55.08" y="57.91" width="79.38" height="20.65" rx="3.91" ry="3.91"/><g><rect class="cls-6" x="55.08" y="90.72" width="12.15" height="11.34" rx="2.4" ry="2.4"/><rect class="cls-4" x="71.89" y="90.72" width="12.15" height="11.34" rx="2.4" ry="2.4"/><rect class="cls-4" x="88.7" y="90.72" width="12.15" height="11.34" rx="2.4" ry="2.4"/><rect class="cls-4" x="105.5" y="90.72" width="12.15" height="11.34" rx="2.4" ry="2.4"/><rect class="cls-4" x="122.31" y="90.72" width="12.15" height="11.34" rx="2.4" ry="2.4"/></g><g><rect class="cls-8" x="55.08" y="106.11" width="12.15" height="11.34" rx="2.4" ry="2.4"/><rect class="cls-8" x="71.89" y="106.11" width="12.15" height="11.34" rx="2.4" ry="2.4"/><rect class="cls-8" x="88.7" y="106.11" width="12.15" height="11.34" rx="2.4" ry="2.4"/><rect class="cls-8" x="105.5" y="106.11" width="12.15" height="11.34" rx="2.4" ry="2.4"/><rect class="cls-8" x="122.31" y="106.11" width="12.15" height="11.34" rx="2.4" ry="2.4"/></g><g><rect class="cls-8" x="55.08" y="121.5" width="12.15" height="11.34" rx="2.4" ry="2.4"/><rect class="cls-8" x="71.89" y="121.5" width="12.15" height="11.34" rx="2.4" ry="2.4"/><rect class="cls-8" x="88.7" y="121.5" width="12.15" height="11.34" rx="2.4" ry="2.4"/><rect class="cls-8" x="105.5" y="121.5" width="12.15" height="11.34" rx="2.4" ry="2.4"/><rect class="cls-8" x="122.31" y="121.5" width="12.15" height="11.34" rx="2.4" ry="2.4"/></g><g><rect class="cls-8" x="55.08" y="136.89" width="12.15" height="11.34" rx="2.4" ry="2.4"/><rect class="cls-8" x="71.89" y="136.89" width="12.15" height="11.34" rx="2.4" ry="2.4"/><rect class="cls-8" x="88.7" y="136.89" width="12.15" height="11.34" rx="2.4" ry="2.4"/><rect class="cls-8" x="105.5" y="136.89" width="12.15" height="11.34" rx="2.4" ry="2.4"/><rect class="cls-8" x="122.31" y="136.89" width="12.15" height="11.34" rx="2.4" ry="2.4"/></g><text class="cls-7" transform="translate(84.41 74.8) scale(1.17 1)"><tspan x="0" y="0">12345</tspan></text></g></g></svg>