<?xml version="1.0" encoding="UTF-8"?><svg id="_レイヤー_2" xmlns="http://www.w3.org/2000/svg" width="192.78" height="192.78" viewBox="0 0 192.78 192.78"><defs><style>.cls-1{fill:#fff;}.cls-2{fill:#d9d9dd;}.cls-3{fill:#3a3a3a;}.cls-4{fill:#e8d97c;}.cls-5{fill:#9ae3f4;}</style></defs><g id="_レイヤー_1-2"><g><circle class="cls-5" cx="96.39" cy="96.39" r="96.39"/><rect class="cls-1" x="52.65" y="30.78" width="86.67" height="129.6"/><path class="cls-3" d="M134.19,23.89H56.97c-6.18,0-11.2,5.03-11.2,11.2v127.45c0,6.18,5.03,11.2,11.2,11.2h77.23c6.18,0,11.2-5.03,11.2-11.2V35.1c0-6.18-5.03-11.2-11.2-11.2Zm-77.23,8.91h77.23c1.24,0,2.29,1.05,2.29,2.29v120.83H54.67V35.1c0-1.24,1.05-2.29,2.29-2.29Z"/><rect class="cls-1" x="78.57" y="160.38" width="34.02" height="6.48" rx="3.24" ry="3.24"/><path class="cls-4" d="M124.74,43.74c-26.39,0-47.79,21.4-47.79,47.79,0,8.93,2.45,17.28,6.71,24.42l-5.69,4.97c-1.08,.94-.26,2.7,1.15,2.5l8.89-1.31c8.77,10.51,21.96,17.21,36.72,17.21,26.39,0,47.79-21.4,47.79-47.79s-21.4-47.79-47.79-47.79Z"/><g><path class="cls-2" d="M135.11,61.56c.64,0,1.13,.53,1.09,1.17l-3.09,44.79c-.04,.58-.52,1.02-1.09,1.02,0,0-3.84-1.62-7.08-1.62-.06,0-.13,0-.2,0V61.56h10.37Z"/><path class="cls-2" d="M124.94,109.35c5.14,0,9.32,4.17,9.32,9.32s-4.17,9.31-9.32,9.31h-.2v-18.63h.2Z"/><path class="cls-1" d="M124.74,109.35v18.63c-5.05-.11-9.11-4.24-9.11-9.31s4.06-9.2,9.11-9.32Z"/><path class="cls-1" d="M124.74,61.56v45.37c-3.19,.06-6.88,1.61-6.88,1.61-.58,0-1.05-.45-1.09-1.02l-3.09-44.79c-.04-.63,.45-1.17,1.09-1.17h9.96Z"/></g></g></g></svg>